%TF.GenerationSoftware,KiCad,Pcbnew,10.0.6*%
%TF.CreationDate,2026-09-28T20:35:20-04:00*%
%TF.ProjectId,Sigil_EInk,53696769-6c5f-4454-996e-6b2e6b696361,rev?*%
%TF.SameCoordinates,Original*%
%TF.FileFunction,Copper,L2,Bot*%
%TF.FilePolarity,Positive*%
%FSLAX46Y46*%
G04 Gerber Fmt 4.6, Leading zero omitted, Abs format (unit mm)*
G04 Created by KiCad (PCBNEW 10.0.6) date 2026-09-28 20:35:20*
%MOMM*%
%LPD*%
G01*
G04 APERTURE LIST*
G04 Aperture macros list*
%AMRoundRect*
0 Rectangle with rounded corners*
0 $1 Rounding radius*
0 $2 $3 $4 $5 $6 $7 $8 $9 X,Y pos of 4 corners*
0 Add a 4 corners polygon primitive as box body*
4,1,4,$2,$3,$4,$5,$6,$7,$8,$9,$2,$3,0*
0 Add four circle primitives for the rounded corners*
1,1,$1+$1,$2,$3*
1,1,$1+$1,$4,$5*
1,1,$1+$1,$6,$7*
1,1,$1+$1,$8,$9*
0 Add four rect primitives between the rounded corners*
20,1,$1+$1,$2,$3,$4,$5,0*
20,1,$1+$1,$4,$5,$6,$7,0*
20,1,$1+$1,$6,$7,$8,$9,0*
20,1,$1+$1,$8,$9,$2,$3,0*%
G04 Aperture macros list end*
%TA.AperFunction,ComponentPad*%
%ADD10RoundRect,0.250000X0.725000X-0.600000X0.725000X0.600000X-0.725000X0.600000X-0.725000X-0.600000X0*%
%TD*%
%TA.AperFunction,ComponentPad*%
%ADD11O,1.950000X1.700000*%
%TD*%
%TA.AperFunction,ComponentPad*%
%ADD12C,1.600000*%
%TD*%
%TA.AperFunction,ComponentPad*%
%ADD13R,1.700000X1.700000*%
%TD*%
%TA.AperFunction,ComponentPad*%
%ADD14C,1.700000*%
%TD*%
%TA.AperFunction,ComponentPad*%
%ADD15RoundRect,0.250000X-0.600000X-0.725000X0.600000X-0.725000X0.600000X0.725000X-0.600000X0.725000X0*%
%TD*%
%TA.AperFunction,ComponentPad*%
%ADD16O,1.700000X1.950000*%
%TD*%
%TA.AperFunction,ViaPad*%
%ADD17C,0.600000*%
%TD*%
%TA.AperFunction,Conductor*%
%ADD18C,0.200000*%
%TD*%
G04 APERTURE END LIST*
D10*
%TO.P,J5,1,+5V_1*%
%TO.N,/+5V*%
X141275000Y-116500000D03*
D11*
%TO.P,J5,2,DIN_2*%
%TO.N,/RING_DIN_R*%
X141275000Y-114000000D03*
%TO.P,J5,3,GND_3*%
%TO.N,/GND*%
X141275000Y-111500000D03*
%TD*%
D12*
%TO.P,C3,1,~_1*%
%TO.N,/+5V*%
X141800000Y-132000000D03*
%TO.P,C3,2,~_2*%
%TO.N,/GND*%
X141800000Y-127000000D03*
%TD*%
%TO.P,C2,1,~_1*%
%TO.N,/+3V3*%
X104800000Y-154000000D03*
%TO.P,C2,2,~_2*%
%TO.N,/GND*%
X104800000Y-149000000D03*
%TD*%
%TO.P,R2,1,~_1*%
%TO.N,/FRONT_DIN_5V*%
X122190000Y-160000000D03*
%TO.P,R2,2,~_2*%
%TO.N,/FRONT_DIN_R*%
X129810000Y-160000000D03*
%TD*%
%TO.P,R1,1,~_1*%
%TO.N,/RING_DIN_5V*%
X141800000Y-142810000D03*
%TO.P,R1,2,~_2*%
%TO.N,/RING_DIN_R*%
X141800000Y-135190000D03*
%TD*%
D10*
%TO.P,J2,1*%
%TO.N,/EPD_MOSI*%
X104275000Y-144750000D03*
D11*
%TO.P,J2,2*%
%TO.N,/EPD_SCLK*%
X104275000Y-142250000D03*
%TO.P,J2,3*%
%TO.N,/EPD_CS*%
X104275000Y-139750000D03*
%TO.P,J2,4*%
%TO.N,/EPD_DC*%
X104275000Y-137250000D03*
%TO.P,J2,5*%
%TO.N,/EPD_RST*%
X104275000Y-134750000D03*
%TO.P,J2,6*%
%TO.N,/EPD_BUSY*%
X104275000Y-132250000D03*
%TO.P,J2,7*%
%TO.N,/+3V3*%
X104275000Y-129750000D03*
%TO.P,J2,8*%
%TO.N,/GND*%
X104275000Y-127250000D03*
%TD*%
D12*
%TO.P,C4,1,~_1*%
%TO.N,/+5V*%
X109500000Y-165500000D03*
%TO.P,C4,2,~_2*%
%TO.N,/GND*%
X114500000Y-165500000D03*
%TD*%
D13*
%TO.P,U1,A1*%
%TO.N,unconnected-(U1-CLK-PadA1)*%
X111570000Y-103400000D03*
D14*
%TO.P,U1,A2*%
%TO.N,unconnected-(U1-SD0-PadA2)*%
X111570000Y-105940000D03*
%TO.P,U1,A3*%
%TO.N,unconnected-(U1-SD1-PadA3)*%
X111570000Y-108480000D03*
%TO.P,U1,A4*%
%TO.N,unconnected-(U1-GPIO15-PadA4)*%
X111570000Y-111020000D03*
%TO.P,U1,A5*%
%TO.N,unconnected-(U1-GPIO2-PadA5)*%
X111570000Y-113560000D03*
%TO.P,U1,A6*%
%TO.N,unconnected-(U1-GPIO0-PadA6)*%
X111570000Y-116100000D03*
%TO.P,U1,A7*%
%TO.N,unconnected-(U1-GPIO4-PadA7)*%
X111570000Y-118640000D03*
%TO.P,U1,A8*%
%TO.N,/EPD_DC*%
X111570000Y-121180000D03*
%TO.P,U1,A9*%
%TO.N,/EPD_CS*%
X111570000Y-123720000D03*
%TO.P,U1,A10*%
%TO.N,unconnected-(U1-GPIO5-PadA10)*%
X111570000Y-126260000D03*
%TO.P,U1,A11*%
%TO.N,/EPD_SCLK*%
X111570000Y-128800000D03*
%TO.P,U1,A12*%
%TO.N,unconnected-(U1-GPIO19-PadA12)*%
X111570000Y-131340000D03*
%TO.P,U1,A13*%
%TO.N,/GND*%
X111570000Y-133880000D03*
%TO.P,U1,A14*%
%TO.N,/EPD_BUSY*%
X111570000Y-136420000D03*
%TO.P,U1,A15*%
%TO.N,unconnected-(U1-RXD0-PadA15)*%
X111570000Y-138960000D03*
%TO.P,U1,A16*%
%TO.N,unconnected-(U1-TXD0-PadA16)*%
X111570000Y-141500000D03*
%TO.P,U1,A17*%
%TO.N,/EPD_RST*%
X111570000Y-144040000D03*
%TO.P,U1,A18*%
%TO.N,/EPD_MOSI*%
X111570000Y-146580000D03*
%TO.P,U1,A19*%
%TO.N,/GND*%
X111570000Y-149120000D03*
D13*
%TO.P,U1,J1*%
%TO.N,/+5V*%
X133795000Y-103400000D03*
D14*
%TO.P,U1,J2*%
%TO.N,unconnected-(U1-CMD-PadJ2)*%
X133795000Y-105940000D03*
%TO.P,U1,J3*%
%TO.N,unconnected-(U1-SD3-PadJ3)*%
X133795000Y-108480000D03*
%TO.P,U1,J4*%
%TO.N,unconnected-(U1-SD2-PadJ4)*%
X133795000Y-111020000D03*
%TO.P,U1,J5*%
%TO.N,/FRONT_DIN*%
X133795000Y-113560000D03*
%TO.P,U1,J6*%
%TO.N,/GND*%
X133795000Y-116100000D03*
%TO.P,U1,J7*%
%TO.N,unconnected-(U1-GPIO12-PadJ7)*%
X133795000Y-118640000D03*
%TO.P,U1,J8*%
%TO.N,unconnected-(U1-GPIO14-PadJ8)*%
X133795000Y-121180000D03*
%TO.P,U1,J9*%
%TO.N,unconnected-(U1-GPIO27-PadJ9)*%
X133795000Y-123720000D03*
%TO.P,U1,J10*%
%TO.N,/RING_DIN*%
X133795000Y-126260000D03*
%TO.P,U1,J11*%
%TO.N,unconnected-(U1-GPIO25-PadJ11)*%
X133795000Y-128800000D03*
%TO.P,U1,J12*%
%TO.N,/BUZZER*%
X133795000Y-131340000D03*
%TO.P,U1,J13*%
%TO.N,/JOY_SW*%
X133795000Y-133880000D03*
%TO.P,U1,J14*%
%TO.N,/JOY_Y*%
X133795000Y-136420000D03*
%TO.P,U1,J15*%
%TO.N,/JOY_X*%
X133795000Y-138960000D03*
%TO.P,U1,J16*%
%TO.N,unconnected-(U1-SVN-PadJ16)*%
X133795000Y-141500000D03*
%TO.P,U1,J17*%
%TO.N,unconnected-(U1-SVP-PadJ17)*%
X133795000Y-144040000D03*
%TO.P,U1,J18*%
%TO.N,unconnected-(U1-EN-PadJ18)*%
X133795000Y-146580000D03*
%TO.P,U1,J19*%
%TO.N,/+3V3*%
X133795000Y-149120000D03*
%TD*%
D10*
%TO.P,J4,1*%
%TO.N,/GND*%
X141275000Y-159000000D03*
D11*
%TO.P,J4,2*%
%TO.N,/+3V3*%
X141275000Y-156500000D03*
%TO.P,J4,3*%
%TO.N,/JOY_X*%
X141275000Y-154000000D03*
%TO.P,J4,4*%
%TO.N,/JOY_Y*%
X141275000Y-151500000D03*
%TO.P,J4,5*%
%TO.N,/JOY_SW*%
X141275000Y-149000000D03*
%TD*%
D15*
%TO.P,J6,1,+5V_1*%
%TO.N,/+5V*%
X120500000Y-170475000D03*
D16*
%TO.P,J6,2,DIN_2*%
%TO.N,/FRONT_DIN_R*%
X123000000Y-170475000D03*
%TO.P,J6,3,GND_3*%
%TO.N,/GND*%
X125500000Y-170475000D03*
%TD*%
D13*
%TO.P,J3,1,SIG_1*%
%TO.N,/BUZZER*%
X132000000Y-166725000D03*
D14*
%TO.P,J3,2,GND_2*%
%TO.N,/GND*%
X132000000Y-169265000D03*
%TD*%
D17*
%TO.N,/GND*%
X110862500Y-161846700D03*
%TO.N,/FRONT_DIN*%
X110759200Y-145310000D03*
%TO.N,/RING_DIN*%
X138668500Y-122936700D03*
%TD*%
%TO.N,/+5V*%
D18*
X127179100Y-132610000D02*
X141190000Y-132610000D01*
X109500000Y-165500000D02*
X103649900Y-159649900D01*
X120500000Y-170475000D02*
X114475000Y-170475000D01*
X133795000Y-104551700D02*
X134083000Y-104551700D01*
X134946700Y-110171700D02*
X141275000Y-116500000D01*
X109452200Y-147731700D02*
X112057400Y-147731700D01*
X103649900Y-153534000D02*
X109452200Y-147731700D01*
X134946700Y-105415400D02*
X134946700Y-110171700D01*
X133795000Y-103400000D02*
X133795000Y-104551700D01*
X103649900Y-159649900D02*
X103649900Y-153534000D01*
X141190000Y-132610000D02*
X141800000Y-132000000D01*
X114475000Y-170475000D02*
X109500000Y-165500000D01*
X134083000Y-104551700D02*
X134946700Y-105415400D01*
X112057400Y-147731700D02*
X127179100Y-132610000D01*
%TO.N,/FRONT_DIN*%
X121370100Y-135870300D02*
X111930400Y-145310000D01*
X121370100Y-125984900D02*
X121370100Y-135870300D01*
X133795000Y-113560000D02*
X121370100Y-125984900D01*
X111930400Y-145310000D02*
X110759200Y-145310000D01*
%TO.N,/+3V3*%
X105157100Y-154357100D02*
X104800000Y-154000000D01*
X135674300Y-150999300D02*
X132316500Y-154357100D01*
X135674300Y-150999300D02*
X133795000Y-149120000D01*
X141275000Y-155348300D02*
X140023300Y-155348300D01*
X140023300Y-155348300D02*
X135674300Y-150999300D01*
X141275000Y-156500000D02*
X141275000Y-155348300D01*
X132316500Y-154357100D02*
X105157100Y-154357100D01*
%TO.N,/FRONT_DIN_R*%
X124151700Y-170475000D02*
X124151700Y-165658300D01*
X124151700Y-165658300D02*
X129810000Y-160000000D01*
X123000000Y-170475000D02*
X124151700Y-170475000D01*
%TO.N,/EPD_MOSI*%
X106105000Y-146580000D02*
X104275000Y-144750000D01*
X111570000Y-146580000D02*
X106105000Y-146580000D01*
%TO.N,/EPD_SCLK*%
X104275000Y-142250000D02*
X104275000Y-141098300D01*
X103843100Y-141098300D02*
X102552200Y-139807400D01*
X109311500Y-131058500D02*
X111570000Y-128800000D01*
X103702900Y-131058500D02*
X109311500Y-131058500D01*
X104275000Y-141098300D02*
X103843100Y-141098300D01*
X102552200Y-132209200D02*
X103702900Y-131058500D01*
X102552200Y-139807400D02*
X102552200Y-132209200D01*
%TO.N,/EPD_DC*%
X104275000Y-137250000D02*
X105551700Y-137250000D01*
X112754200Y-136867500D02*
X112041700Y-137580000D01*
X111570000Y-121180000D02*
X112754200Y-122364200D01*
X112754200Y-122364200D02*
X112754200Y-136867500D01*
X105881700Y-137580000D02*
X105551700Y-137250000D01*
X112041700Y-137580000D02*
X105881700Y-137580000D01*
%TO.N,/EPD_RST*%
X103751800Y-138500000D02*
X102976900Y-137725100D01*
X106030000Y-138500000D02*
X103751800Y-138500000D01*
X104275000Y-134750000D02*
X104275000Y-135901700D01*
X102976900Y-136748100D02*
X103823300Y-135901700D01*
X111570000Y-144040000D02*
X106030000Y-138500000D01*
X102976900Y-137725100D02*
X102976900Y-136748100D01*
X103823300Y-135901700D02*
X104275000Y-135901700D01*
%TO.N,/EPD_BUSY*%
X111570000Y-136420000D02*
X107400000Y-132250000D01*
X107400000Y-132250000D02*
X104275000Y-132250000D01*
%TO.N,/RING_DIN*%
X135345200Y-126260000D02*
X138668500Y-122936700D01*
X133795000Y-126260000D02*
X135345200Y-126260000D01*
%TO.N,/JOY_SW*%
X141275000Y-149000000D02*
X141275000Y-147848300D01*
X140672600Y-147245900D02*
X140672600Y-140757600D01*
X140672600Y-140757600D02*
X133795000Y-133880000D01*
X141275000Y-147848300D02*
X140672600Y-147245900D01*
%TO.N,/JOY_Y*%
X135184800Y-144690000D02*
X135184800Y-137809800D01*
X141275000Y-151500000D02*
X141275000Y-150348300D01*
X140843100Y-150348300D02*
X135184800Y-144690000D01*
X141275000Y-150348300D02*
X140843100Y-150348300D01*
X135184800Y-137809800D02*
X133795000Y-136420000D01*
%TD*%
%TA.AperFunction,Conductor*%
%TO.N,/GND*%
G36*
X132828306Y-133030185D02*
G01*
X132874061Y-133082989D01*
X132884005Y-133152147D01*
X132861586Y-133207385D01*
X132811003Y-133277006D01*
X132728788Y-133438360D01*
X132728787Y-133438363D01*
X132672829Y-133610589D01*
X132644500Y-133789448D01*
X132644500Y-133970551D01*
X132672829Y-134149410D01*
X132728787Y-134321636D01*
X132728788Y-134321639D01*
X132778540Y-134419281D01*
X132805948Y-134473072D01*
X132811006Y-134482997D01*
X132917441Y-134629494D01*
X132917445Y-134629499D01*
X133045500Y-134757554D01*
X133045505Y-134757558D01*
X133173287Y-134850396D01*
X133192006Y-134863996D01*
X133297484Y-134917740D01*
X133353360Y-134946211D01*
X133353363Y-134946212D01*
X133439476Y-134974191D01*
X133525591Y-135002171D01*
X133598639Y-135013740D01*
X133685678Y-135027527D01*
X133748813Y-135057456D01*
X133785744Y-135116768D01*
X133784746Y-135186631D01*
X133746136Y-135244863D01*
X133685678Y-135272473D01*
X133525589Y-135297829D01*
X133353363Y-135353787D01*
X133353360Y-135353788D01*
X133192002Y-135436006D01*
X133045505Y-135542441D01*
X133045500Y-135542445D01*
X132917445Y-135670500D01*
X132917441Y-135670505D01*
X132811006Y-135817002D01*
X132728788Y-135978360D01*
X132728787Y-135978363D01*
X132672829Y-136150589D01*
X132644500Y-136329448D01*
X132644500Y-136510551D01*
X132672829Y-136689410D01*
X132728787Y-136861636D01*
X132728788Y-136861639D01*
X132758641Y-136920227D01*
X132810542Y-137022088D01*
X132811006Y-137022997D01*
X132917441Y-137169494D01*
X132917445Y-137169499D01*
X133045500Y-137297554D01*
X133045505Y-137297558D01*
X133173287Y-137390396D01*
X133192006Y-137403996D01*
X133297484Y-137457740D01*
X133353360Y-137486211D01*
X133353363Y-137486212D01*
X133439476Y-137514191D01*
X133525591Y-137542171D01*
X133598639Y-137553740D01*
X133685678Y-137567527D01*
X133748813Y-137597456D01*
X133785744Y-137656768D01*
X133784746Y-137726631D01*
X133746136Y-137784863D01*
X133685678Y-137812473D01*
X133525589Y-137837829D01*
X133353363Y-137893787D01*
X133353360Y-137893788D01*
X133192002Y-137976006D01*
X133045505Y-138082441D01*
X133045500Y-138082445D01*
X132917445Y-138210500D01*
X132917441Y-138210505D01*
X132811006Y-138357002D01*
X132728788Y-138518360D01*
X132728787Y-138518363D01*
X132672829Y-138690589D01*
X132644500Y-138869448D01*
X132644500Y-139050551D01*
X132672829Y-139229410D01*
X132728787Y-139401636D01*
X132728788Y-139401639D01*
X132811006Y-139562997D01*
X132917441Y-139709494D01*
X132917445Y-139709499D01*
X133045500Y-139837554D01*
X133045505Y-139837558D01*
X133115305Y-139888270D01*
X133192006Y-139943996D01*
X133297484Y-139997740D01*
X133353360Y-140026211D01*
X133353363Y-140026212D01*
X133436771Y-140053312D01*
X133525591Y-140082171D01*
X133598639Y-140093740D01*
X133685678Y-140107527D01*
X133748813Y-140137456D01*
X133785744Y-140196768D01*
X133784746Y-140266631D01*
X133746136Y-140324863D01*
X133685678Y-140352473D01*
X133525589Y-140377829D01*
X133353363Y-140433787D01*
X133353360Y-140433788D01*
X133192002Y-140516006D01*
X133045505Y-140622441D01*
X133045500Y-140622445D01*
X132917445Y-140750500D01*
X132917441Y-140750505D01*
X132811006Y-140897002D01*
X132728788Y-141058360D01*
X132728787Y-141058363D01*
X132672829Y-141230589D01*
X132644500Y-141409448D01*
X132644500Y-141590551D01*
X132672829Y-141769410D01*
X132728787Y-141941636D01*
X132728788Y-141941639D01*
X132748636Y-141980591D01*
X132805948Y-142093072D01*
X132811006Y-142102997D01*
X132917441Y-142249494D01*
X132917445Y-142249499D01*
X133045500Y-142377554D01*
X133045505Y-142377558D01*
X133115305Y-142428270D01*
X133192006Y-142483996D01*
X133297484Y-142537740D01*
X133353360Y-142566211D01*
X133353363Y-142566212D01*
X133439476Y-142594191D01*
X133525591Y-142622171D01*
X133598639Y-142633740D01*
X133685678Y-142647527D01*
X133748813Y-142677456D01*
X133785744Y-142736768D01*
X133784746Y-142806631D01*
X133746136Y-142864863D01*
X133685678Y-142892473D01*
X133525589Y-142917829D01*
X133353363Y-142973787D01*
X133353360Y-142973788D01*
X133192002Y-143056006D01*
X133045505Y-143162441D01*
X133045500Y-143162445D01*
X132917445Y-143290500D01*
X132917441Y-143290505D01*
X132811006Y-143437002D01*
X132728788Y-143598360D01*
X132728787Y-143598363D01*
X132672829Y-143770589D01*
X132644500Y-143949448D01*
X132644500Y-144130551D01*
X132672829Y-144309410D01*
X132728787Y-144481636D01*
X132728788Y-144481639D01*
X132811006Y-144642997D01*
X132917441Y-144789494D01*
X132917445Y-144789499D01*
X133045500Y-144917554D01*
X133045505Y-144917558D01*
X133078170Y-144941290D01*
X133192006Y-145023996D01*
X133297484Y-145077740D01*
X133353360Y-145106211D01*
X133353363Y-145106212D01*
X133439476Y-145134191D01*
X133525591Y-145162171D01*
X133598639Y-145173740D01*
X133685678Y-145187527D01*
X133748813Y-145217456D01*
X133785744Y-145276768D01*
X133784746Y-145346631D01*
X133746136Y-145404863D01*
X133685678Y-145432473D01*
X133525589Y-145457829D01*
X133353363Y-145513787D01*
X133353360Y-145513788D01*
X133192002Y-145596006D01*
X133045505Y-145702441D01*
X133045500Y-145702445D01*
X132917445Y-145830500D01*
X132917441Y-145830505D01*
X132811006Y-145977002D01*
X132728788Y-146138360D01*
X132728787Y-146138363D01*
X132672829Y-146310589D01*
X132644500Y-146489448D01*
X132644500Y-146670551D01*
X132672829Y-146849410D01*
X132728787Y-147021636D01*
X132728788Y-147021639D01*
X132811006Y-147182997D01*
X132917441Y-147329494D01*
X132917445Y-147329499D01*
X133045500Y-147457554D01*
X133045505Y-147457558D01*
X133173287Y-147550396D01*
X133192006Y-147563996D01*
X133297484Y-147617740D01*
X133353360Y-147646211D01*
X133353363Y-147646212D01*
X133439476Y-147674191D01*
X133525591Y-147702171D01*
X133598639Y-147713740D01*
X133685678Y-147727527D01*
X133748813Y-147757456D01*
X133785744Y-147816768D01*
X133784746Y-147886631D01*
X133746136Y-147944863D01*
X133685678Y-147972473D01*
X133525589Y-147997829D01*
X133353363Y-148053787D01*
X133353360Y-148053788D01*
X133192002Y-148136006D01*
X133045505Y-148242441D01*
X133045500Y-148242445D01*
X132917445Y-148370500D01*
X132917441Y-148370505D01*
X132811006Y-148517002D01*
X132728788Y-148678360D01*
X132728787Y-148678363D01*
X132672829Y-148850589D01*
X132644500Y-149029448D01*
X132644500Y-149210551D01*
X132672829Y-149389410D01*
X132728787Y-149561636D01*
X132728788Y-149561639D01*
X132811006Y-149722997D01*
X132917441Y-149869494D01*
X132917445Y-149869499D01*
X133045500Y-149997554D01*
X133045505Y-149997558D01*
X133139999Y-150066211D01*
X133192006Y-150103996D01*
X133297484Y-150157740D01*
X133353360Y-150186211D01*
X133353363Y-150186212D01*
X133439476Y-150214191D01*
X133525591Y-150242171D01*
X133608429Y-150255291D01*
X133704449Y-150270500D01*
X133704454Y-150270500D01*
X133885551Y-150270500D01*
X134064409Y-150242171D01*
X134115182Y-150225674D01*
X134208284Y-150195423D01*
X134278123Y-150193429D01*
X134334281Y-150225674D01*
X135020225Y-150911618D01*
X135053710Y-150972941D01*
X135048726Y-151042633D01*
X135020225Y-151086980D01*
X132416681Y-153690525D01*
X132355358Y-153724010D01*
X132285666Y-153719026D01*
X132229733Y-153677154D01*
X132205316Y-153611690D01*
X132205000Y-153602844D01*
X132205000Y-147630000D01*
X113155000Y-147630000D01*
X113155000Y-153832600D01*
X113135315Y-153899639D01*
X113082511Y-153945394D01*
X113031000Y-153956600D01*
X106013250Y-153956600D01*
X105946211Y-153936915D01*
X105900456Y-153884111D01*
X105890777Y-153851998D01*
X105873402Y-153742302D01*
X105873402Y-153742299D01*
X105819873Y-153577555D01*
X105741232Y-153423212D01*
X105639414Y-153283072D01*
X105516928Y-153160586D01*
X105376788Y-153058768D01*
X105222449Y-152980128D01*
X105073526Y-152931740D01*
X105015851Y-152892302D01*
X104988653Y-152827943D01*
X105000568Y-152759097D01*
X105024161Y-152726131D01*
X109581774Y-148168519D01*
X109643097Y-148135034D01*
X109669455Y-148132200D01*
X112110125Y-148132200D01*
X112110127Y-148132200D01*
X112211988Y-148104907D01*
X112303313Y-148052180D01*
X127308674Y-133046819D01*
X127369997Y-133013334D01*
X127396355Y-133010500D01*
X132761267Y-133010500D01*
X132828306Y-133030185D01*
G37*
%TD.AperFunction*%
%TA.AperFunction,Conductor*%
G36*
X111156716Y-129875424D02*
G01*
X111300591Y-129922171D01*
X111373639Y-129933740D01*
X111460678Y-129947527D01*
X111523813Y-129977456D01*
X111560744Y-130036768D01*
X111559746Y-130106631D01*
X111521136Y-130164863D01*
X111460678Y-130192473D01*
X111300589Y-130217829D01*
X111128363Y-130273787D01*
X111128360Y-130273788D01*
X110967003Y-130356005D01*
X110835750Y-130451364D01*
X110835740Y-130451373D01*
X110820499Y-130462447D01*
X110692447Y-130590499D01*
X110681373Y-130605740D01*
X110681364Y-130605750D01*
X110586005Y-130737003D01*
X110503788Y-130898360D01*
X110503787Y-130898363D01*
X110447829Y-131070589D01*
X110419500Y-131249448D01*
X110419500Y-131430551D01*
X110447829Y-131609410D01*
X110503787Y-131781636D01*
X110503788Y-131781639D01*
X110538366Y-131849500D01*
X110586003Y-131942993D01*
X110586006Y-131942997D01*
X110692441Y-132089494D01*
X110692445Y-132089499D01*
X110820500Y-132217554D01*
X110820505Y-132217558D01*
X110919556Y-132289522D01*
X110967006Y-132323996D01*
X111067287Y-132375092D01*
X111128360Y-132406211D01*
X111128363Y-132406212D01*
X111178331Y-132422447D01*
X111300591Y-132462171D01*
X111383429Y-132475291D01*
X111479449Y-132490500D01*
X111479454Y-132490500D01*
X111660551Y-132490500D01*
X111747259Y-132476765D01*
X111839409Y-132462171D01*
X112011639Y-132406211D01*
X112011649Y-132406206D01*
X112173405Y-132323787D01*
X112242074Y-132310890D01*
X112306814Y-132337166D01*
X112347072Y-132394272D01*
X112353700Y-132434271D01*
X112353700Y-135325728D01*
X112334015Y-135392767D01*
X112281211Y-135438522D01*
X112212053Y-135448466D01*
X112173405Y-135436213D01*
X112011639Y-135353788D01*
X112011636Y-135353787D01*
X111839410Y-135297829D01*
X111660551Y-135269500D01*
X111660546Y-135269500D01*
X111479454Y-135269500D01*
X111479449Y-135269500D01*
X111300587Y-135297829D01*
X111156715Y-135344575D01*
X111086874Y-135346570D01*
X111030717Y-135314325D01*
X109344221Y-133627829D01*
X107645913Y-131929520D01*
X107600250Y-131903156D01*
X107554589Y-131876793D01*
X107503657Y-131863146D01*
X107452727Y-131849500D01*
X107452726Y-131849500D01*
X105563160Y-131849500D01*
X105496121Y-131829815D01*
X105452675Y-131781795D01*
X105381784Y-131642665D01*
X105382931Y-131642080D01*
X105366233Y-131580340D01*
X105387350Y-131513739D01*
X105441124Y-131469127D01*
X105490204Y-131459000D01*
X109364225Y-131459000D01*
X109364227Y-131459000D01*
X109466088Y-131431707D01*
X109557413Y-131378980D01*
X111030719Y-129905672D01*
X111092040Y-129872189D01*
X111156716Y-129875424D01*
G37*
%TD.AperFunction*%
%TA.AperFunction,Conductor*%
G36*
X145442539Y-100020185D02*
G01*
X145488294Y-100072989D01*
X145499500Y-100124500D01*
X145499500Y-175375500D01*
X145479815Y-175442539D01*
X145427011Y-175488294D01*
X145375500Y-175499500D01*
X100624500Y-175499500D01*
X100557461Y-175479815D01*
X100511706Y-175427011D01*
X100500500Y-175375500D01*
X100500500Y-171878711D01*
X102149500Y-171878711D01*
X102149500Y-172121288D01*
X102181161Y-172361785D01*
X102243947Y-172596104D01*
X102336773Y-172820205D01*
X102336776Y-172820212D01*
X102458064Y-173030289D01*
X102458066Y-173030292D01*
X102458067Y-173030293D01*
X102605733Y-173222736D01*
X102605739Y-173222743D01*
X102777256Y-173394260D01*
X102777262Y-173394265D01*
X102969711Y-173541936D01*
X103179788Y-173663224D01*
X103403900Y-173756054D01*
X103638211Y-173818838D01*
X103818586Y-173842584D01*
X103878711Y-173850500D01*
X103878712Y-173850500D01*
X104121289Y-173850500D01*
X104169388Y-173844167D01*
X104361789Y-173818838D01*
X104596100Y-173756054D01*
X104820212Y-173663224D01*
X105030289Y-173541936D01*
X105222738Y-173394265D01*
X105394265Y-173222738D01*
X105541936Y-173030289D01*
X105663224Y-172820212D01*
X105756054Y-172596100D01*
X105818838Y-172361789D01*
X105850500Y-172121288D01*
X105850500Y-171878712D01*
X105850500Y-171878711D01*
X140149500Y-171878711D01*
X140149500Y-172121288D01*
X140181161Y-172361785D01*
X140243947Y-172596104D01*
X140336773Y-172820205D01*
X140336776Y-172820212D01*
X140458064Y-173030289D01*
X140458066Y-173030292D01*
X140458067Y-173030293D01*
X140605733Y-173222736D01*
X140605739Y-173222743D01*
X140777256Y-173394260D01*
X140777262Y-173394265D01*
X140969711Y-173541936D01*
X141179788Y-173663224D01*
X141403900Y-173756054D01*
X141638211Y-173818838D01*
X141818586Y-173842584D01*
X141878711Y-173850500D01*
X141878712Y-173850500D01*
X142121289Y-173850500D01*
X142169388Y-173844167D01*
X142361789Y-173818838D01*
X142596100Y-173756054D01*
X142820212Y-173663224D01*
X143030289Y-173541936D01*
X143222738Y-173394265D01*
X143394265Y-173222738D01*
X143541936Y-173030289D01*
X143663224Y-172820212D01*
X143756054Y-172596100D01*
X143818838Y-172361789D01*
X143850500Y-172121288D01*
X143850500Y-171878712D01*
X143818838Y-171638211D01*
X143756054Y-171403900D01*
X143663224Y-171179788D01*
X143541936Y-170969711D01*
X143394265Y-170777262D01*
X143394260Y-170777256D01*
X143222743Y-170605739D01*
X143222736Y-170605733D01*
X143030293Y-170458067D01*
X143030292Y-170458066D01*
X143030289Y-170458064D01*
X142820212Y-170336776D01*
X142820205Y-170336773D01*
X142596104Y-170243947D01*
X142361785Y-170181161D01*
X142121289Y-170149500D01*
X142121288Y-170149500D01*
X141878712Y-170149500D01*
X141878711Y-170149500D01*
X141638214Y-170181161D01*
X141403895Y-170243947D01*
X141179794Y-170336773D01*
X141179785Y-170336777D01*
X140969706Y-170458067D01*
X140777263Y-170605733D01*
X140777256Y-170605739D01*
X140605739Y-170777256D01*
X140605733Y-170777263D01*
X140458067Y-170969706D01*
X140336777Y-171179785D01*
X140336773Y-171179794D01*
X140243947Y-171403895D01*
X140181161Y-171638214D01*
X140149500Y-171878711D01*
X105850500Y-171878711D01*
X105818838Y-171638211D01*
X105756054Y-171403900D01*
X105663224Y-171179788D01*
X105541936Y-170969711D01*
X105394265Y-170777262D01*
X105394260Y-170777256D01*
X105222743Y-170605739D01*
X105222736Y-170605733D01*
X105030293Y-170458067D01*
X105030292Y-170458066D01*
X105030289Y-170458064D01*
X104820212Y-170336776D01*
X104820205Y-170336773D01*
X104596104Y-170243947D01*
X104361785Y-170181161D01*
X104121289Y-170149500D01*
X104121288Y-170149500D01*
X103878712Y-170149500D01*
X103878711Y-170149500D01*
X103638214Y-170181161D01*
X103403895Y-170243947D01*
X103179794Y-170336773D01*
X103179785Y-170336777D01*
X102969706Y-170458067D01*
X102777263Y-170605733D01*
X102777256Y-170605739D01*
X102605739Y-170777256D01*
X102605733Y-170777263D01*
X102458067Y-170969706D01*
X102336777Y-171179785D01*
X102336773Y-171179794D01*
X102243947Y-171403895D01*
X102181161Y-171638214D01*
X102149500Y-171878711D01*
X100500500Y-171878711D01*
X100500500Y-132156473D01*
X102151700Y-132156473D01*
X102151700Y-139860126D01*
X102178993Y-139961989D01*
X102205356Y-140007650D01*
X102231720Y-140053313D01*
X102231722Y-140053315D01*
X103387995Y-141209588D01*
X103421480Y-141270911D01*
X103416496Y-141340603D01*
X103387996Y-141384950D01*
X103272440Y-141500506D01*
X103166006Y-141647002D01*
X103083788Y-141808360D01*
X103083787Y-141808363D01*
X103027829Y-141980589D01*
X102999500Y-142159448D01*
X102999500Y-142340551D01*
X103027829Y-142519410D01*
X103083787Y-142691636D01*
X103083788Y-142691639D01*
X103166006Y-142852997D01*
X103272441Y-142999494D01*
X103272445Y-142999499D01*
X103400500Y-143127554D01*
X103400505Y-143127558D01*
X103487228Y-143190565D01*
X103547006Y-143233996D01*
X103652484Y-143287740D01*
X103708360Y-143316211D01*
X103708363Y-143316212D01*
X103835649Y-143357569D01*
X103893324Y-143397006D01*
X103920523Y-143461364D01*
X103908609Y-143530211D01*
X103861365Y-143581687D01*
X103797331Y-143599500D01*
X103506898Y-143599500D01*
X103467853Y-143604188D01*
X103418438Y-143610122D01*
X103277656Y-143665639D01*
X103157077Y-143757077D01*
X103065639Y-143877656D01*
X103010122Y-144018438D01*
X103004188Y-144067853D01*
X102999500Y-144106898D01*
X102999500Y-145393102D01*
X103003871Y-145429500D01*
X103010122Y-145481561D01*
X103065639Y-145622343D01*
X103157077Y-145742922D01*
X103277656Y-145834360D01*
X103277657Y-145834360D01*
X103277658Y-145834361D01*
X103418436Y-145889877D01*
X103506898Y-145900500D01*
X104807745Y-145900500D01*
X104874784Y-145920185D01*
X104895426Y-145936819D01*
X105859087Y-146900480D01*
X105950412Y-146953207D01*
X106052273Y-146980500D01*
X110406840Y-146980500D01*
X110473879Y-147000185D01*
X110517324Y-147048205D01*
X110569653Y-147150905D01*
X110582550Y-147219574D01*
X110556274Y-147284314D01*
X110499168Y-147324572D01*
X110459169Y-147331200D01*
X109399473Y-147331200D01*
X109297613Y-147358493D01*
X109297610Y-147358494D01*
X109206285Y-147411221D01*
X103329422Y-153288084D01*
X103329418Y-153288090D01*
X103276692Y-153379412D01*
X103276693Y-153379413D01*
X103249400Y-153481273D01*
X103249400Y-159702626D01*
X103276693Y-159804489D01*
X103303056Y-159850150D01*
X103329420Y-159895813D01*
X103329421Y-159895814D01*
X103329422Y-159895815D01*
X108434006Y-165000398D01*
X108467491Y-165061721D01*
X108464256Y-165126396D01*
X108426598Y-165242297D01*
X108426597Y-165242301D01*
X108399659Y-165412384D01*
X108399500Y-165413389D01*
X108399500Y-165586611D01*
X108426598Y-165757701D01*
X108480127Y-165922445D01*
X108558768Y-166076788D01*
X108660586Y-166216928D01*
X108783072Y-166339414D01*
X108923212Y-166441232D01*
X109077555Y-166519873D01*
X109242299Y-166573402D01*
X109413389Y-166600500D01*
X109413390Y-166600500D01*
X109586610Y-166600500D01*
X109586611Y-166600500D01*
X109757701Y-166573402D01*
X109873602Y-166535742D01*
X109943442Y-166533748D01*
X109999600Y-166565993D01*
X114154519Y-170720912D01*
X114154520Y-170720913D01*
X114229087Y-170795480D01*
X114320413Y-170848207D01*
X114422273Y-170875500D01*
X114527726Y-170875500D01*
X119225500Y-170875500D01*
X119292539Y-170895185D01*
X119338294Y-170947989D01*
X119349500Y-170999500D01*
X119349500Y-171243102D01*
X119355126Y-171289954D01*
X119360122Y-171331561D01*
X119360122Y-171331563D01*
X119360123Y-171331564D01*
X119377722Y-171376192D01*
X119415639Y-171472343D01*
X119507077Y-171592922D01*
X119627656Y-171684360D01*
X119627657Y-171684360D01*
X119627658Y-171684361D01*
X119768436Y-171739877D01*
X119856898Y-171750500D01*
X119856903Y-171750500D01*
X121143097Y-171750500D01*
X121143102Y-171750500D01*
X121231564Y-171739877D01*
X121372342Y-171684361D01*
X121492922Y-171592922D01*
X121584361Y-171472342D01*
X121639877Y-171331564D01*
X121650500Y-171243102D01*
X121650500Y-170952669D01*
X121670185Y-170885630D01*
X121722989Y-170839875D01*
X121792147Y-170829931D01*
X121855703Y-170858956D01*
X121892431Y-170914351D01*
X121933787Y-171041636D01*
X121933788Y-171041639D01*
X121989664Y-171151300D01*
X122004178Y-171179785D01*
X122016006Y-171202997D01*
X122122441Y-171349494D01*
X122122445Y-171349499D01*
X122250500Y-171477554D01*
X122250505Y-171477558D01*
X122378287Y-171570396D01*
X122397006Y-171583996D01*
X122502484Y-171637740D01*
X122558360Y-171666211D01*
X122558363Y-171666212D01*
X122644476Y-171694191D01*
X122730591Y-171722171D01*
X122813429Y-171735291D01*
X122909449Y-171750500D01*
X122909454Y-171750500D01*
X123090551Y-171750500D01*
X123177259Y-171736765D01*
X123269409Y-171722171D01*
X123441639Y-171666211D01*
X123602994Y-171583996D01*
X123749501Y-171477553D01*
X123877553Y-171349501D01*
X123983996Y-171202994D01*
X124066211Y-171041639D01*
X124079903Y-170999500D01*
X124092353Y-170961182D01*
X124131790Y-170903507D01*
X124196149Y-170876308D01*
X124199929Y-170876091D01*
X124204418Y-170875500D01*
X124204427Y-170875500D01*
X124306287Y-170848207D01*
X124397613Y-170795480D01*
X124472180Y-170720913D01*
X124524907Y-170629587D01*
X124552200Y-170527727D01*
X124552200Y-165875553D01*
X124560844Y-165846112D01*
X124564321Y-165830131D01*
X130849500Y-165830131D01*
X130849500Y-167619856D01*
X130849502Y-167619882D01*
X130852413Y-167644987D01*
X130852415Y-167644991D01*
X130897793Y-167747764D01*
X130897794Y-167747765D01*
X130977235Y-167827206D01*
X131080009Y-167872585D01*
X131105135Y-167875500D01*
X132894864Y-167875499D01*
X132894879Y-167875497D01*
X132894882Y-167875497D01*
X132919987Y-167872586D01*
X132919988Y-167872585D01*
X132919991Y-167872585D01*
X133022765Y-167827206D01*
X133102206Y-167747765D01*
X133147585Y-167644991D01*
X133150500Y-167619865D01*
X133150499Y-165830136D01*
X133149810Y-165824192D01*
X133147586Y-165805012D01*
X133147585Y-165805010D01*
X133147585Y-165805009D01*
X133102206Y-165702235D01*
X133022765Y-165622794D01*
X132983763Y-165605573D01*
X132919992Y-165577415D01*
X132894865Y-165574500D01*
X131105143Y-165574500D01*
X131105117Y-165574502D01*
X131080012Y-165577413D01*
X131080008Y-165577415D01*
X130977235Y-165622793D01*
X130897794Y-165702234D01*
X130852415Y-165805006D01*
X130852415Y-165805008D01*
X130849500Y-165830131D01*
X124564321Y-165830131D01*
X124567368Y-165816126D01*
X124571122Y-165811110D01*
X124571885Y-165808514D01*
X124588514Y-165787877D01*
X129310400Y-161065990D01*
X129371721Y-161032507D01*
X129436393Y-161035741D01*
X129552299Y-161073402D01*
X129723389Y-161100500D01*
X129723390Y-161100500D01*
X129896610Y-161100500D01*
X129896611Y-161100500D01*
X130067701Y-161073402D01*
X130232445Y-161019873D01*
X130386788Y-160941232D01*
X130526928Y-160839414D01*
X130649414Y-160716928D01*
X130751232Y-160576788D01*
X130829873Y-160422445D01*
X130883402Y-160257701D01*
X130910500Y-160086611D01*
X130910500Y-159913389D01*
X130883402Y-159742299D01*
X130829873Y-159577555D01*
X130751232Y-159423212D01*
X130649414Y-159283072D01*
X130526928Y-159160586D01*
X130386788Y-159058768D01*
X130232445Y-158980127D01*
X130067701Y-158926598D01*
X130067699Y-158926597D01*
X130067698Y-158926597D01*
X129936271Y-158905781D01*
X129896611Y-158899500D01*
X129723389Y-158899500D01*
X129683728Y-158905781D01*
X129552302Y-158926597D01*
X129387552Y-158980128D01*
X129233211Y-159058768D01*
X129153256Y-159116859D01*
X129093072Y-159160586D01*
X129093070Y-159160588D01*
X129093069Y-159160588D01*
X128970588Y-159283069D01*
X128970588Y-159283070D01*
X128970586Y-159283072D01*
X128926859Y-159343256D01*
X128868768Y-159423211D01*
X128790128Y-159577552D01*
X128736597Y-159742302D01*
X128709500Y-159913389D01*
X128709500Y-160086610D01*
X128736597Y-160257698D01*
X128774256Y-160373601D01*
X128776251Y-160443443D01*
X128744006Y-160499600D01*
X123831222Y-165412384D01*
X123831218Y-165412390D01*
X123778492Y-165503712D01*
X123778493Y-165503713D01*
X123751200Y-165605573D01*
X123751200Y-169239168D01*
X123731515Y-169306207D01*
X123678711Y-169351962D01*
X123609553Y-169361906D01*
X123570905Y-169349653D01*
X123441639Y-169283789D01*
X123441636Y-169283787D01*
X123269410Y-169227829D01*
X123090551Y-169199500D01*
X123090546Y-169199500D01*
X122909454Y-169199500D01*
X122909449Y-169199500D01*
X122730589Y-169227829D01*
X122558363Y-169283787D01*
X122558360Y-169283788D01*
X122397002Y-169366006D01*
X122250505Y-169472441D01*
X122250500Y-169472445D01*
X122122445Y-169600500D01*
X122122441Y-169600505D01*
X122016006Y-169747002D01*
X121933788Y-169908360D01*
X121933787Y-169908363D01*
X121892431Y-170035648D01*
X121852994Y-170093323D01*
X121788635Y-170120522D01*
X121719789Y-170108608D01*
X121668313Y-170061364D01*
X121650500Y-169997330D01*
X121650500Y-169706903D01*
X121650500Y-169706898D01*
X121639877Y-169618436D01*
X121584361Y-169477658D01*
X121584360Y-169477657D01*
X121584360Y-169477656D01*
X121492922Y-169357077D01*
X121372343Y-169265639D01*
X121231561Y-169210122D01*
X121185926Y-169204642D01*
X121143102Y-169199500D01*
X119856898Y-169199500D01*
X119817853Y-169204188D01*
X119768438Y-169210122D01*
X119627656Y-169265639D01*
X119507077Y-169357077D01*
X119415639Y-169477656D01*
X119360122Y-169618438D01*
X119354188Y-169667853D01*
X119349500Y-169706898D01*
X119349500Y-169706903D01*
X119349500Y-169950500D01*
X119329815Y-170017539D01*
X119277011Y-170063294D01*
X119225500Y-170074500D01*
X114692255Y-170074500D01*
X114625216Y-170054815D01*
X114604574Y-170038181D01*
X110565993Y-165999600D01*
X110532508Y-165938277D01*
X110535742Y-165873603D01*
X110573402Y-165757701D01*
X110600500Y-165586611D01*
X110600500Y-165413389D01*
X110573402Y-165242299D01*
X110519873Y-165077555D01*
X110441232Y-164923212D01*
X110339414Y-164783072D01*
X110216928Y-164660586D01*
X110076788Y-164558768D01*
X109922445Y-164480127D01*
X109757701Y-164426598D01*
X109757699Y-164426597D01*
X109757698Y-164426597D01*
X109626271Y-164405781D01*
X109586611Y-164399500D01*
X109413389Y-164399500D01*
X109381192Y-164404599D01*
X109242301Y-164426597D01*
X109242297Y-164426598D01*
X109126396Y-164464256D01*
X109056555Y-164466251D01*
X109000398Y-164434006D01*
X104562591Y-159996198D01*
X104479782Y-159913389D01*
X121089500Y-159913389D01*
X121089500Y-160086610D01*
X121116597Y-160257697D01*
X121116597Y-160257699D01*
X121116598Y-160257701D01*
X121170127Y-160422445D01*
X121248768Y-160576788D01*
X121350586Y-160716928D01*
X121473072Y-160839414D01*
X121613212Y-160941232D01*
X121767555Y-161019873D01*
X121932299Y-161073402D01*
X122103389Y-161100500D01*
X122103390Y-161100500D01*
X122276610Y-161100500D01*
X122276611Y-161100500D01*
X122447701Y-161073402D01*
X122612445Y-161019873D01*
X122766788Y-160941232D01*
X122906928Y-160839414D01*
X123029414Y-160716928D01*
X123131232Y-160576788D01*
X123209873Y-160422445D01*
X123263402Y-160257701D01*
X123290500Y-160086611D01*
X123290500Y-159913389D01*
X123263402Y-159742299D01*
X123209873Y-159577555D01*
X123131232Y-159423212D01*
X123029414Y-159283072D01*
X122906928Y-159160586D01*
X122766788Y-159058768D01*
X122612445Y-158980127D01*
X122447701Y-158926598D01*
X122447699Y-158926597D01*
X122447698Y-158926597D01*
X122316271Y-158905781D01*
X122276611Y-158899500D01*
X122103389Y-158899500D01*
X122063728Y-158905781D01*
X121932302Y-158926597D01*
X121767552Y-158980128D01*
X121613211Y-159058768D01*
X121533256Y-159116859D01*
X121473072Y-159160586D01*
X121473070Y-159160588D01*
X121473069Y-159160588D01*
X121350588Y-159283069D01*
X121350588Y-159283070D01*
X121350586Y-159283072D01*
X121306859Y-159343256D01*
X121248768Y-159423211D01*
X121170128Y-159577552D01*
X121116597Y-159742302D01*
X121089500Y-159913389D01*
X104479782Y-159913389D01*
X104086719Y-159520326D01*
X104053234Y-159459003D01*
X104050400Y-159432645D01*
X104050400Y-155055529D01*
X104070085Y-154988490D01*
X104122889Y-154942735D01*
X104192047Y-154932791D01*
X104230691Y-154945042D01*
X104377555Y-155019873D01*
X104542299Y-155073402D01*
X104713389Y-155100500D01*
X104713390Y-155100500D01*
X104886610Y-155100500D01*
X104886611Y-155100500D01*
X105057701Y-155073402D01*
X105222445Y-155019873D01*
X105376788Y-154941232D01*
X105516928Y-154839414D01*
X105562423Y-154793919D01*
X105623746Y-154760434D01*
X105650104Y-154757600D01*
X132369225Y-154757600D01*
X132369227Y-154757600D01*
X132471088Y-154730307D01*
X132562413Y-154677580D01*
X135586619Y-151653372D01*
X135647942Y-151619888D01*
X135717634Y-151624872D01*
X135761981Y-151653373D01*
X139698479Y-155589871D01*
X139698489Y-155589882D01*
X139777388Y-155668781D01*
X139823050Y-155695143D01*
X139823052Y-155695145D01*
X139857721Y-155715161D01*
X139868712Y-155721507D01*
X139970573Y-155748800D01*
X140039169Y-155748800D01*
X140106208Y-155768485D01*
X140151963Y-155821289D01*
X140161907Y-155890447D01*
X140149654Y-155929095D01*
X140083788Y-156058360D01*
X140083787Y-156058363D01*
X140027829Y-156230589D01*
X139999500Y-156409448D01*
X139999500Y-156590551D01*
X140027829Y-156769410D01*
X140083787Y-156941636D01*
X140083788Y-156941639D01*
X140166006Y-157102997D01*
X140272441Y-157249494D01*
X140272445Y-157249499D01*
X140400500Y-157377554D01*
X140400505Y-157377558D01*
X140528287Y-157470396D01*
X140547006Y-157483996D01*
X140652484Y-157537740D01*
X140708360Y-157566211D01*
X140708363Y-157566212D01*
X140794476Y-157594191D01*
X140880591Y-157622171D01*
X140963429Y-157635291D01*
X141059449Y-157650500D01*
X141059454Y-157650500D01*
X141490551Y-157650500D01*
X141577259Y-157636765D01*
X141669409Y-157622171D01*
X141841639Y-157566211D01*
X142002994Y-157483996D01*
X142149501Y-157377553D01*
X142277553Y-157249501D01*
X142383996Y-157102994D01*
X142466211Y-156941639D01*
X142522171Y-156769409D01*
X142536765Y-156677259D01*
X142550500Y-156590551D01*
X142550500Y-156409448D01*
X142534019Y-156305397D01*
X142522171Y-156230591D01*
X142466211Y-156058361D01*
X142466211Y-156058360D01*
X142400346Y-155929095D01*
X142383996Y-155897006D01*
X142290621Y-155768485D01*
X142277558Y-155750505D01*
X142277554Y-155750500D01*
X142149499Y-155622445D01*
X142149494Y-155622441D01*
X142002997Y-155516006D01*
X142002996Y-155516005D01*
X142002994Y-155516004D01*
X141951300Y-155489664D01*
X141841639Y-155433788D01*
X141841636Y-155433787D01*
X141761182Y-155407647D01*
X141703507Y-155368210D01*
X141676308Y-155303851D01*
X141676091Y-155300070D01*
X141675500Y-155295578D01*
X141675500Y-155295573D01*
X141662726Y-155247899D01*
X141664388Y-155178052D01*
X141703549Y-155120189D01*
X141744183Y-155097876D01*
X141841633Y-155066213D01*
X141841639Y-155066211D01*
X141862603Y-155055529D01*
X142002994Y-154983996D01*
X142149501Y-154877553D01*
X142277553Y-154749501D01*
X142383996Y-154602994D01*
X142466211Y-154441639D01*
X142522171Y-154269409D01*
X142536765Y-154177259D01*
X142550500Y-154090551D01*
X142550500Y-153909448D01*
X142534019Y-153805397D01*
X142522171Y-153730591D01*
X142480664Y-153602844D01*
X142466212Y-153558363D01*
X142466211Y-153558360D01*
X142426932Y-153481273D01*
X142383996Y-153397006D01*
X142370396Y-153378287D01*
X142277558Y-153250505D01*
X142277554Y-153250500D01*
X142149499Y-153122445D01*
X142149494Y-153122441D01*
X142002997Y-153016006D01*
X142002996Y-153016005D01*
X142002994Y-153016004D01*
X141932582Y-152980127D01*
X141841639Y-152933788D01*
X141841636Y-152933787D01*
X141669410Y-152877829D01*
X141635594Y-152872473D01*
X141572459Y-152842544D01*
X141535528Y-152783232D01*
X141536526Y-152713370D01*
X141575136Y-152655137D01*
X141635594Y-152627527D01*
X141643388Y-152626292D01*
X141669409Y-152622171D01*
X141841639Y-152566211D01*
X142002994Y-152483996D01*
X142149501Y-152377553D01*
X142277553Y-152249501D01*
X142383996Y-152102994D01*
X142466211Y-151941639D01*
X142522171Y-151769409D01*
X142540549Y-151653373D01*
X142550500Y-151590551D01*
X142550500Y-151409448D01*
X142534019Y-151305397D01*
X142522171Y-151230591D01*
X142466211Y-151058361D01*
X142466211Y-151058360D01*
X142422687Y-150972941D01*
X142383996Y-150897006D01*
X142370396Y-150878287D01*
X142277558Y-150750505D01*
X142277554Y-150750500D01*
X142149499Y-150622445D01*
X142149494Y-150622441D01*
X142002997Y-150516006D01*
X142002996Y-150516005D01*
X142002994Y-150516004D01*
X141951300Y-150489664D01*
X141841639Y-150433788D01*
X141841636Y-150433787D01*
X141761182Y-150407647D01*
X141703507Y-150368210D01*
X141676308Y-150303851D01*
X141676091Y-150300070D01*
X141675500Y-150295578D01*
X141675500Y-150295573D01*
X141662726Y-150247899D01*
X141664388Y-150178052D01*
X141703549Y-150120189D01*
X141744183Y-150097876D01*
X141841633Y-150066213D01*
X141841639Y-150066211D01*
X142002994Y-149983996D01*
X142149501Y-149877553D01*
X142277553Y-149749501D01*
X142383996Y-149602994D01*
X142466211Y-149441639D01*
X142522171Y-149269409D01*
X142536765Y-149177259D01*
X142550500Y-149090551D01*
X142550500Y-148909448D01*
X142527726Y-148765666D01*
X142522171Y-148730591D01*
X142466211Y-148558361D01*
X142466211Y-148558360D01*
X142437740Y-148502484D01*
X142383996Y-148397006D01*
X142364738Y-148370499D01*
X142277558Y-148250505D01*
X142277554Y-148250500D01*
X142149499Y-148122445D01*
X142149494Y-148122441D01*
X142002997Y-148016006D01*
X142002996Y-148016005D01*
X142002994Y-148016004D01*
X141951300Y-147989664D01*
X141841639Y-147933788D01*
X141841636Y-147933787D01*
X141761182Y-147907647D01*
X141703507Y-147868210D01*
X141676308Y-147803851D01*
X141676091Y-147800070D01*
X141675500Y-147795580D01*
X141675500Y-147795573D01*
X141648207Y-147693712D01*
X141595480Y-147602387D01*
X141109419Y-147116326D01*
X141075934Y-147055003D01*
X141073100Y-147028645D01*
X141073100Y-143877095D01*
X141092785Y-143810056D01*
X141145589Y-143764301D01*
X141214747Y-143754357D01*
X141253390Y-143766608D01*
X141377555Y-143829873D01*
X141542299Y-143883402D01*
X141713389Y-143910500D01*
X141713390Y-143910500D01*
X141886610Y-143910500D01*
X141886611Y-143910500D01*
X142057701Y-143883402D01*
X142222445Y-143829873D01*
X142376788Y-143751232D01*
X142516928Y-143649414D01*
X142639414Y-143526928D01*
X142741232Y-143386788D01*
X142819873Y-143232445D01*
X142873402Y-143067701D01*
X142900500Y-142896611D01*
X142900500Y-142723389D01*
X142873402Y-142552299D01*
X142819873Y-142387555D01*
X142741232Y-142233212D01*
X142639414Y-142093072D01*
X142516928Y-141970586D01*
X142376788Y-141868768D01*
X142320343Y-141840008D01*
X142222447Y-141790128D01*
X142222446Y-141790127D01*
X142222445Y-141790127D01*
X142057701Y-141736598D01*
X142057699Y-141736597D01*
X142057698Y-141736597D01*
X141926271Y-141715781D01*
X141886611Y-141709500D01*
X141713389Y-141709500D01*
X141673728Y-141715781D01*
X141542302Y-141736597D01*
X141377549Y-141790129D01*
X141253394Y-141853389D01*
X141184725Y-141866285D01*
X141119985Y-141840008D01*
X141079728Y-141782902D01*
X141073100Y-141742904D01*
X141073100Y-140704875D01*
X141073100Y-140704873D01*
X141071205Y-140697800D01*
X141045807Y-140603012D01*
X140993080Y-140511687D01*
X135584782Y-135103389D01*
X140699500Y-135103389D01*
X140699500Y-135276610D01*
X140725542Y-135441039D01*
X140726598Y-135447701D01*
X140780127Y-135612445D01*
X140858768Y-135766788D01*
X140960586Y-135906928D01*
X141083072Y-136029414D01*
X141223212Y-136131232D01*
X141377555Y-136209873D01*
X141542299Y-136263402D01*
X141713389Y-136290500D01*
X141713390Y-136290500D01*
X141886610Y-136290500D01*
X141886611Y-136290500D01*
X142057701Y-136263402D01*
X142222445Y-136209873D01*
X142376788Y-136131232D01*
X142516928Y-136029414D01*
X142639414Y-135906928D01*
X142741232Y-135766788D01*
X142819873Y-135612445D01*
X142873402Y-135447701D01*
X142900500Y-135276611D01*
X142900500Y-135103389D01*
X142873402Y-134932299D01*
X142819873Y-134767555D01*
X142741232Y-134613212D01*
X142639414Y-134473072D01*
X142516928Y-134350586D01*
X142376788Y-134248768D01*
X142222445Y-134170127D01*
X142057701Y-134116598D01*
X142057699Y-134116597D01*
X142057698Y-134116597D01*
X141926271Y-134095781D01*
X141886611Y-134089500D01*
X141713389Y-134089500D01*
X141673728Y-134095781D01*
X141542302Y-134116597D01*
X141377552Y-134170128D01*
X141223211Y-134248768D01*
X141161944Y-134293282D01*
X141083072Y-134350586D01*
X141083070Y-134350588D01*
X141083069Y-134350588D01*
X140960588Y-134473069D01*
X140960588Y-134473070D01*
X140960586Y-134473072D01*
X140953375Y-134482997D01*
X140858768Y-134613211D01*
X140780128Y-134767552D01*
X140726597Y-134932302D01*
X140699500Y-135103389D01*
X135584782Y-135103389D01*
X134900674Y-134419281D01*
X134867189Y-134357958D01*
X134870423Y-134293284D01*
X134917171Y-134149409D01*
X134926660Y-134089500D01*
X134945500Y-133970551D01*
X134945500Y-133789448D01*
X134919901Y-133627829D01*
X134917171Y-133610591D01*
X134861211Y-133438361D01*
X134861211Y-133438360D01*
X134778996Y-133277006D01*
X134728414Y-133207385D01*
X134704935Y-133141578D01*
X134720761Y-133073524D01*
X134770867Y-133024830D01*
X134828733Y-133010500D01*
X141242725Y-133010500D01*
X141242727Y-133010500D01*
X141273053Y-133002374D01*
X141342902Y-133004035D01*
X141361443Y-133011664D01*
X141377550Y-133019871D01*
X141377552Y-133019871D01*
X141377555Y-133019873D01*
X141542299Y-133073402D01*
X141713389Y-133100500D01*
X141713390Y-133100500D01*
X141886610Y-133100500D01*
X141886611Y-133100500D01*
X142057701Y-133073402D01*
X142222445Y-133019873D01*
X142376788Y-132941232D01*
X142516928Y-132839414D01*
X142639414Y-132716928D01*
X142741232Y-132576788D01*
X142819873Y-132422445D01*
X142873402Y-132257701D01*
X142900500Y-132086611D01*
X142900500Y-131913389D01*
X142873402Y-131742299D01*
X142819873Y-131577555D01*
X142741232Y-131423212D01*
X142639414Y-131283072D01*
X142516928Y-131160586D01*
X142376788Y-131058768D01*
X142222445Y-130980127D01*
X142057701Y-130926598D01*
X142057699Y-130926597D01*
X142057698Y-130926597D01*
X141926271Y-130905781D01*
X141886611Y-130899500D01*
X141713389Y-130899500D01*
X141673728Y-130905781D01*
X141542302Y-130926597D01*
X141377552Y-130980128D01*
X141223211Y-131058768D01*
X141143256Y-131116859D01*
X141083072Y-131160586D01*
X141083070Y-131160588D01*
X141083069Y-131160588D01*
X140960588Y-131283069D01*
X140960588Y-131283070D01*
X140960586Y-131283072D01*
X140916859Y-131343256D01*
X140858768Y-131423211D01*
X140780128Y-131577552D01*
X140726597Y-131742302D01*
X140699500Y-131913389D01*
X140699500Y-132085500D01*
X140679815Y-132152539D01*
X140627011Y-132198294D01*
X140575500Y-132209500D01*
X134828733Y-132209500D01*
X134761694Y-132189815D01*
X134715939Y-132137011D01*
X134705995Y-132067853D01*
X134728414Y-132012615D01*
X134764252Y-131963287D01*
X134778996Y-131942994D01*
X134861211Y-131781639D01*
X134917171Y-131609409D01*
X134934421Y-131500499D01*
X134945500Y-131430551D01*
X134945500Y-131249448D01*
X134929019Y-131145397D01*
X134917171Y-131070591D01*
X134870386Y-130926598D01*
X134861212Y-130898363D01*
X134861211Y-130898360D01*
X134832740Y-130842484D01*
X134778996Y-130737006D01*
X134765396Y-130718287D01*
X134672558Y-130590505D01*
X134672554Y-130590500D01*
X134544499Y-130462445D01*
X134544494Y-130462441D01*
X134397997Y-130356006D01*
X134397996Y-130356005D01*
X134397994Y-130356004D01*
X134346300Y-130329664D01*
X134236639Y-130273788D01*
X134236636Y-130273787D01*
X134064410Y-130217829D01*
X133904321Y-130192473D01*
X133841186Y-130162544D01*
X133804255Y-130103232D01*
X133805253Y-130033370D01*
X133843863Y-129975137D01*
X133904321Y-129947527D01*
X133974425Y-129936422D01*
X134064409Y-129922171D01*
X134236639Y-129866211D01*
X134397994Y-129783996D01*
X134544501Y-129677553D01*
X134672553Y-129549501D01*
X134778996Y-129402994D01*
X134861211Y-129241639D01*
X134917171Y-129069409D01*
X134931765Y-128977259D01*
X134945500Y-128890551D01*
X134945500Y-128709448D01*
X134928085Y-128599500D01*
X134917171Y-128530591D01*
X134861211Y-128358361D01*
X134861211Y-128358360D01*
X134832740Y-128302484D01*
X134778996Y-128197006D01*
X134765396Y-128178287D01*
X134672558Y-128050505D01*
X134672554Y-128050500D01*
X134544499Y-127922445D01*
X134544494Y-127922441D01*
X134397997Y-127816006D01*
X134397996Y-127816005D01*
X134397994Y-127816004D01*
X134346300Y-127789664D01*
X134236639Y-127733788D01*
X134236636Y-127733787D01*
X134064410Y-127677829D01*
X133904321Y-127652473D01*
X133841186Y-127622544D01*
X133804255Y-127563232D01*
X133805253Y-127493370D01*
X133843863Y-127435137D01*
X133904321Y-127407527D01*
X133974425Y-127396422D01*
X134064409Y-127382171D01*
X134236639Y-127326211D01*
X134397994Y-127243996D01*
X134544501Y-127137553D01*
X134672553Y-127009501D01*
X134778996Y-126862994D01*
X134847675Y-126728205D01*
X134895650Y-126677409D01*
X134958160Y-126660500D01*
X135397925Y-126660500D01*
X135397927Y-126660500D01*
X135499788Y-126633207D01*
X135591113Y-126580480D01*
X138598074Y-123573519D01*
X138659397Y-123540034D01*
X138685755Y-123537200D01*
X138747555Y-123537200D01*
X138747557Y-123537200D01*
X138900284Y-123496277D01*
X139037216Y-123417220D01*
X139149020Y-123305416D01*
X139228077Y-123168484D01*
X139269000Y-123015757D01*
X139269000Y-122857643D01*
X139228077Y-122704916D01*
X139198558Y-122653787D01*
X139149024Y-122567990D01*
X139149018Y-122567982D01*
X139037217Y-122456181D01*
X139037209Y-122456175D01*
X138900290Y-122377126D01*
X138900286Y-122377124D01*
X138900284Y-122377123D01*
X138747557Y-122336200D01*
X138589443Y-122336200D01*
X138436716Y-122377123D01*
X138436709Y-122377126D01*
X138299790Y-122456175D01*
X138299782Y-122456181D01*
X138187981Y-122567982D01*
X138187975Y-122567990D01*
X138108926Y-122704909D01*
X138108923Y-122704916D01*
X138068000Y-122857643D01*
X138068000Y-122919445D01*
X138048315Y-122986484D01*
X138031681Y-123007126D01*
X135215626Y-125823181D01*
X135154303Y-125856666D01*
X135127945Y-125859500D01*
X134958160Y-125859500D01*
X134891121Y-125839815D01*
X134847675Y-125791795D01*
X134839009Y-125774787D01*
X134778996Y-125657006D01*
X134765396Y-125638287D01*
X134672558Y-125510505D01*
X134672554Y-125510500D01*
X134544499Y-125382445D01*
X134544494Y-125382441D01*
X134397997Y-125276006D01*
X134397996Y-125276005D01*
X134397994Y-125276004D01*
X134346300Y-125249664D01*
X134236639Y-125193788D01*
X134236636Y-125193787D01*
X134064410Y-125137829D01*
X133904321Y-125112473D01*
X133841186Y-125082544D01*
X133804255Y-125023232D01*
X133805253Y-124953370D01*
X133843863Y-124895137D01*
X133904321Y-124867527D01*
X133974425Y-124856422D01*
X134064409Y-124842171D01*
X134236639Y-124786211D01*
X134397994Y-124703996D01*
X134544501Y-124597553D01*
X134672553Y-124469501D01*
X134778996Y-124322994D01*
X134861211Y-124161639D01*
X134917171Y-123989409D01*
X134931765Y-123897259D01*
X134945500Y-123810551D01*
X134945500Y-123629448D01*
X134924407Y-123496277D01*
X134917171Y-123450591D01*
X134870002Y-123305416D01*
X134861212Y-123278363D01*
X134861211Y-123278360D01*
X134832740Y-123222484D01*
X134778996Y-123117006D01*
X134705434Y-123015756D01*
X134672558Y-122970505D01*
X134672554Y-122970500D01*
X134544499Y-122842445D01*
X134544494Y-122842441D01*
X134397997Y-122736006D01*
X134397996Y-122736005D01*
X134397994Y-122736004D01*
X134336967Y-122704909D01*
X134236639Y-122653788D01*
X134236636Y-122653787D01*
X134064410Y-122597829D01*
X133904321Y-122572473D01*
X133841186Y-122542544D01*
X133804255Y-122483232D01*
X133805253Y-122413370D01*
X133843863Y-122355137D01*
X133904321Y-122327527D01*
X133974425Y-122316422D01*
X134064409Y-122302171D01*
X134236639Y-122246211D01*
X134397994Y-122163996D01*
X134544501Y-122057553D01*
X134672553Y-121929501D01*
X134778996Y-121782994D01*
X134861211Y-121621639D01*
X134917171Y-121449409D01*
X134931765Y-121357259D01*
X134945500Y-121270551D01*
X134945500Y-121089448D01*
X134929019Y-120985397D01*
X134917171Y-120910591D01*
X134861211Y-120738361D01*
X134861211Y-120738360D01*
X134832740Y-120682484D01*
X134778996Y-120577006D01*
X134765396Y-120558287D01*
X134672558Y-120430505D01*
X134672554Y-120430500D01*
X134544499Y-120302445D01*
X134544494Y-120302441D01*
X134397997Y-120196006D01*
X134397996Y-120196005D01*
X134397994Y-120196004D01*
X134346300Y-120169664D01*
X134236639Y-120113788D01*
X134236636Y-120113787D01*
X134064410Y-120057829D01*
X133904321Y-120032473D01*
X133841186Y-120002544D01*
X133804255Y-119943232D01*
X133805253Y-119873370D01*
X133843863Y-119815137D01*
X133904321Y-119787527D01*
X133974425Y-119776422D01*
X134064409Y-119762171D01*
X134236639Y-119706211D01*
X134397994Y-119623996D01*
X134544501Y-119517553D01*
X134672553Y-119389501D01*
X134778996Y-119242994D01*
X134861211Y-119081639D01*
X134917171Y-118909409D01*
X134931765Y-118817259D01*
X134945500Y-118730551D01*
X134945500Y-118549448D01*
X134929019Y-118445397D01*
X134917171Y-118370591D01*
X134861211Y-118198361D01*
X134861211Y-118198360D01*
X134832740Y-118142484D01*
X134778996Y-118037006D01*
X134765396Y-118018287D01*
X134672558Y-117890505D01*
X134672554Y-117890500D01*
X134544499Y-117762445D01*
X134544494Y-117762441D01*
X134397997Y-117656006D01*
X134397996Y-117656005D01*
X134397994Y-117656004D01*
X134346300Y-117629664D01*
X134236639Y-117573788D01*
X134236636Y-117573787D01*
X134064410Y-117517829D01*
X133885551Y-117489500D01*
X133885546Y-117489500D01*
X133704454Y-117489500D01*
X133704449Y-117489500D01*
X133525589Y-117517829D01*
X133353363Y-117573787D01*
X133353360Y-117573788D01*
X133192002Y-117656006D01*
X133045505Y-117762441D01*
X133045500Y-117762445D01*
X132917445Y-117890500D01*
X132917441Y-117890505D01*
X132811006Y-118037002D01*
X132728788Y-118198360D01*
X132728787Y-118198363D01*
X132672829Y-118370589D01*
X132644500Y-118549448D01*
X132644500Y-118730551D01*
X132672829Y-118909410D01*
X132728787Y-119081636D01*
X132728788Y-119081639D01*
X132811006Y-119242997D01*
X132917441Y-119389494D01*
X132917445Y-119389499D01*
X133045500Y-119517554D01*
X133045505Y-119517558D01*
X133173287Y-119610396D01*
X133192006Y-119623996D01*
X133297484Y-119677740D01*
X133353360Y-119706211D01*
X133353363Y-119706212D01*
X133439476Y-119734191D01*
X133525591Y-119762171D01*
X133598639Y-119773740D01*
X133685678Y-119787527D01*
X133748813Y-119817456D01*
X133785744Y-119876768D01*
X133784746Y-119946631D01*
X133746136Y-120004863D01*
X133685678Y-120032473D01*
X133525589Y-120057829D01*
X133353363Y-120113787D01*
X133353360Y-120113788D01*
X133192002Y-120196006D01*
X133045505Y-120302441D01*
X133045500Y-120302445D01*
X132917445Y-120430500D01*
X132917441Y-120430505D01*
X132811006Y-120577002D01*
X132728788Y-120738360D01*
X132728787Y-120738363D01*
X132672829Y-120910589D01*
X132644500Y-121089448D01*
X132644500Y-121270551D01*
X132672829Y-121449410D01*
X132728787Y-121621636D01*
X132728788Y-121621639D01*
X132811006Y-121782997D01*
X132917441Y-121929494D01*
X132917445Y-121929499D01*
X133045500Y-122057554D01*
X133045505Y-122057558D01*
X133129094Y-122118288D01*
X133192006Y-122163996D01*
X133281532Y-122209612D01*
X133353360Y-122246211D01*
X133353363Y-122246212D01*
X133439476Y-122274191D01*
X133525591Y-122302171D01*
X133598639Y-122313740D01*
X133685678Y-122327527D01*
X133748813Y-122357456D01*
X133785744Y-122416768D01*
X133784746Y-122486631D01*
X133746136Y-122544863D01*
X133685678Y-122572473D01*
X133525589Y-122597829D01*
X133353363Y-122653787D01*
X133353360Y-122653788D01*
X133192002Y-122736006D01*
X133045505Y-122842441D01*
X133045500Y-122842445D01*
X132917445Y-122970500D01*
X132917441Y-122970505D01*
X132811006Y-123117002D01*
X132728788Y-123278360D01*
X132728787Y-123278363D01*
X132672829Y-123450589D01*
X132644500Y-123629448D01*
X132644500Y-123810551D01*
X132672829Y-123989410D01*
X132728787Y-124161636D01*
X132728788Y-124161639D01*
X132811006Y-124322997D01*
X132917441Y-124469494D01*
X132917445Y-124469499D01*
X133045500Y-124597554D01*
X133045505Y-124597558D01*
X133173287Y-124690396D01*
X133192006Y-124703996D01*
X133297484Y-124757740D01*
X133353360Y-124786211D01*
X133353363Y-124786212D01*
X133439476Y-124814191D01*
X133525591Y-124842171D01*
X133598639Y-124853740D01*
X133685678Y-124867527D01*
X133748813Y-124897456D01*
X133785744Y-124956768D01*
X133784746Y-125026631D01*
X133746136Y-125084863D01*
X133685678Y-125112473D01*
X133525589Y-125137829D01*
X133353363Y-125193787D01*
X133353360Y-125193788D01*
X133192002Y-125276006D01*
X133045505Y-125382441D01*
X133045500Y-125382445D01*
X132917445Y-125510500D01*
X132917441Y-125510505D01*
X132811006Y-125657002D01*
X132728788Y-125818360D01*
X132728787Y-125818363D01*
X132672829Y-125990589D01*
X132644500Y-126169448D01*
X132644500Y-126350551D01*
X132672829Y-126529410D01*
X132728787Y-126701636D01*
X132728788Y-126701639D01*
X132811006Y-126862997D01*
X132917441Y-127009494D01*
X132917445Y-127009499D01*
X133045500Y-127137554D01*
X133045505Y-127137558D01*
X133173287Y-127230396D01*
X133192006Y-127243996D01*
X133297484Y-127297740D01*
X133353360Y-127326211D01*
X133353363Y-127326212D01*
X133439476Y-127354191D01*
X133525591Y-127382171D01*
X133598639Y-127393740D01*
X133685678Y-127407527D01*
X133748813Y-127437456D01*
X133785744Y-127496768D01*
X133784746Y-127566631D01*
X133746136Y-127624863D01*
X133685678Y-127652473D01*
X133525589Y-127677829D01*
X133353363Y-127733787D01*
X133353360Y-127733788D01*
X133192002Y-127816006D01*
X133045505Y-127922441D01*
X133045500Y-127922445D01*
X132917445Y-128050500D01*
X132917441Y-128050505D01*
X132811006Y-128197002D01*
X132728788Y-128358360D01*
X132728787Y-128358363D01*
X132672829Y-128530589D01*
X132644500Y-128709448D01*
X132644500Y-128890551D01*
X132672829Y-129069410D01*
X132728787Y-129241636D01*
X132728788Y-129241639D01*
X132811006Y-129402997D01*
X132917441Y-129549494D01*
X132917445Y-129549499D01*
X133045500Y-129677554D01*
X133045505Y-129677558D01*
X133173287Y-129770396D01*
X133192006Y-129783996D01*
X133297484Y-129837740D01*
X133353360Y-129866211D01*
X133353363Y-129866212D01*
X133439476Y-129894191D01*
X133525591Y-129922171D01*
X133598639Y-129933740D01*
X133685678Y-129947527D01*
X133748813Y-129977456D01*
X133785744Y-130036768D01*
X133784746Y-130106631D01*
X133746136Y-130164863D01*
X133685678Y-130192473D01*
X133525589Y-130217829D01*
X133353363Y-130273787D01*
X133353360Y-130273788D01*
X133192002Y-130356006D01*
X133045505Y-130462441D01*
X133045500Y-130462445D01*
X132917445Y-130590500D01*
X132917441Y-130590505D01*
X132811006Y-130737002D01*
X132728788Y-130898360D01*
X132728787Y-130898363D01*
X132672829Y-131070589D01*
X132644500Y-131249448D01*
X132644500Y-131430551D01*
X132672829Y-131609410D01*
X132728787Y-131781636D01*
X132728788Y-131781639D01*
X132811003Y-131942993D01*
X132861586Y-132012615D01*
X132885065Y-132078422D01*
X132869239Y-132146476D01*
X132819133Y-132195170D01*
X132761267Y-132209500D01*
X127126373Y-132209500D01*
X127024510Y-132236793D01*
X126933187Y-132289520D01*
X126933184Y-132289522D01*
X112889192Y-146333514D01*
X112827869Y-146366999D01*
X112758177Y-146362015D01*
X112702244Y-146320143D01*
X112683580Y-146284150D01*
X112636213Y-146138366D01*
X112636211Y-146138360D01*
X112607740Y-146082484D01*
X112553996Y-145977006D01*
X112524799Y-145936819D01*
X112447558Y-145830505D01*
X112447554Y-145830500D01*
X112319499Y-145702445D01*
X112319492Y-145702439D01*
X112312338Y-145697241D01*
X112269674Y-145641910D01*
X112263698Y-145572296D01*
X112296306Y-145510502D01*
X112297473Y-145509318D01*
X121605803Y-136200987D01*
X121605808Y-136200984D01*
X121616011Y-136190780D01*
X121616013Y-136190780D01*
X121690580Y-136116213D01*
X121734108Y-136040821D01*
X121743307Y-136024888D01*
X121770600Y-135923027D01*
X121770600Y-135817573D01*
X121770600Y-126202154D01*
X121790285Y-126135115D01*
X121806914Y-126114478D01*
X133255719Y-114665672D01*
X133317040Y-114632189D01*
X133381716Y-114635424D01*
X133525591Y-114682171D01*
X133608429Y-114695291D01*
X133704449Y-114710500D01*
X133704454Y-114710500D01*
X133885551Y-114710500D01*
X133972259Y-114696765D01*
X134064409Y-114682171D01*
X134236639Y-114626211D01*
X134397994Y-114543996D01*
X134544501Y-114437553D01*
X134672553Y-114309501D01*
X134778996Y-114162994D01*
X134861211Y-114001639D01*
X134917171Y-113829409D01*
X134932822Y-113730591D01*
X134945500Y-113650551D01*
X134945500Y-113469448D01*
X134929019Y-113365397D01*
X134917171Y-113290591D01*
X134861211Y-113118361D01*
X134861211Y-113118360D01*
X134809057Y-113016004D01*
X134778996Y-112957006D01*
X134762127Y-112933788D01*
X134672558Y-112810505D01*
X134672554Y-112810500D01*
X134544499Y-112682445D01*
X134544494Y-112682441D01*
X134397997Y-112576006D01*
X134397996Y-112576005D01*
X134397994Y-112576004D01*
X134346300Y-112549664D01*
X134236639Y-112493788D01*
X134236636Y-112493787D01*
X134064410Y-112437829D01*
X133904321Y-112412473D01*
X133841186Y-112382544D01*
X133804255Y-112323232D01*
X133805253Y-112253370D01*
X133843863Y-112195137D01*
X133904321Y-112167527D01*
X133974425Y-112156422D01*
X134064409Y-112142171D01*
X134236639Y-112086211D01*
X134397994Y-112003996D01*
X134544501Y-111897553D01*
X134672553Y-111769501D01*
X134778996Y-111622994D01*
X134861211Y-111461639D01*
X134917171Y-111289409D01*
X134931765Y-111197259D01*
X134945500Y-111110551D01*
X134945500Y-111036254D01*
X134965185Y-110969215D01*
X135017989Y-110923460D01*
X135087147Y-110913516D01*
X135150703Y-110942541D01*
X135157167Y-110948560D01*
X137459107Y-113250499D01*
X139963955Y-115755347D01*
X139997440Y-115816670D01*
X139999177Y-115853173D01*
X139999487Y-115853192D01*
X139999500Y-115853192D01*
X139999721Y-115853206D01*
X139999500Y-115856896D01*
X139999500Y-115856898D01*
X139999500Y-117143102D01*
X140005126Y-117189954D01*
X140010122Y-117231561D01*
X140010122Y-117231563D01*
X140010123Y-117231564D01*
X140027306Y-117275137D01*
X140065639Y-117372343D01*
X140157077Y-117492922D01*
X140277656Y-117584360D01*
X140277657Y-117584360D01*
X140277658Y-117584361D01*
X140418436Y-117639877D01*
X140506898Y-117650500D01*
X140506903Y-117650500D01*
X142043097Y-117650500D01*
X142043102Y-117650500D01*
X142131564Y-117639877D01*
X142272342Y-117584361D01*
X142392922Y-117492922D01*
X142484361Y-117372342D01*
X142539877Y-117231564D01*
X142550500Y-117143102D01*
X142550500Y-115856898D01*
X142539877Y-115768436D01*
X142484361Y-115627658D01*
X142484360Y-115627657D01*
X142484360Y-115627656D01*
X142392922Y-115507077D01*
X142272343Y-115415639D01*
X142131561Y-115360122D01*
X142085926Y-115354642D01*
X142043102Y-115349500D01*
X142043097Y-115349500D01*
X141752669Y-115349500D01*
X141685630Y-115329815D01*
X141639875Y-115277011D01*
X141629931Y-115207853D01*
X141658956Y-115144297D01*
X141714351Y-115107569D01*
X141841636Y-115066212D01*
X141841639Y-115066211D01*
X142002994Y-114983996D01*
X142149501Y-114877553D01*
X142277553Y-114749501D01*
X142383996Y-114602994D01*
X142466211Y-114441639D01*
X142522171Y-114269409D01*
X142539025Y-114162997D01*
X142550500Y-114090551D01*
X142550500Y-113909448D01*
X142534019Y-113805397D01*
X142522171Y-113730591D01*
X142466211Y-113558361D01*
X142466211Y-113558360D01*
X142420907Y-113469448D01*
X142383996Y-113397006D01*
X142370396Y-113378287D01*
X142277558Y-113250505D01*
X142277554Y-113250500D01*
X142149499Y-113122445D01*
X142149494Y-113122441D01*
X142002997Y-113016006D01*
X142002996Y-113016005D01*
X142002994Y-113016004D01*
X141951300Y-112989664D01*
X141841639Y-112933788D01*
X141841636Y-112933787D01*
X141669410Y-112877829D01*
X141490551Y-112849500D01*
X141490546Y-112849500D01*
X141059454Y-112849500D01*
X141059449Y-112849500D01*
X140880589Y-112877829D01*
X140708363Y-112933787D01*
X140708360Y-112933788D01*
X140547002Y-113016006D01*
X140400505Y-113122441D01*
X140400500Y-113122445D01*
X140272445Y-113250500D01*
X140272441Y-113250505D01*
X140166006Y-113397002D01*
X140083788Y-113558360D01*
X140083787Y-113558363D01*
X140027829Y-113730589D01*
X139999500Y-113909448D01*
X139999500Y-114090551D01*
X140027829Y-114269410D01*
X140068939Y-114395935D01*
X140070934Y-114465776D01*
X140034853Y-114525609D01*
X139972152Y-114556437D01*
X139902738Y-114548472D01*
X139863327Y-114521934D01*
X135383519Y-110042126D01*
X135350034Y-109980803D01*
X135347200Y-109954445D01*
X135347200Y-105362675D01*
X135347200Y-105362673D01*
X135319907Y-105260813D01*
X135319907Y-105260812D01*
X135267180Y-105169487D01*
X134794059Y-104696366D01*
X134760574Y-104635043D01*
X134765558Y-104565351D01*
X134807430Y-104509418D01*
X134811664Y-104506385D01*
X134817760Y-104502207D01*
X134817765Y-104502206D01*
X134897206Y-104422765D01*
X134942585Y-104319991D01*
X134945500Y-104294865D01*
X134945500Y-103878711D01*
X140149500Y-103878711D01*
X140149500Y-104121288D01*
X140181161Y-104361785D01*
X140243947Y-104596104D01*
X140327150Y-104796972D01*
X140336776Y-104820212D01*
X140458064Y-105030289D01*
X140458066Y-105030292D01*
X140458067Y-105030293D01*
X140605733Y-105222736D01*
X140605739Y-105222743D01*
X140777256Y-105394260D01*
X140777262Y-105394265D01*
X140969711Y-105541936D01*
X141179788Y-105663224D01*
X141403900Y-105756054D01*
X141638211Y-105818838D01*
X141818586Y-105842584D01*
X141878711Y-105850500D01*
X141878712Y-105850500D01*
X142121289Y-105850500D01*
X142169388Y-105844167D01*
X142361789Y-105818838D01*
X142596100Y-105756054D01*
X142820212Y-105663224D01*
X143030289Y-105541936D01*
X143222738Y-105394265D01*
X143394265Y-105222738D01*
X143541936Y-105030289D01*
X143663224Y-104820212D01*
X143756054Y-104596100D01*
X143818838Y-104361789D01*
X143850500Y-104121288D01*
X143850500Y-103878712D01*
X143818838Y-103638211D01*
X143756054Y-103403900D01*
X143663224Y-103179788D01*
X143541936Y-102969711D01*
X143394265Y-102777262D01*
X143394260Y-102777256D01*
X143222743Y-102605739D01*
X143222736Y-102605733D01*
X143030293Y-102458067D01*
X143030292Y-102458066D01*
X143030289Y-102458064D01*
X142820212Y-102336776D01*
X142820205Y-102336773D01*
X142596104Y-102243947D01*
X142361785Y-102181161D01*
X142121289Y-102149500D01*
X142121288Y-102149500D01*
X141878712Y-102149500D01*
X141878711Y-102149500D01*
X141638214Y-102181161D01*
X141403895Y-102243947D01*
X141179794Y-102336773D01*
X141179785Y-102336777D01*
X140969706Y-102458067D01*
X140777263Y-102605733D01*
X140777256Y-102605739D01*
X140605739Y-102777256D01*
X140605733Y-102777263D01*
X140458067Y-102969706D01*
X140336777Y-103179785D01*
X140336773Y-103179794D01*
X140243947Y-103403895D01*
X140181161Y-103638214D01*
X140149500Y-103878711D01*
X134945500Y-103878711D01*
X134945499Y-102505136D01*
X134945497Y-102505117D01*
X134942586Y-102480012D01*
X134942585Y-102480010D01*
X134942585Y-102480009D01*
X134897206Y-102377235D01*
X134817765Y-102297794D01*
X134817763Y-102297793D01*
X134714992Y-102252415D01*
X134689865Y-102249500D01*
X132900143Y-102249500D01*
X132900117Y-102249502D01*
X132875012Y-102252413D01*
X132875008Y-102252415D01*
X132772235Y-102297793D01*
X132692794Y-102377234D01*
X132647415Y-102480006D01*
X132647415Y-102480008D01*
X132644500Y-102505131D01*
X132644500Y-104294856D01*
X132644502Y-104294882D01*
X132647413Y-104319987D01*
X132647415Y-104319991D01*
X132692793Y-104422764D01*
X132692794Y-104422765D01*
X132772235Y-104502206D01*
X132875009Y-104547585D01*
X132900135Y-104550500D01*
X133284901Y-104550499D01*
X133351940Y-104570183D01*
X133397695Y-104622987D01*
X133404676Y-104642405D01*
X133421795Y-104706294D01*
X133423541Y-104710509D01*
X133431007Y-104779978D01*
X133399729Y-104842456D01*
X133356431Y-104872517D01*
X133353363Y-104873787D01*
X133192002Y-104956006D01*
X133045505Y-105062441D01*
X133045500Y-105062445D01*
X132917445Y-105190500D01*
X132917441Y-105190505D01*
X132811006Y-105337002D01*
X132728788Y-105498360D01*
X132728787Y-105498363D01*
X132672829Y-105670589D01*
X132644500Y-105849448D01*
X132644500Y-106030551D01*
X132672829Y-106209410D01*
X132728787Y-106381636D01*
X132728788Y-106381639D01*
X132811006Y-106542997D01*
X132917441Y-106689494D01*
X132917445Y-106689499D01*
X133045500Y-106817554D01*
X133045505Y-106817558D01*
X133173287Y-106910396D01*
X133192006Y-106923996D01*
X133297484Y-106977740D01*
X133353360Y-107006211D01*
X133353363Y-107006212D01*
X133439476Y-107034191D01*
X133525591Y-107062171D01*
X133598639Y-107073740D01*
X133685678Y-107087527D01*
X133748813Y-107117456D01*
X133785744Y-107176768D01*
X133784746Y-107246631D01*
X133746136Y-107304863D01*
X133685678Y-107332473D01*
X133525589Y-107357829D01*
X133353363Y-107413787D01*
X133353360Y-107413788D01*
X133192002Y-107496006D01*
X133045505Y-107602441D01*
X133045500Y-107602445D01*
X132917445Y-107730500D01*
X132917441Y-107730505D01*
X132811006Y-107877002D01*
X132728788Y-108038360D01*
X132728787Y-108038363D01*
X132672829Y-108210589D01*
X132644500Y-108389448D01*
X132644500Y-108570551D01*
X132672829Y-108749410D01*
X132728787Y-108921636D01*
X132728788Y-108921639D01*
X132811006Y-109082997D01*
X132917441Y-109229494D01*
X132917445Y-109229499D01*
X133045500Y-109357554D01*
X133045505Y-109357558D01*
X133173287Y-109450396D01*
X133192006Y-109463996D01*
X133297484Y-109517740D01*
X133353360Y-109546211D01*
X133353363Y-109546212D01*
X133439476Y-109574191D01*
X133525591Y-109602171D01*
X133598639Y-109613740D01*
X133685678Y-109627527D01*
X133748813Y-109657456D01*
X133785744Y-109716768D01*
X133784746Y-109786631D01*
X133746136Y-109844863D01*
X133685678Y-109872473D01*
X133525589Y-109897829D01*
X133353363Y-109953787D01*
X133353360Y-109953788D01*
X133192002Y-110036006D01*
X133045505Y-110142441D01*
X133045500Y-110142445D01*
X132917445Y-110270500D01*
X132917441Y-110270505D01*
X132811006Y-110417002D01*
X132728788Y-110578360D01*
X132728787Y-110578363D01*
X132672829Y-110750589D01*
X132644500Y-110929448D01*
X132644500Y-111110551D01*
X132672829Y-111289410D01*
X132728787Y-111461636D01*
X132728788Y-111461639D01*
X132811006Y-111622997D01*
X132917441Y-111769494D01*
X132917445Y-111769499D01*
X133045500Y-111897554D01*
X133045505Y-111897558D01*
X133173287Y-111990396D01*
X133192006Y-112003996D01*
X133297484Y-112057740D01*
X133353360Y-112086211D01*
X133353363Y-112086212D01*
X133439476Y-112114191D01*
X133525591Y-112142171D01*
X133598639Y-112153740D01*
X133685678Y-112167527D01*
X133748813Y-112197456D01*
X133785744Y-112256768D01*
X133784746Y-112326631D01*
X133746136Y-112384863D01*
X133685678Y-112412473D01*
X133525589Y-112437829D01*
X133353363Y-112493787D01*
X133353360Y-112493788D01*
X133192002Y-112576006D01*
X133045505Y-112682441D01*
X133045500Y-112682445D01*
X132917445Y-112810500D01*
X132917441Y-112810505D01*
X132811006Y-112957002D01*
X132728788Y-113118360D01*
X132728787Y-113118363D01*
X132672829Y-113290589D01*
X132644500Y-113469448D01*
X132644500Y-113650551D01*
X132672829Y-113829410D01*
X132719575Y-113973281D01*
X132721570Y-114043122D01*
X132689325Y-114099280D01*
X121049622Y-125738984D01*
X121049620Y-125738987D01*
X121003794Y-125818360D01*
X120996893Y-125830312D01*
X120989072Y-125859500D01*
X120981759Y-125886794D01*
X120969600Y-125932170D01*
X120969600Y-135653045D01*
X120949915Y-135720084D01*
X120933281Y-135740726D01*
X112887059Y-143786947D01*
X112825736Y-143820432D01*
X112756044Y-143815448D01*
X112700111Y-143773576D01*
X112681447Y-143737584D01*
X112636212Y-143598363D01*
X112636211Y-143598360D01*
X112586459Y-143500718D01*
X112553996Y-143437006D01*
X112527473Y-143400500D01*
X112447558Y-143290505D01*
X112447554Y-143290500D01*
X112319499Y-143162445D01*
X112319494Y-143162441D01*
X112172997Y-143056006D01*
X112172996Y-143056005D01*
X112172994Y-143056004D01*
X112121300Y-143029664D01*
X112011639Y-142973788D01*
X112011636Y-142973787D01*
X111839410Y-142917829D01*
X111679321Y-142892473D01*
X111616186Y-142862544D01*
X111579255Y-142803232D01*
X111580253Y-142733370D01*
X111618863Y-142675137D01*
X111679321Y-142647527D01*
X111749425Y-142636422D01*
X111839409Y-142622171D01*
X112011639Y-142566211D01*
X112172994Y-142483996D01*
X112319501Y-142377553D01*
X112447553Y-142249501D01*
X112553996Y-142102994D01*
X112636211Y-141941639D01*
X112692171Y-141769409D01*
X112711558Y-141647006D01*
X112720500Y-141590551D01*
X112720500Y-141409448D01*
X112697780Y-141266006D01*
X112692171Y-141230591D01*
X112636211Y-141058361D01*
X112636211Y-141058360D01*
X112580232Y-140948497D01*
X112553996Y-140897006D01*
X112495297Y-140816213D01*
X112447558Y-140750505D01*
X112447554Y-140750500D01*
X112319499Y-140622445D01*
X112319494Y-140622441D01*
X112172997Y-140516006D01*
X112172996Y-140516005D01*
X112172994Y-140516004D01*
X112121300Y-140489664D01*
X112011639Y-140433788D01*
X112011636Y-140433787D01*
X111839410Y-140377829D01*
X111679321Y-140352473D01*
X111616186Y-140322544D01*
X111579255Y-140263232D01*
X111580253Y-140193370D01*
X111618863Y-140135137D01*
X111679321Y-140107527D01*
X111749425Y-140096422D01*
X111839409Y-140082171D01*
X112011639Y-140026211D01*
X112172994Y-139943996D01*
X112319501Y-139837553D01*
X112447553Y-139709501D01*
X112553996Y-139562994D01*
X112636211Y-139401639D01*
X112692171Y-139229409D01*
X112707624Y-139131845D01*
X112720500Y-139050551D01*
X112720500Y-138869448D01*
X112694625Y-138706088D01*
X112692171Y-138690591D01*
X112664191Y-138604476D01*
X112636212Y-138518363D01*
X112636211Y-138518360D01*
X112603346Y-138453861D01*
X112553996Y-138357006D01*
X112488816Y-138267293D01*
X112447558Y-138210505D01*
X112447554Y-138210500D01*
X112319497Y-138082443D01*
X112313096Y-138077793D01*
X112270430Y-138022464D01*
X112264449Y-137952851D01*
X112297054Y-137891055D01*
X112298225Y-137889867D01*
X113074680Y-137113413D01*
X113127407Y-137022088D01*
X113154700Y-136920227D01*
X113154700Y-136814773D01*
X113154700Y-122426929D01*
X113154701Y-122426916D01*
X113154701Y-122311474D01*
X113139682Y-122255424D01*
X113127407Y-122209613D01*
X113101070Y-122163996D01*
X113074680Y-122118287D01*
X113000113Y-122043720D01*
X112995782Y-122039389D01*
X112995771Y-122039379D01*
X112675674Y-121719282D01*
X112642189Y-121657959D01*
X112645424Y-121593283D01*
X112692171Y-121449409D01*
X112720500Y-121270551D01*
X112720500Y-121089448D01*
X112704019Y-120985397D01*
X112692171Y-120910591D01*
X112636211Y-120738361D01*
X112636211Y-120738360D01*
X112607740Y-120682484D01*
X112553996Y-120577006D01*
X112540396Y-120558287D01*
X112447558Y-120430505D01*
X112447554Y-120430500D01*
X112319499Y-120302445D01*
X112319494Y-120302441D01*
X112172997Y-120196006D01*
X112172996Y-120196005D01*
X112172994Y-120196004D01*
X112121300Y-120169664D01*
X112011639Y-120113788D01*
X112011636Y-120113787D01*
X111839410Y-120057829D01*
X111679321Y-120032473D01*
X111616186Y-120002544D01*
X111579255Y-119943232D01*
X111580253Y-119873370D01*
X111618863Y-119815137D01*
X111679321Y-119787527D01*
X111749425Y-119776422D01*
X111839409Y-119762171D01*
X112011639Y-119706211D01*
X112172994Y-119623996D01*
X112319501Y-119517553D01*
X112447553Y-119389501D01*
X112553996Y-119242994D01*
X112636211Y-119081639D01*
X112692171Y-118909409D01*
X112706765Y-118817259D01*
X112720500Y-118730551D01*
X112720500Y-118549448D01*
X112704019Y-118445397D01*
X112692171Y-118370591D01*
X112636211Y-118198361D01*
X112636211Y-118198360D01*
X112607740Y-118142484D01*
X112553996Y-118037006D01*
X112540396Y-118018287D01*
X112447558Y-117890505D01*
X112447554Y-117890500D01*
X112319499Y-117762445D01*
X112319494Y-117762441D01*
X112172997Y-117656006D01*
X112172996Y-117656005D01*
X112172994Y-117656004D01*
X112121300Y-117629664D01*
X112011639Y-117573788D01*
X112011636Y-117573787D01*
X111839410Y-117517829D01*
X111679321Y-117492473D01*
X111616186Y-117462544D01*
X111579255Y-117403232D01*
X111580253Y-117333370D01*
X111618863Y-117275137D01*
X111679321Y-117247527D01*
X111749425Y-117236422D01*
X111839409Y-117222171D01*
X112011639Y-117166211D01*
X112172994Y-117083996D01*
X112319501Y-116977553D01*
X112447553Y-116849501D01*
X112553996Y-116702994D01*
X112636211Y-116541639D01*
X112692171Y-116369409D01*
X112706765Y-116277259D01*
X112720500Y-116190551D01*
X112720500Y-116009448D01*
X112696338Y-115856903D01*
X112692171Y-115830591D01*
X112636211Y-115658361D01*
X112636211Y-115658360D01*
X112607740Y-115602484D01*
X112553996Y-115497006D01*
X112494880Y-115415639D01*
X112447558Y-115350505D01*
X112447554Y-115350500D01*
X112319499Y-115222445D01*
X112319494Y-115222441D01*
X112172997Y-115116006D01*
X112172996Y-115116005D01*
X112172994Y-115116004D01*
X112121300Y-115089664D01*
X112011639Y-115033788D01*
X112011636Y-115033787D01*
X111839410Y-114977829D01*
X111679321Y-114952473D01*
X111616186Y-114922544D01*
X111579255Y-114863232D01*
X111580253Y-114793370D01*
X111618863Y-114735137D01*
X111679321Y-114707527D01*
X111749425Y-114696422D01*
X111839409Y-114682171D01*
X112011639Y-114626211D01*
X112172994Y-114543996D01*
X112319501Y-114437553D01*
X112447553Y-114309501D01*
X112553996Y-114162994D01*
X112636211Y-114001639D01*
X112692171Y-113829409D01*
X112707822Y-113730591D01*
X112720500Y-113650551D01*
X112720500Y-113469448D01*
X112704019Y-113365397D01*
X112692171Y-113290591D01*
X112636211Y-113118361D01*
X112636211Y-113118360D01*
X112584057Y-113016004D01*
X112553996Y-112957006D01*
X112537127Y-112933788D01*
X112447558Y-112810505D01*
X112447554Y-112810500D01*
X112319499Y-112682445D01*
X112319494Y-112682441D01*
X112172997Y-112576006D01*
X112172996Y-112576005D01*
X112172994Y-112576004D01*
X112121300Y-112549664D01*
X112011639Y-112493788D01*
X112011636Y-112493787D01*
X111839410Y-112437829D01*
X111679321Y-112412473D01*
X111616186Y-112382544D01*
X111579255Y-112323232D01*
X111580253Y-112253370D01*
X111618863Y-112195137D01*
X111679321Y-112167527D01*
X111749425Y-112156422D01*
X111839409Y-112142171D01*
X112011639Y-112086211D01*
X112172994Y-112003996D01*
X112319501Y-111897553D01*
X112447553Y-111769501D01*
X112553996Y-111622994D01*
X112636211Y-111461639D01*
X112692171Y-111289409D01*
X112706765Y-111197259D01*
X112720500Y-111110551D01*
X112720500Y-110929448D01*
X112704019Y-110825397D01*
X112692171Y-110750591D01*
X112636211Y-110578361D01*
X112636211Y-110578360D01*
X112607740Y-110522484D01*
X112553996Y-110417006D01*
X112540396Y-110398287D01*
X112447558Y-110270505D01*
X112447554Y-110270500D01*
X112319499Y-110142445D01*
X112319494Y-110142441D01*
X112172997Y-110036006D01*
X112172996Y-110036005D01*
X112172994Y-110036004D01*
X112121300Y-110009664D01*
X112011639Y-109953788D01*
X112011636Y-109953787D01*
X111839410Y-109897829D01*
X111679321Y-109872473D01*
X111616186Y-109842544D01*
X111579255Y-109783232D01*
X111580253Y-109713370D01*
X111618863Y-109655137D01*
X111679321Y-109627527D01*
X111749425Y-109616422D01*
X111839409Y-109602171D01*
X112011639Y-109546211D01*
X112172994Y-109463996D01*
X112319501Y-109357553D01*
X112447553Y-109229501D01*
X112553996Y-109082994D01*
X112636211Y-108921639D01*
X112692171Y-108749409D01*
X112706765Y-108657259D01*
X112720500Y-108570551D01*
X112720500Y-108389448D01*
X112704019Y-108285397D01*
X112692171Y-108210591D01*
X112636211Y-108038361D01*
X112636211Y-108038360D01*
X112607740Y-107982484D01*
X112553996Y-107877006D01*
X112540396Y-107858287D01*
X112447558Y-107730505D01*
X112447554Y-107730500D01*
X112319499Y-107602445D01*
X112319494Y-107602441D01*
X112172997Y-107496006D01*
X112172996Y-107496005D01*
X112172994Y-107496004D01*
X112121300Y-107469664D01*
X112011639Y-107413788D01*
X112011636Y-107413787D01*
X111839410Y-107357829D01*
X111679321Y-107332473D01*
X111616186Y-107302544D01*
X111579255Y-107243232D01*
X111580253Y-107173370D01*
X111618863Y-107115137D01*
X111679321Y-107087527D01*
X111749425Y-107076422D01*
X111839409Y-107062171D01*
X112011639Y-107006211D01*
X112172994Y-106923996D01*
X112319501Y-106817553D01*
X112447553Y-106689501D01*
X112553996Y-106542994D01*
X112636211Y-106381639D01*
X112692171Y-106209409D01*
X112706765Y-106117259D01*
X112720500Y-106030551D01*
X112720500Y-105849448D01*
X112704019Y-105745397D01*
X112692171Y-105670591D01*
X112636211Y-105498361D01*
X112636211Y-105498360D01*
X112607740Y-105442484D01*
X112553996Y-105337006D01*
X112470976Y-105222738D01*
X112447558Y-105190505D01*
X112447554Y-105190500D01*
X112319499Y-105062445D01*
X112319494Y-105062441D01*
X112172997Y-104956006D01*
X112172996Y-104956005D01*
X112172994Y-104956004D01*
X112121300Y-104929664D01*
X112011639Y-104873788D01*
X112011636Y-104873787D01*
X111839410Y-104817829D01*
X111707728Y-104796972D01*
X111644594Y-104767042D01*
X111607663Y-104707731D01*
X111608661Y-104637868D01*
X111647271Y-104579636D01*
X111711235Y-104551522D01*
X111727120Y-104550499D01*
X112464864Y-104550499D01*
X112464879Y-104550497D01*
X112464882Y-104550497D01*
X112489987Y-104547586D01*
X112489988Y-104547585D01*
X112489991Y-104547585D01*
X112592765Y-104502206D01*
X112672206Y-104422765D01*
X112717585Y-104319991D01*
X112720500Y-104294865D01*
X112720499Y-102505136D01*
X112720497Y-102505117D01*
X112717586Y-102480012D01*
X112717585Y-102480010D01*
X112717585Y-102480009D01*
X112672206Y-102377235D01*
X112592765Y-102297794D01*
X112592763Y-102297793D01*
X112489992Y-102252415D01*
X112464865Y-102249500D01*
X110675143Y-102249500D01*
X110675117Y-102249502D01*
X110650012Y-102252413D01*
X110650008Y-102252415D01*
X110547235Y-102297793D01*
X110467794Y-102377234D01*
X110422415Y-102480006D01*
X110422415Y-102480008D01*
X110419500Y-102505131D01*
X110419500Y-104294856D01*
X110419502Y-104294882D01*
X110422413Y-104319987D01*
X110422415Y-104319991D01*
X110467793Y-104422764D01*
X110467794Y-104422765D01*
X110547235Y-104502206D01*
X110650009Y-104547585D01*
X110675135Y-104550500D01*
X111412873Y-104550499D01*
X111479910Y-104570183D01*
X111525665Y-104622987D01*
X111535609Y-104692146D01*
X111506584Y-104755702D01*
X111447806Y-104793476D01*
X111432270Y-104796972D01*
X111300589Y-104817829D01*
X111128363Y-104873787D01*
X111128360Y-104873788D01*
X110967002Y-104956006D01*
X110820505Y-105062441D01*
X110820500Y-105062445D01*
X110692445Y-105190500D01*
X110692441Y-105190505D01*
X110586006Y-105337002D01*
X110503788Y-105498360D01*
X110503787Y-105498363D01*
X110447829Y-105670589D01*
X110419500Y-105849448D01*
X110419500Y-106030551D01*
X110447829Y-106209410D01*
X110503787Y-106381636D01*
X110503788Y-106381639D01*
X110586006Y-106542997D01*
X110692441Y-106689494D01*
X110692445Y-106689499D01*
X110820500Y-106817554D01*
X110820505Y-106817558D01*
X110948287Y-106910396D01*
X110967006Y-106923996D01*
X111072484Y-106977740D01*
X111128360Y-107006211D01*
X111128363Y-107006212D01*
X111214476Y-107034191D01*
X111300591Y-107062171D01*
X111373639Y-107073740D01*
X111460678Y-107087527D01*
X111523813Y-107117456D01*
X111560744Y-107176768D01*
X111559746Y-107246631D01*
X111521136Y-107304863D01*
X111460678Y-107332473D01*
X111300589Y-107357829D01*
X111128363Y-107413787D01*
X111128360Y-107413788D01*
X110967002Y-107496006D01*
X110820505Y-107602441D01*
X110820500Y-107602445D01*
X110692445Y-107730500D01*
X110692441Y-107730505D01*
X110586006Y-107877002D01*
X110503788Y-108038360D01*
X110503787Y-108038363D01*
X110447829Y-108210589D01*
X110419500Y-108389448D01*
X110419500Y-108570551D01*
X110447829Y-108749410D01*
X110503787Y-108921636D01*
X110503788Y-108921639D01*
X110586006Y-109082997D01*
X110692441Y-109229494D01*
X110692445Y-109229499D01*
X110820500Y-109357554D01*
X110820505Y-109357558D01*
X110948287Y-109450396D01*
X110967006Y-109463996D01*
X111072484Y-109517740D01*
X111128360Y-109546211D01*
X111128363Y-109546212D01*
X111214476Y-109574191D01*
X111300591Y-109602171D01*
X111373639Y-109613740D01*
X111460678Y-109627527D01*
X111523813Y-109657456D01*
X111560744Y-109716768D01*
X111559746Y-109786631D01*
X111521136Y-109844863D01*
X111460678Y-109872473D01*
X111300589Y-109897829D01*
X111128363Y-109953787D01*
X111128360Y-109953788D01*
X110967002Y-110036006D01*
X110820505Y-110142441D01*
X110820500Y-110142445D01*
X110692445Y-110270500D01*
X110692441Y-110270505D01*
X110586006Y-110417002D01*
X110503788Y-110578360D01*
X110503787Y-110578363D01*
X110447829Y-110750589D01*
X110419500Y-110929448D01*
X110419500Y-111110551D01*
X110447829Y-111289410D01*
X110503787Y-111461636D01*
X110503788Y-111461639D01*
X110586006Y-111622997D01*
X110692441Y-111769494D01*
X110692445Y-111769499D01*
X110820500Y-111897554D01*
X110820505Y-111897558D01*
X110948287Y-111990396D01*
X110967006Y-112003996D01*
X111072484Y-112057740D01*
X111128360Y-112086211D01*
X111128363Y-112086212D01*
X111214476Y-112114191D01*
X111300591Y-112142171D01*
X111373639Y-112153740D01*
X111460678Y-112167527D01*
X111523813Y-112197456D01*
X111560744Y-112256768D01*
X111559746Y-112326631D01*
X111521136Y-112384863D01*
X111460678Y-112412473D01*
X111300589Y-112437829D01*
X111128363Y-112493787D01*
X111128360Y-112493788D01*
X110967002Y-112576006D01*
X110820505Y-112682441D01*
X110820500Y-112682445D01*
X110692445Y-112810500D01*
X110692441Y-112810505D01*
X110586006Y-112957002D01*
X110503788Y-113118360D01*
X110503787Y-113118363D01*
X110447829Y-113290589D01*
X110419500Y-113469448D01*
X110419500Y-113650551D01*
X110447829Y-113829410D01*
X110503787Y-114001636D01*
X110503788Y-114001639D01*
X110586006Y-114162997D01*
X110692441Y-114309494D01*
X110692445Y-114309499D01*
X110820500Y-114437554D01*
X110820505Y-114437558D01*
X110936640Y-114521934D01*
X110967006Y-114543996D01*
X111072484Y-114597740D01*
X111128360Y-114626211D01*
X111128363Y-114626212D01*
X111214476Y-114654191D01*
X111300591Y-114682171D01*
X111373639Y-114693740D01*
X111460678Y-114707527D01*
X111523813Y-114737456D01*
X111560744Y-114796768D01*
X111559746Y-114866631D01*
X111521136Y-114924863D01*
X111460678Y-114952473D01*
X111300589Y-114977829D01*
X111128363Y-115033787D01*
X111128360Y-115033788D01*
X110967002Y-115116006D01*
X110820505Y-115222441D01*
X110820500Y-115222445D01*
X110692445Y-115350500D01*
X110692441Y-115350505D01*
X110586006Y-115497002D01*
X110503788Y-115658360D01*
X110503787Y-115658363D01*
X110447829Y-115830589D01*
X110419500Y-116009448D01*
X110419500Y-116190551D01*
X110447829Y-116369410D01*
X110503787Y-116541636D01*
X110503788Y-116541639D01*
X110586006Y-116702997D01*
X110692441Y-116849494D01*
X110692445Y-116849499D01*
X110820500Y-116977554D01*
X110820505Y-116977558D01*
X110948287Y-117070396D01*
X110967006Y-117083996D01*
X111072484Y-117137740D01*
X111128360Y-117166211D01*
X111128363Y-117166212D01*
X111214476Y-117194191D01*
X111300591Y-117222171D01*
X111373639Y-117233740D01*
X111460678Y-117247527D01*
X111523813Y-117277456D01*
X111560744Y-117336768D01*
X111559746Y-117406631D01*
X111521136Y-117464863D01*
X111460678Y-117492473D01*
X111300589Y-117517829D01*
X111128363Y-117573787D01*
X111128360Y-117573788D01*
X110967002Y-117656006D01*
X110820505Y-117762441D01*
X110820500Y-117762445D01*
X110692445Y-117890500D01*
X110692441Y-117890505D01*
X110586006Y-118037002D01*
X110503788Y-118198360D01*
X110503787Y-118198363D01*
X110447829Y-118370589D01*
X110419500Y-118549448D01*
X110419500Y-118730551D01*
X110447829Y-118909410D01*
X110503787Y-119081636D01*
X110503788Y-119081639D01*
X110586006Y-119242997D01*
X110692441Y-119389494D01*
X110692445Y-119389499D01*
X110820500Y-119517554D01*
X110820505Y-119517558D01*
X110948287Y-119610396D01*
X110967006Y-119623996D01*
X111072484Y-119677740D01*
X111128360Y-119706211D01*
X111128363Y-119706212D01*
X111214476Y-119734191D01*
X111300591Y-119762171D01*
X111373639Y-119773740D01*
X111460678Y-119787527D01*
X111523813Y-119817456D01*
X111560744Y-119876768D01*
X111559746Y-119946631D01*
X111521136Y-120004863D01*
X111460678Y-120032473D01*
X111300589Y-120057829D01*
X111128363Y-120113787D01*
X111128360Y-120113788D01*
X110967002Y-120196006D01*
X110820505Y-120302441D01*
X110820500Y-120302445D01*
X110692445Y-120430500D01*
X110692441Y-120430505D01*
X110586006Y-120577002D01*
X110503788Y-120738360D01*
X110503787Y-120738363D01*
X110447829Y-120910589D01*
X110419500Y-121089448D01*
X110419500Y-121270551D01*
X110447829Y-121449410D01*
X110503787Y-121621636D01*
X110503788Y-121621639D01*
X110586006Y-121782997D01*
X110692441Y-121929494D01*
X110692445Y-121929499D01*
X110820500Y-122057554D01*
X110820505Y-122057558D01*
X110904094Y-122118288D01*
X110967006Y-122163996D01*
X111056532Y-122209612D01*
X111128360Y-122246211D01*
X111128363Y-122246212D01*
X111214476Y-122274191D01*
X111300591Y-122302171D01*
X111373639Y-122313740D01*
X111460678Y-122327527D01*
X111523813Y-122357456D01*
X111560744Y-122416768D01*
X111559746Y-122486631D01*
X111521136Y-122544863D01*
X111460678Y-122572473D01*
X111300589Y-122597829D01*
X111128363Y-122653787D01*
X111128360Y-122653788D01*
X110967002Y-122736006D01*
X110820505Y-122842441D01*
X110820500Y-122842445D01*
X110692445Y-122970500D01*
X110692441Y-122970505D01*
X110586006Y-123117002D01*
X110503788Y-123278360D01*
X110503787Y-123278363D01*
X110447829Y-123450589D01*
X110419500Y-123629448D01*
X110419500Y-123810551D01*
X110447829Y-123989410D01*
X110503787Y-124161636D01*
X110503788Y-124161639D01*
X110586006Y-124322997D01*
X110692441Y-124469494D01*
X110692445Y-124469499D01*
X110820500Y-124597554D01*
X110820505Y-124597558D01*
X110948287Y-124690396D01*
X110967006Y-124703996D01*
X111072484Y-124757740D01*
X111128360Y-124786211D01*
X111128363Y-124786212D01*
X111214476Y-124814191D01*
X111300591Y-124842171D01*
X111373639Y-124853740D01*
X111460678Y-124867527D01*
X111523813Y-124897456D01*
X111560744Y-124956768D01*
X111559746Y-125026631D01*
X111521136Y-125084863D01*
X111460678Y-125112473D01*
X111300589Y-125137829D01*
X111128363Y-125193787D01*
X111128360Y-125193788D01*
X110967002Y-125276006D01*
X110820505Y-125382441D01*
X110820500Y-125382445D01*
X110692445Y-125510500D01*
X110692441Y-125510505D01*
X110586006Y-125657002D01*
X110503788Y-125818360D01*
X110503787Y-125818363D01*
X110447829Y-125990589D01*
X110419500Y-126169448D01*
X110419500Y-126350551D01*
X110447829Y-126529410D01*
X110503787Y-126701636D01*
X110503788Y-126701639D01*
X110586006Y-126862997D01*
X110692441Y-127009494D01*
X110692445Y-127009499D01*
X110820500Y-127137554D01*
X110820505Y-127137558D01*
X110948287Y-127230396D01*
X110967006Y-127243996D01*
X111072484Y-127297740D01*
X111128360Y-127326211D01*
X111128363Y-127326212D01*
X111214476Y-127354191D01*
X111300591Y-127382171D01*
X111373639Y-127393740D01*
X111460678Y-127407527D01*
X111523813Y-127437456D01*
X111560744Y-127496768D01*
X111559746Y-127566631D01*
X111521136Y-127624863D01*
X111460678Y-127652473D01*
X111300589Y-127677829D01*
X111128363Y-127733787D01*
X111128360Y-127733788D01*
X110967002Y-127816006D01*
X110820505Y-127922441D01*
X110820500Y-127922445D01*
X110692445Y-128050500D01*
X110692441Y-128050505D01*
X110586006Y-128197002D01*
X110503788Y-128358360D01*
X110503787Y-128358363D01*
X110447829Y-128530589D01*
X110419500Y-128709448D01*
X110419500Y-128890551D01*
X110447829Y-129069410D01*
X110494575Y-129213281D01*
X110496570Y-129283122D01*
X110464325Y-129339280D01*
X109181926Y-130621681D01*
X109120603Y-130655166D01*
X109094245Y-130658000D01*
X105405761Y-130658000D01*
X105338722Y-130638315D01*
X105292967Y-130585511D01*
X105283023Y-130516353D01*
X105305443Y-130461115D01*
X105350205Y-130399503D01*
X105383996Y-130352994D01*
X105466211Y-130191639D01*
X105522171Y-130019409D01*
X105544976Y-129875424D01*
X105550500Y-129840551D01*
X105550500Y-129659448D01*
X105533084Y-129549494D01*
X105522171Y-129480591D01*
X105466211Y-129308361D01*
X105466211Y-129308360D01*
X105417765Y-129213281D01*
X105383996Y-129147006D01*
X105327619Y-129069409D01*
X105277558Y-129000505D01*
X105277554Y-129000500D01*
X105149499Y-128872445D01*
X105149494Y-128872441D01*
X105002997Y-128766006D01*
X105002996Y-128766005D01*
X105002994Y-128766004D01*
X104951300Y-128739664D01*
X104841639Y-128683788D01*
X104841636Y-128683787D01*
X104669410Y-128627829D01*
X104490551Y-128599500D01*
X104490546Y-128599500D01*
X104059454Y-128599500D01*
X104059449Y-128599500D01*
X103880589Y-128627829D01*
X103708363Y-128683787D01*
X103708360Y-128683788D01*
X103547002Y-128766006D01*
X103400505Y-128872441D01*
X103400500Y-128872445D01*
X103272445Y-129000500D01*
X103272441Y-129000505D01*
X103166006Y-129147002D01*
X103083788Y-129308360D01*
X103083787Y-129308363D01*
X103027829Y-129480589D01*
X102999500Y-129659448D01*
X102999500Y-129840551D01*
X103027829Y-130019410D01*
X103083787Y-130191636D01*
X103083788Y-130191639D01*
X103166006Y-130352997D01*
X103272441Y-130499494D01*
X103272445Y-130499499D01*
X103396295Y-130623349D01*
X103429780Y-130684672D01*
X103424796Y-130754364D01*
X103396298Y-130798708D01*
X103382423Y-130812584D01*
X103382420Y-130812587D01*
X102231722Y-131963284D01*
X102231718Y-131963290D01*
X102178992Y-132054612D01*
X102178993Y-132054613D01*
X102151700Y-132156473D01*
X100500500Y-132156473D01*
X100500500Y-103878711D01*
X102149500Y-103878711D01*
X102149500Y-104121288D01*
X102181161Y-104361785D01*
X102243947Y-104596104D01*
X102327150Y-104796972D01*
X102336776Y-104820212D01*
X102458064Y-105030289D01*
X102458066Y-105030292D01*
X102458067Y-105030293D01*
X102605733Y-105222736D01*
X102605739Y-105222743D01*
X102777256Y-105394260D01*
X102777262Y-105394265D01*
X102969711Y-105541936D01*
X103179788Y-105663224D01*
X103403900Y-105756054D01*
X103638211Y-105818838D01*
X103818586Y-105842584D01*
X103878711Y-105850500D01*
X103878712Y-105850500D01*
X104121289Y-105850500D01*
X104169388Y-105844167D01*
X104361789Y-105818838D01*
X104596100Y-105756054D01*
X104820212Y-105663224D01*
X105030289Y-105541936D01*
X105222738Y-105394265D01*
X105394265Y-105222738D01*
X105541936Y-105030289D01*
X105663224Y-104820212D01*
X105756054Y-104596100D01*
X105818838Y-104361789D01*
X105850500Y-104121288D01*
X105850500Y-103878712D01*
X105818838Y-103638211D01*
X105756054Y-103403900D01*
X105663224Y-103179788D01*
X105541936Y-102969711D01*
X105394265Y-102777262D01*
X105394260Y-102777256D01*
X105222743Y-102605739D01*
X105222736Y-102605733D01*
X105030293Y-102458067D01*
X105030292Y-102458066D01*
X105030289Y-102458064D01*
X104820212Y-102336776D01*
X104820205Y-102336773D01*
X104596104Y-102243947D01*
X104361785Y-102181161D01*
X104121289Y-102149500D01*
X104121288Y-102149500D01*
X103878712Y-102149500D01*
X103878711Y-102149500D01*
X103638214Y-102181161D01*
X103403895Y-102243947D01*
X103179794Y-102336773D01*
X103179785Y-102336777D01*
X102969706Y-102458067D01*
X102777263Y-102605733D01*
X102777256Y-102605739D01*
X102605739Y-102777256D01*
X102605733Y-102777263D01*
X102458067Y-102969706D01*
X102336777Y-103179785D01*
X102336773Y-103179794D01*
X102243947Y-103403895D01*
X102181161Y-103638214D01*
X102149500Y-103878711D01*
X100500500Y-103878711D01*
X100500500Y-100124500D01*
X100520185Y-100057461D01*
X100572989Y-100011706D01*
X100624500Y-100000500D01*
X145375500Y-100000500D01*
X145442539Y-100020185D01*
G37*
%TD.AperFunction*%
%TD*%
M02*
