M48
; DRILL file KiCad 10.0.6 date 2026-09-28T20:35:21
; FORMAT={-:-/ absolute / metric / decimal}
; #@! TF.CreationDate,2026-09-28T20:35:21-04:00
; #@! TF.GenerationSoftware,Kicad,Pcbnew,10.0.6
; #@! TF.FileFunction,Plated,1,2,PTH
FMAT,2
METRIC
; #@! TA.AperFunction,Plated,PTH,ViaDrill
T1C0.300
; #@! TA.AperFunction,Plated,PTH,ComponentDrill
T2C0.800
; #@! TA.AperFunction,Plated,PTH,ComponentDrill
T3C0.950
; #@! TA.AperFunction,Plated,PTH,ComponentDrill
T4C1.000
%
G90
G05
T1
X110.759Y-145.31
X110.862Y-161.847
X138.668Y-122.937
T2
X104.8Y-149.0
X104.8Y-154.0
X109.5Y-165.5
X114.5Y-165.5
X122.19Y-160.0
X129.81Y-160.0
X141.8Y-127.0
X141.8Y-132.0
X141.8Y-135.19
X141.8Y-142.81
T3
X104.275Y-127.25
X104.275Y-129.75
X104.275Y-132.25
X104.275Y-134.75
X104.275Y-137.25
X104.275Y-139.75
X104.275Y-142.25
X104.275Y-144.75
X120.5Y-170.475
X123.0Y-170.475
X125.5Y-170.475
X141.275Y-111.5
X141.275Y-114.0
X141.275Y-116.5
X141.275Y-149.0
X141.275Y-151.5
X141.275Y-154.0
X141.275Y-156.5
X141.275Y-159.0
T4
X111.57Y-103.4
X111.57Y-105.94
X111.57Y-108.48
X111.57Y-111.02
X111.57Y-113.56
X111.57Y-116.1
X111.57Y-118.64
X111.57Y-121.18
X111.57Y-123.72
X111.57Y-126.26
X111.57Y-128.8
X111.57Y-131.34
X111.57Y-133.88
X111.57Y-136.42
X111.57Y-138.96
X111.57Y-141.5
X111.57Y-144.04
X111.57Y-146.58
X111.57Y-149.12
X132.0Y-166.725
X132.0Y-169.265
X133.795Y-103.4
X133.795Y-105.94
X133.795Y-108.48
X133.795Y-111.02
X133.795Y-113.56
X133.795Y-116.1
X133.795Y-118.64
X133.795Y-121.18
X133.795Y-123.72
X133.795Y-126.26
X133.795Y-128.8
X133.795Y-131.34
X133.795Y-133.88
X133.795Y-136.42
X133.795Y-138.96
X133.795Y-141.5
X133.795Y-144.04
X133.795Y-146.58
X133.795Y-149.12
M30
