%TF.GenerationSoftware,KiCad,Pcbnew,10.0.6*%
%TF.CreationDate,2026-09-28T20:35:20-04:00*%
%TF.ProjectId,Sigil_EInk,53696769-6c5f-4454-996e-6b2e6b696361,rev?*%
%TF.SameCoordinates,Original*%
%TF.FileFunction,Legend,Bot*%
%TF.FilePolarity,Positive*%
%FSLAX46Y46*%
G04 Gerber Fmt 4.6, Leading zero omitted, Abs format (unit mm)*
G04 Created by KiCad (PCBNEW 10.0.6) date 2026-09-28 20:35:20*
%MOMM*%
%LPD*%
G01*
G04 APERTURE LIST*
G04 Aperture macros list*
%AMRoundRect*
0 Rectangle with rounded corners*
0 $1 Rounding radius*
0 $2 $3 $4 $5 $6 $7 $8 $9 X,Y pos of 4 corners*
0 Add a 4 corners polygon primitive as box body*
4,1,4,$2,$3,$4,$5,$6,$7,$8,$9,$2,$3,0*
0 Add four circle primitives for the rounded corners*
1,1,$1+$1,$2,$3*
1,1,$1+$1,$4,$5*
1,1,$1+$1,$6,$7*
1,1,$1+$1,$8,$9*
0 Add four rect primitives between the rounded corners*
20,1,$1+$1,$2,$3,$4,$5,0*
20,1,$1+$1,$4,$5,$6,$7,0*
20,1,$1+$1,$6,$7,$8,$9,0*
20,1,$1+$1,$8,$9,$2,$3,0*%
G04 Aperture macros list end*
%ADD10C,3.200000*%
%ADD11RoundRect,0.250000X0.725000X-0.600000X0.725000X0.600000X-0.725000X0.600000X-0.725000X-0.600000X0*%
%ADD12O,1.950000X1.700000*%
%ADD13C,1.600000*%
%ADD14R,1.700000X1.700000*%
%ADD15C,1.700000*%
%ADD16RoundRect,0.250000X-0.600000X-0.725000X0.600000X-0.725000X0.600000X0.725000X-0.600000X0.725000X0*%
%ADD17O,1.700000X1.950000*%
G04 APERTURE END LIST*
%LPC*%
D10*
%TO.C,H3*%
X104000000Y-172000000D03*
%TD*%
%TO.C,H4*%
X142000000Y-172000000D03*
%TD*%
D11*
%TO.C,J5*%
X141275000Y-116500000D03*
D12*
X141275000Y-114000000D03*
X141275000Y-111500000D03*
%TD*%
D13*
%TO.C,C3*%
X141800000Y-132000000D03*
X141800000Y-127000000D03*
%TD*%
%TO.C,C2*%
X104800000Y-154000000D03*
X104800000Y-149000000D03*
%TD*%
%TO.C,R2*%
X122190000Y-160000000D03*
X129810000Y-160000000D03*
%TD*%
%TO.C,R1*%
X141800000Y-142810000D03*
X141800000Y-135190000D03*
%TD*%
D11*
%TO.C,J2*%
X104275000Y-144750000D03*
D12*
X104275000Y-142250000D03*
X104275000Y-139750000D03*
X104275000Y-137250000D03*
X104275000Y-134750000D03*
X104275000Y-132250000D03*
X104275000Y-129750000D03*
X104275000Y-127250000D03*
%TD*%
D13*
%TO.C,C4*%
X109500000Y-165500000D03*
X114500000Y-165500000D03*
%TD*%
D14*
%TO.C,U1*%
X111570000Y-103400000D03*
D15*
X111570000Y-105940000D03*
X111570000Y-108480000D03*
X111570000Y-111020000D03*
X111570000Y-113560000D03*
X111570000Y-116100000D03*
X111570000Y-118640000D03*
X111570000Y-121180000D03*
X111570000Y-123720000D03*
X111570000Y-126260000D03*
X111570000Y-128800000D03*
X111570000Y-131340000D03*
X111570000Y-133880000D03*
X111570000Y-136420000D03*
X111570000Y-138960000D03*
X111570000Y-141500000D03*
X111570000Y-144040000D03*
X111570000Y-146580000D03*
X111570000Y-149120000D03*
D14*
X133795000Y-103400000D03*
D15*
X133795000Y-105940000D03*
X133795000Y-108480000D03*
X133795000Y-111020000D03*
X133795000Y-113560000D03*
X133795000Y-116100000D03*
X133795000Y-118640000D03*
X133795000Y-121180000D03*
X133795000Y-123720000D03*
X133795000Y-126260000D03*
X133795000Y-128800000D03*
X133795000Y-131340000D03*
X133795000Y-133880000D03*
X133795000Y-136420000D03*
X133795000Y-138960000D03*
X133795000Y-141500000D03*
X133795000Y-144040000D03*
X133795000Y-146580000D03*
X133795000Y-149120000D03*
%TD*%
D10*
%TO.C,H1*%
X104000000Y-104000000D03*
%TD*%
D11*
%TO.C,J4*%
X141275000Y-159000000D03*
D12*
X141275000Y-156500000D03*
X141275000Y-154000000D03*
X141275000Y-151500000D03*
X141275000Y-149000000D03*
%TD*%
D10*
%TO.C,H2*%
X142000000Y-104000000D03*
%TD*%
D16*
%TO.C,J6*%
X120500000Y-170475000D03*
D17*
X123000000Y-170475000D03*
X125500000Y-170475000D03*
%TD*%
D14*
%TO.C,J3*%
X132000000Y-166725000D03*
D15*
X132000000Y-169265000D03*
%TD*%
%LPD*%
M02*
