%TF.GenerationSoftware,KiCad,Pcbnew,10.0.6*%
%TF.CreationDate,2026-09-28T20:35:20-04:00*%
%TF.ProjectId,Sigil_EInk,53696769-6c5f-4454-996e-6b2e6b696361,rev?*%
%TF.SameCoordinates,Original*%
%TF.FileFunction,Copper,L1,Top*%
%TF.FilePolarity,Positive*%
%FSLAX46Y46*%
G04 Gerber Fmt 4.6, Leading zero omitted, Abs format (unit mm)*
G04 Created by KiCad (PCBNEW 10.0.6) date 2026-09-28 20:35:20*
%MOMM*%
%LPD*%
G01*
G04 APERTURE LIST*
G04 Aperture macros list*
%AMRoundRect*
0 Rectangle with rounded corners*
0 $1 Rounding radius*
0 $2 $3 $4 $5 $6 $7 $8 $9 X,Y pos of 4 corners*
0 Add a 4 corners polygon primitive as box body*
4,1,4,$2,$3,$4,$5,$6,$7,$8,$9,$2,$3,0*
0 Add four circle primitives for the rounded corners*
1,1,$1+$1,$2,$3*
1,1,$1+$1,$4,$5*
1,1,$1+$1,$6,$7*
1,1,$1+$1,$8,$9*
0 Add four rect primitives between the rounded corners*
20,1,$1+$1,$2,$3,$4,$5,0*
20,1,$1+$1,$4,$5,$6,$7,0*
20,1,$1+$1,$6,$7,$8,$9,0*
20,1,$1+$1,$8,$9,$2,$3,0*%
G04 Aperture macros list end*
%TA.AperFunction,ComponentPad*%
%ADD10RoundRect,0.250000X0.725000X-0.600000X0.725000X0.600000X-0.725000X0.600000X-0.725000X-0.600000X0*%
%TD*%
%TA.AperFunction,ComponentPad*%
%ADD11O,1.950000X1.700000*%
%TD*%
%TA.AperFunction,ComponentPad*%
%ADD12C,1.600000*%
%TD*%
%TA.AperFunction,SMDPad,CuDef*%
%ADD13RoundRect,0.150000X-0.512500X-0.150000X0.512500X-0.150000X0.512500X0.150000X-0.512500X0.150000X0*%
%TD*%
%TA.AperFunction,ComponentPad*%
%ADD14R,1.700000X1.700000*%
%TD*%
%TA.AperFunction,ComponentPad*%
%ADD15C,1.700000*%
%TD*%
%TA.AperFunction,ComponentPad*%
%ADD16RoundRect,0.250000X-0.600000X-0.725000X0.600000X-0.725000X0.600000X0.725000X-0.600000X0.725000X0*%
%TD*%
%TA.AperFunction,ComponentPad*%
%ADD17O,1.700000X1.950000*%
%TD*%
%TA.AperFunction,ViaPad*%
%ADD18C,0.600000*%
%TD*%
%TA.AperFunction,Conductor*%
%ADD19C,0.200000*%
%TD*%
G04 APERTURE END LIST*
D10*
%TO.P,J5,1,+5V_1*%
%TO.N,/+5V*%
X141275000Y-116500000D03*
D11*
%TO.P,J5,2,DIN_2*%
%TO.N,/RING_DIN_R*%
X141275000Y-114000000D03*
%TO.P,J5,3,GND_3*%
%TO.N,/GND*%
X141275000Y-111500000D03*
%TD*%
D12*
%TO.P,C3,1,~_1*%
%TO.N,/+5V*%
X141800000Y-132000000D03*
%TO.P,C3,2,~_2*%
%TO.N,/GND*%
X141800000Y-127000000D03*
%TD*%
D13*
%TO.P,U3,1,OE#_1*%
%TO.N,/GND*%
X110862500Y-159137500D03*
%TO.P,U3,2,A_2*%
%TO.N,/FRONT_DIN*%
X110862500Y-160087500D03*
%TO.P,U3,3,GND_3*%
%TO.N,/GND*%
X110862500Y-161037500D03*
%TO.P,U3,4,Y_4*%
%TO.N,/FRONT_DIN_5V*%
X113137500Y-161037500D03*
%TO.P,U3,5,VCC_5*%
%TO.N,/+5V*%
X113137500Y-159137500D03*
%TD*%
D12*
%TO.P,C2,1,~_1*%
%TO.N,/+3V3*%
X104800000Y-154000000D03*
%TO.P,C2,2,~_2*%
%TO.N,/GND*%
X104800000Y-149000000D03*
%TD*%
%TO.P,R2,1,~_1*%
%TO.N,/FRONT_DIN_5V*%
X122190000Y-160000000D03*
%TO.P,R2,2,~_2*%
%TO.N,/FRONT_DIN_R*%
X129810000Y-160000000D03*
%TD*%
%TO.P,R1,1,~_1*%
%TO.N,/RING_DIN_5V*%
X141800000Y-142810000D03*
%TO.P,R1,2,~_2*%
%TO.N,/RING_DIN_R*%
X141800000Y-135190000D03*
%TD*%
D10*
%TO.P,J2,1*%
%TO.N,/EPD_MOSI*%
X104275000Y-144750000D03*
D11*
%TO.P,J2,2*%
%TO.N,/EPD_SCLK*%
X104275000Y-142250000D03*
%TO.P,J2,3*%
%TO.N,/EPD_CS*%
X104275000Y-139750000D03*
%TO.P,J2,4*%
%TO.N,/EPD_DC*%
X104275000Y-137250000D03*
%TO.P,J2,5*%
%TO.N,/EPD_RST*%
X104275000Y-134750000D03*
%TO.P,J2,6*%
%TO.N,/EPD_BUSY*%
X104275000Y-132250000D03*
%TO.P,J2,7*%
%TO.N,/+3V3*%
X104275000Y-129750000D03*
%TO.P,J2,8*%
%TO.N,/GND*%
X104275000Y-127250000D03*
%TD*%
D12*
%TO.P,C4,1,~_1*%
%TO.N,/+5V*%
X109500000Y-165500000D03*
%TO.P,C4,2,~_2*%
%TO.N,/GND*%
X114500000Y-165500000D03*
%TD*%
D14*
%TO.P,U1,A1*%
%TO.N,unconnected-(U1-CLK-PadA1)*%
X111570000Y-103400000D03*
D15*
%TO.P,U1,A2*%
%TO.N,unconnected-(U1-SD0-PadA2)*%
X111570000Y-105940000D03*
%TO.P,U1,A3*%
%TO.N,unconnected-(U1-SD1-PadA3)*%
X111570000Y-108480000D03*
%TO.P,U1,A4*%
%TO.N,unconnected-(U1-GPIO15-PadA4)*%
X111570000Y-111020000D03*
%TO.P,U1,A5*%
%TO.N,unconnected-(U1-GPIO2-PadA5)*%
X111570000Y-113560000D03*
%TO.P,U1,A6*%
%TO.N,unconnected-(U1-GPIO0-PadA6)*%
X111570000Y-116100000D03*
%TO.P,U1,A7*%
%TO.N,unconnected-(U1-GPIO4-PadA7)*%
X111570000Y-118640000D03*
%TO.P,U1,A8*%
%TO.N,/EPD_DC*%
X111570000Y-121180000D03*
%TO.P,U1,A9*%
%TO.N,/EPD_CS*%
X111570000Y-123720000D03*
%TO.P,U1,A10*%
%TO.N,unconnected-(U1-GPIO5-PadA10)*%
X111570000Y-126260000D03*
%TO.P,U1,A11*%
%TO.N,/EPD_SCLK*%
X111570000Y-128800000D03*
%TO.P,U1,A12*%
%TO.N,unconnected-(U1-GPIO19-PadA12)*%
X111570000Y-131340000D03*
%TO.P,U1,A13*%
%TO.N,/GND*%
X111570000Y-133880000D03*
%TO.P,U1,A14*%
%TO.N,/EPD_BUSY*%
X111570000Y-136420000D03*
%TO.P,U1,A15*%
%TO.N,unconnected-(U1-RXD0-PadA15)*%
X111570000Y-138960000D03*
%TO.P,U1,A16*%
%TO.N,unconnected-(U1-TXD0-PadA16)*%
X111570000Y-141500000D03*
%TO.P,U1,A17*%
%TO.N,/EPD_RST*%
X111570000Y-144040000D03*
%TO.P,U1,A18*%
%TO.N,/EPD_MOSI*%
X111570000Y-146580000D03*
%TO.P,U1,A19*%
%TO.N,/GND*%
X111570000Y-149120000D03*
D14*
%TO.P,U1,J1*%
%TO.N,/+5V*%
X133795000Y-103400000D03*
D15*
%TO.P,U1,J2*%
%TO.N,unconnected-(U1-CMD-PadJ2)*%
X133795000Y-105940000D03*
%TO.P,U1,J3*%
%TO.N,unconnected-(U1-SD3-PadJ3)*%
X133795000Y-108480000D03*
%TO.P,U1,J4*%
%TO.N,unconnected-(U1-SD2-PadJ4)*%
X133795000Y-111020000D03*
%TO.P,U1,J5*%
%TO.N,/FRONT_DIN*%
X133795000Y-113560000D03*
%TO.P,U1,J6*%
%TO.N,/GND*%
X133795000Y-116100000D03*
%TO.P,U1,J7*%
%TO.N,unconnected-(U1-GPIO12-PadJ7)*%
X133795000Y-118640000D03*
%TO.P,U1,J8*%
%TO.N,unconnected-(U1-GPIO14-PadJ8)*%
X133795000Y-121180000D03*
%TO.P,U1,J9*%
%TO.N,unconnected-(U1-GPIO27-PadJ9)*%
X133795000Y-123720000D03*
%TO.P,U1,J10*%
%TO.N,/RING_DIN*%
X133795000Y-126260000D03*
%TO.P,U1,J11*%
%TO.N,unconnected-(U1-GPIO25-PadJ11)*%
X133795000Y-128800000D03*
%TO.P,U1,J12*%
%TO.N,/BUZZER*%
X133795000Y-131340000D03*
%TO.P,U1,J13*%
%TO.N,/JOY_SW*%
X133795000Y-133880000D03*
%TO.P,U1,J14*%
%TO.N,/JOY_Y*%
X133795000Y-136420000D03*
%TO.P,U1,J15*%
%TO.N,/JOY_X*%
X133795000Y-138960000D03*
%TO.P,U1,J16*%
%TO.N,unconnected-(U1-SVN-PadJ16)*%
X133795000Y-141500000D03*
%TO.P,U1,J17*%
%TO.N,unconnected-(U1-SVP-PadJ17)*%
X133795000Y-144040000D03*
%TO.P,U1,J18*%
%TO.N,unconnected-(U1-EN-PadJ18)*%
X133795000Y-146580000D03*
%TO.P,U1,J19*%
%TO.N,/+3V3*%
X133795000Y-149120000D03*
%TD*%
D10*
%TO.P,J4,1*%
%TO.N,/GND*%
X141275000Y-159000000D03*
D11*
%TO.P,J4,2*%
%TO.N,/+3V3*%
X141275000Y-156500000D03*
%TO.P,J4,3*%
%TO.N,/JOY_X*%
X141275000Y-154000000D03*
%TO.P,J4,4*%
%TO.N,/JOY_Y*%
X141275000Y-151500000D03*
%TO.P,J4,5*%
%TO.N,/JOY_SW*%
X141275000Y-149000000D03*
%TD*%
D16*
%TO.P,J6,1,+5V_1*%
%TO.N,/+5V*%
X120500000Y-170475000D03*
D17*
%TO.P,J6,2,DIN_2*%
%TO.N,/FRONT_DIN_R*%
X123000000Y-170475000D03*
%TO.P,J6,3,GND_3*%
%TO.N,/GND*%
X125500000Y-170475000D03*
%TD*%
D14*
%TO.P,J3,1,SIG_1*%
%TO.N,/BUZZER*%
X132000000Y-166725000D03*
D15*
%TO.P,J3,2,GND_2*%
%TO.N,/GND*%
X132000000Y-169265000D03*
%TD*%
D13*
%TO.P,U2,1,OE#_1*%
%TO.N,/GND*%
X140662500Y-121637500D03*
%TO.P,U2,2,A_2*%
%TO.N,/RING_DIN*%
X140662500Y-122587500D03*
%TO.P,U2,3,GND_3*%
%TO.N,/GND*%
X140662500Y-123537500D03*
%TO.P,U2,4,Y_4*%
%TO.N,/RING_DIN_5V*%
X142937500Y-123537500D03*
%TO.P,U2,5,VCC_5*%
%TO.N,/+5V*%
X142937500Y-121637500D03*
%TD*%
D18*
%TO.N,/GND*%
X110862500Y-161846700D03*
%TO.N,/FRONT_DIN*%
X110759200Y-145310000D03*
%TO.N,/RING_DIN*%
X138668500Y-122936700D03*
%TD*%
%TO.N,/+5V*%
D19*
X142945100Y-130854900D02*
X141800000Y-132000000D01*
X141972700Y-123200100D02*
X141972700Y-124994300D01*
X142945100Y-125966700D02*
X142945100Y-130854900D01*
X109500000Y-165500000D02*
X112135000Y-162865000D01*
X142937500Y-118162500D02*
X142937500Y-121637500D01*
X112135000Y-162865000D02*
X112135000Y-160140000D01*
X112135000Y-160140000D02*
X113137500Y-159137500D01*
X141275000Y-116500000D02*
X142937500Y-118162500D01*
X142937500Y-122235300D02*
X141972700Y-123200100D01*
X142937500Y-121637500D02*
X142937500Y-122235300D01*
X141972700Y-124994300D02*
X142945100Y-125966700D01*
%TO.N,/RING_DIN_R*%
X141800000Y-135190000D02*
X138027800Y-131417800D01*
X138027800Y-131417800D02*
X138027800Y-117631500D01*
X138027800Y-117631500D02*
X140507600Y-115151700D01*
X141275000Y-114000000D02*
X141275000Y-115151700D01*
X140507600Y-115151700D02*
X141275000Y-115151700D01*
%TO.N,/GND*%
X141011700Y-121986700D02*
X140662500Y-121637500D01*
X110862500Y-161037500D02*
X110862500Y-161846700D01*
X141071200Y-123533600D02*
X141071200Y-123537500D01*
X141677000Y-121986700D02*
X141677000Y-122927800D01*
X141677000Y-121986700D02*
X141011700Y-121986700D01*
X141071200Y-123537500D02*
X141071200Y-126271200D01*
X110862500Y-149827500D02*
X110862500Y-159137500D01*
X140662500Y-123537500D02*
X141071200Y-123537500D01*
X111570000Y-149120000D02*
X110862500Y-149827500D01*
X141677000Y-122927800D02*
X141071200Y-123533600D01*
X141071200Y-126271200D02*
X141800000Y-127000000D01*
%TO.N,/FRONT_DIN*%
X110477200Y-160087500D02*
X109888400Y-159498700D01*
X109888400Y-159498700D02*
X109888400Y-146180800D01*
X110862500Y-160087500D02*
X110477200Y-160087500D01*
X109888400Y-146180800D02*
X110759200Y-145310000D01*
%TO.N,/FRONT_DIN_5V*%
X122190000Y-160000000D02*
X114175000Y-160000000D01*
X114175000Y-160000000D02*
X113137500Y-161037500D01*
%TO.N,/+3V3*%
X102962300Y-131782500D02*
X102962300Y-152162300D01*
X104275000Y-129750000D02*
X104275000Y-130901700D01*
X103843100Y-130901700D02*
X102962300Y-131782500D01*
X102962300Y-152162300D02*
X104800000Y-154000000D01*
X104275000Y-130901700D02*
X103843100Y-130901700D01*
%TO.N,/RING_DIN_5V*%
X141800000Y-142810000D02*
X143367200Y-141242800D01*
X143367200Y-123967200D02*
X142937500Y-123537500D01*
X143367200Y-141242800D02*
X143367200Y-123967200D01*
%TO.N,/EPD_CS*%
X106335000Y-137690000D02*
X105426700Y-138598300D01*
X112728700Y-136901600D02*
X111940300Y-137690000D01*
X111940300Y-137690000D02*
X106335000Y-137690000D01*
X105426700Y-138598300D02*
X104275000Y-138598300D01*
X111570000Y-123720000D02*
X112728700Y-124878700D01*
X104275000Y-139750000D02*
X104275000Y-138598300D01*
X112728700Y-124878700D02*
X112728700Y-136901600D01*
%TO.N,/RING_DIN*%
X138668500Y-122936700D02*
X140313300Y-122936700D01*
X140313300Y-122936700D02*
X140662500Y-122587500D01*
%TO.N,/BUZZER*%
X133794999Y-131340000D02*
X132570000Y-132565000D01*
X132570000Y-132565000D02*
X132570000Y-155500000D01*
X132570000Y-155500000D02*
X132000000Y-156070000D01*
X132000000Y-156070000D02*
X132000000Y-166725000D01*
%TO.N,/JOY_X*%
X140843100Y-152848300D02*
X135184800Y-147190000D01*
X141275000Y-154000000D02*
X141275000Y-152848300D01*
X135184800Y-147190000D02*
X135184800Y-140349800D01*
X135184800Y-140349800D02*
X133795000Y-138960000D01*
X141275000Y-152848300D02*
X140843100Y-152848300D01*
%TD*%
%TA.AperFunction,Conductor*%
%TO.N,/GND*%
G36*
X141523850Y-123150416D02*
G01*
X141564959Y-123206913D01*
X141572200Y-123248666D01*
X141572200Y-124941573D01*
X141572200Y-125047027D01*
X141581717Y-125082544D01*
X141599493Y-125148889D01*
X141601714Y-125152735D01*
X141652220Y-125240213D01*
X141652222Y-125240215D01*
X142508281Y-126096274D01*
X142541766Y-126157597D01*
X142544600Y-126183955D01*
X142544600Y-130637644D01*
X142524915Y-130704683D01*
X142508281Y-130725325D01*
X142299599Y-130934006D01*
X142238276Y-130967491D01*
X142173600Y-130964256D01*
X142057698Y-130926597D01*
X141926271Y-130905781D01*
X141886611Y-130899500D01*
X141713389Y-130899500D01*
X141673728Y-130905781D01*
X141542302Y-130926597D01*
X141377552Y-130980128D01*
X141223211Y-131058768D01*
X141149000Y-131112686D01*
X141083072Y-131160586D01*
X141083070Y-131160588D01*
X141083069Y-131160588D01*
X140960588Y-131283069D01*
X140960588Y-131283070D01*
X140960586Y-131283072D01*
X140916859Y-131343256D01*
X140858768Y-131423211D01*
X140780128Y-131577552D01*
X140726597Y-131742302D01*
X140704902Y-131879280D01*
X140699500Y-131913389D01*
X140699500Y-132086611D01*
X140726598Y-132257701D01*
X140780127Y-132422445D01*
X140858768Y-132576788D01*
X140960586Y-132716928D01*
X141083072Y-132839414D01*
X141223212Y-132941232D01*
X141377555Y-133019873D01*
X141542299Y-133073402D01*
X141713389Y-133100500D01*
X141713390Y-133100500D01*
X141886610Y-133100500D01*
X141886611Y-133100500D01*
X142057701Y-133073402D01*
X142222445Y-133019873D01*
X142376788Y-132941232D01*
X142516928Y-132839414D01*
X142639414Y-132716928D01*
X142741232Y-132576788D01*
X142741232Y-132576787D01*
X142742382Y-132575205D01*
X142797712Y-132532540D01*
X142867326Y-132526561D01*
X142929121Y-132559167D01*
X142963478Y-132620006D01*
X142966700Y-132648091D01*
X142966700Y-134541908D01*
X142947015Y-134608947D01*
X142894211Y-134654702D01*
X142825053Y-134664646D01*
X142761497Y-134635621D01*
X142742382Y-134614794D01*
X142688258Y-134540300D01*
X142639414Y-134473072D01*
X142516928Y-134350586D01*
X142376788Y-134248768D01*
X142222445Y-134170127D01*
X142057701Y-134116598D01*
X142057699Y-134116597D01*
X142057698Y-134116597D01*
X141926271Y-134095781D01*
X141886611Y-134089500D01*
X141713389Y-134089500D01*
X141681192Y-134094599D01*
X141542301Y-134116597D01*
X141542297Y-134116598D01*
X141426397Y-134154256D01*
X141356556Y-134156251D01*
X141300399Y-134124006D01*
X138464619Y-131288226D01*
X138431134Y-131226903D01*
X138428300Y-131200545D01*
X138428300Y-123655621D01*
X138447985Y-123588582D01*
X138500789Y-123542827D01*
X138569947Y-123532883D01*
X138584378Y-123535843D01*
X138589443Y-123537200D01*
X138589447Y-123537200D01*
X138747555Y-123537200D01*
X138747557Y-123537200D01*
X138900284Y-123496277D01*
X139037216Y-123417220D01*
X139080917Y-123373519D01*
X139142240Y-123340034D01*
X139168598Y-123337200D01*
X140366025Y-123337200D01*
X140366027Y-123337200D01*
X140467888Y-123309907D01*
X140559213Y-123257180D01*
X140592074Y-123224319D01*
X140653397Y-123190834D01*
X140679755Y-123188000D01*
X141229270Y-123188000D01*
X141259699Y-123185146D01*
X141259701Y-123185146D01*
X141302426Y-123170195D01*
X141387882Y-123140293D01*
X141387892Y-123140285D01*
X141390255Y-123139038D01*
X141393151Y-123138448D01*
X141396652Y-123137224D01*
X141396819Y-123137702D01*
X141458723Y-123125113D01*
X141523850Y-123150416D01*
G37*
%TD.AperFunction*%
%TA.AperFunction,Conductor*%
G36*
X139918834Y-116409372D02*
G01*
X139974767Y-116451244D01*
X139999184Y-116516708D01*
X139999500Y-116525554D01*
X139999500Y-117143102D01*
X140004331Y-117183328D01*
X140010122Y-117231561D01*
X140010122Y-117231563D01*
X140010123Y-117231564D01*
X140027306Y-117275137D01*
X140065639Y-117372343D01*
X140157077Y-117492922D01*
X140277656Y-117584360D01*
X140277657Y-117584360D01*
X140277658Y-117584361D01*
X140418436Y-117639877D01*
X140506898Y-117650500D01*
X141807745Y-117650500D01*
X141874784Y-117670185D01*
X141895426Y-117686819D01*
X142500681Y-118292074D01*
X142534166Y-118353397D01*
X142537000Y-118379755D01*
X142537000Y-120913000D01*
X142517315Y-120980039D01*
X142464511Y-121025794D01*
X142413000Y-121037000D01*
X142370730Y-121037000D01*
X142340300Y-121039853D01*
X142340298Y-121039853D01*
X142212119Y-121084706D01*
X142212117Y-121084707D01*
X142102850Y-121165350D01*
X142022207Y-121274617D01*
X142022206Y-121274619D01*
X141977353Y-121402798D01*
X141977353Y-121402800D01*
X141974500Y-121433230D01*
X141974500Y-121841769D01*
X141977353Y-121872199D01*
X141977353Y-121872201D01*
X142018523Y-121989854D01*
X142022207Y-122000382D01*
X142102850Y-122109650D01*
X142176483Y-122163993D01*
X142213554Y-122191353D01*
X142255804Y-122247001D01*
X142261263Y-122316657D01*
X142228195Y-122378206D01*
X142227601Y-122378804D01*
X141837181Y-122769225D01*
X141775858Y-122802710D01*
X141706167Y-122797726D01*
X141650233Y-122755855D01*
X141625816Y-122690390D01*
X141625500Y-122681544D01*
X141625500Y-122383230D01*
X141622646Y-122352800D01*
X141622646Y-122352798D01*
X141583076Y-122239717D01*
X141577793Y-122224618D01*
X141497150Y-122115350D01*
X141387882Y-122034707D01*
X141387880Y-122034706D01*
X141259700Y-121989853D01*
X141229270Y-121987000D01*
X141229266Y-121987000D01*
X140095734Y-121987000D01*
X140095730Y-121987000D01*
X140065300Y-121989853D01*
X140065298Y-121989853D01*
X139937119Y-122034706D01*
X139937117Y-122034707D01*
X139827850Y-122115350D01*
X139747207Y-122224617D01*
X139747206Y-122224619D01*
X139702353Y-122352798D01*
X139702353Y-122352800D01*
X139699500Y-122383230D01*
X139699500Y-122412200D01*
X139679815Y-122479239D01*
X139627011Y-122524994D01*
X139575500Y-122536200D01*
X139168598Y-122536200D01*
X139101559Y-122516515D01*
X139080917Y-122499881D01*
X139037217Y-122456181D01*
X139037209Y-122456175D01*
X138900290Y-122377126D01*
X138900286Y-122377124D01*
X138900284Y-122377123D01*
X138747557Y-122336200D01*
X138589443Y-122336200D01*
X138589441Y-122336200D01*
X138584389Y-122337554D01*
X138514539Y-122335889D01*
X138456678Y-122296724D01*
X138429176Y-122232494D01*
X138428300Y-122217778D01*
X138428300Y-117848754D01*
X138447985Y-117781715D01*
X138464619Y-117761073D01*
X139787819Y-116437873D01*
X139849142Y-116404388D01*
X139918834Y-116409372D01*
G37*
%TD.AperFunction*%
%TA.AperFunction,Conductor*%
G36*
X145442539Y-100020185D02*
G01*
X145488294Y-100072989D01*
X145499500Y-100124500D01*
X145499500Y-175375500D01*
X145479815Y-175442539D01*
X145427011Y-175488294D01*
X145375500Y-175499500D01*
X100624500Y-175499500D01*
X100557461Y-175479815D01*
X100511706Y-175427011D01*
X100500500Y-175375500D01*
X100500500Y-171878711D01*
X102149500Y-171878711D01*
X102149500Y-172121288D01*
X102181161Y-172361785D01*
X102243947Y-172596104D01*
X102336773Y-172820205D01*
X102336776Y-172820212D01*
X102458064Y-173030289D01*
X102458066Y-173030292D01*
X102458067Y-173030293D01*
X102605733Y-173222736D01*
X102605739Y-173222743D01*
X102777256Y-173394260D01*
X102777262Y-173394265D01*
X102969711Y-173541936D01*
X103179788Y-173663224D01*
X103403900Y-173756054D01*
X103638211Y-173818838D01*
X103818586Y-173842584D01*
X103878711Y-173850500D01*
X103878712Y-173850500D01*
X104121289Y-173850500D01*
X104169388Y-173844167D01*
X104361789Y-173818838D01*
X104596100Y-173756054D01*
X104820212Y-173663224D01*
X105030289Y-173541936D01*
X105222738Y-173394265D01*
X105394265Y-173222738D01*
X105541936Y-173030289D01*
X105663224Y-172820212D01*
X105756054Y-172596100D01*
X105818838Y-172361789D01*
X105850500Y-172121288D01*
X105850500Y-171878712D01*
X105850500Y-171878711D01*
X140149500Y-171878711D01*
X140149500Y-172121288D01*
X140181161Y-172361785D01*
X140243947Y-172596104D01*
X140336773Y-172820205D01*
X140336776Y-172820212D01*
X140458064Y-173030289D01*
X140458066Y-173030292D01*
X140458067Y-173030293D01*
X140605733Y-173222736D01*
X140605739Y-173222743D01*
X140777256Y-173394260D01*
X140777262Y-173394265D01*
X140969711Y-173541936D01*
X141179788Y-173663224D01*
X141403900Y-173756054D01*
X141638211Y-173818838D01*
X141818586Y-173842584D01*
X141878711Y-173850500D01*
X141878712Y-173850500D01*
X142121289Y-173850500D01*
X142169388Y-173844167D01*
X142361789Y-173818838D01*
X142596100Y-173756054D01*
X142820212Y-173663224D01*
X143030289Y-173541936D01*
X143222738Y-173394265D01*
X143394265Y-173222738D01*
X143541936Y-173030289D01*
X143663224Y-172820212D01*
X143756054Y-172596100D01*
X143818838Y-172361789D01*
X143850500Y-172121288D01*
X143850500Y-171878712D01*
X143818838Y-171638211D01*
X143756054Y-171403900D01*
X143663224Y-171179788D01*
X143541936Y-170969711D01*
X143477419Y-170885630D01*
X143394266Y-170777263D01*
X143394260Y-170777256D01*
X143222743Y-170605739D01*
X143222736Y-170605733D01*
X143030293Y-170458067D01*
X143030292Y-170458066D01*
X143030289Y-170458064D01*
X142820212Y-170336776D01*
X142820205Y-170336773D01*
X142596104Y-170243947D01*
X142361785Y-170181161D01*
X142121289Y-170149500D01*
X142121288Y-170149500D01*
X141878712Y-170149500D01*
X141878711Y-170149500D01*
X141638214Y-170181161D01*
X141403895Y-170243947D01*
X141179794Y-170336773D01*
X141179785Y-170336777D01*
X140969706Y-170458067D01*
X140777263Y-170605733D01*
X140777256Y-170605739D01*
X140605739Y-170777256D01*
X140605733Y-170777263D01*
X140458067Y-170969706D01*
X140336777Y-171179785D01*
X140336773Y-171179794D01*
X140243947Y-171403895D01*
X140181161Y-171638214D01*
X140149500Y-171878711D01*
X105850500Y-171878711D01*
X105818838Y-171638211D01*
X105756054Y-171403900D01*
X105663224Y-171179788D01*
X105541936Y-170969711D01*
X105477419Y-170885630D01*
X105394266Y-170777263D01*
X105394260Y-170777256D01*
X105222743Y-170605739D01*
X105222736Y-170605733D01*
X105030293Y-170458067D01*
X105030292Y-170458066D01*
X105030289Y-170458064D01*
X104820212Y-170336776D01*
X104820205Y-170336773D01*
X104596104Y-170243947D01*
X104361785Y-170181161D01*
X104121289Y-170149500D01*
X104121288Y-170149500D01*
X103878712Y-170149500D01*
X103878711Y-170149500D01*
X103638214Y-170181161D01*
X103403895Y-170243947D01*
X103179794Y-170336773D01*
X103179785Y-170336777D01*
X102969706Y-170458067D01*
X102777263Y-170605733D01*
X102777256Y-170605739D01*
X102605739Y-170777256D01*
X102605733Y-170777263D01*
X102458067Y-170969706D01*
X102336777Y-171179785D01*
X102336773Y-171179794D01*
X102243947Y-171403895D01*
X102181161Y-171638214D01*
X102149500Y-171878711D01*
X100500500Y-171878711D01*
X100500500Y-169706898D01*
X119349500Y-169706898D01*
X119349500Y-171243102D01*
X119355126Y-171289954D01*
X119360122Y-171331561D01*
X119360122Y-171331563D01*
X119360123Y-171331564D01*
X119377722Y-171376192D01*
X119415639Y-171472343D01*
X119507077Y-171592922D01*
X119627656Y-171684360D01*
X119627657Y-171684360D01*
X119627658Y-171684361D01*
X119768436Y-171739877D01*
X119856898Y-171750500D01*
X119856903Y-171750500D01*
X121143097Y-171750500D01*
X121143102Y-171750500D01*
X121231564Y-171739877D01*
X121372342Y-171684361D01*
X121492922Y-171592922D01*
X121584361Y-171472342D01*
X121639877Y-171331564D01*
X121650500Y-171243102D01*
X121650500Y-170952669D01*
X121670185Y-170885630D01*
X121722989Y-170839875D01*
X121792147Y-170829931D01*
X121855703Y-170858956D01*
X121892431Y-170914351D01*
X121933787Y-171041636D01*
X121933788Y-171041639D01*
X121989664Y-171151300D01*
X122004178Y-171179785D01*
X122016006Y-171202997D01*
X122122441Y-171349494D01*
X122122445Y-171349499D01*
X122250500Y-171477554D01*
X122250505Y-171477558D01*
X122378287Y-171570396D01*
X122397006Y-171583996D01*
X122502484Y-171637740D01*
X122558360Y-171666211D01*
X122558363Y-171666212D01*
X122644476Y-171694191D01*
X122730591Y-171722171D01*
X122813429Y-171735291D01*
X122909449Y-171750500D01*
X122909454Y-171750500D01*
X123090551Y-171750500D01*
X123177259Y-171736765D01*
X123269409Y-171722171D01*
X123441639Y-171666211D01*
X123602994Y-171583996D01*
X123749501Y-171477553D01*
X123877553Y-171349501D01*
X123983996Y-171202994D01*
X124066211Y-171041639D01*
X124122171Y-170869409D01*
X124136767Y-170777256D01*
X124150500Y-170690551D01*
X124150500Y-170259448D01*
X124126608Y-170108608D01*
X124122171Y-170080591D01*
X124066211Y-169908361D01*
X124066211Y-169908360D01*
X124037740Y-169852484D01*
X123983996Y-169747006D01*
X123954856Y-169706898D01*
X123877558Y-169600505D01*
X123877554Y-169600500D01*
X123749499Y-169472445D01*
X123749494Y-169472441D01*
X123602997Y-169366006D01*
X123602996Y-169366005D01*
X123602994Y-169366004D01*
X123551300Y-169339664D01*
X123441639Y-169283788D01*
X123441636Y-169283787D01*
X123269410Y-169227829D01*
X123090551Y-169199500D01*
X123090546Y-169199500D01*
X122909454Y-169199500D01*
X122909449Y-169199500D01*
X122730589Y-169227829D01*
X122558363Y-169283787D01*
X122558360Y-169283788D01*
X122397002Y-169366006D01*
X122250505Y-169472441D01*
X122250500Y-169472445D01*
X122122445Y-169600500D01*
X122122441Y-169600505D01*
X122016006Y-169747002D01*
X121933788Y-169908360D01*
X121933787Y-169908363D01*
X121892431Y-170035648D01*
X121852994Y-170093323D01*
X121788635Y-170120522D01*
X121719789Y-170108608D01*
X121668313Y-170061364D01*
X121650500Y-169997330D01*
X121650500Y-169706903D01*
X121650500Y-169706898D01*
X121639877Y-169618436D01*
X121584361Y-169477658D01*
X121584360Y-169477657D01*
X121584360Y-169477656D01*
X121492922Y-169357077D01*
X121372343Y-169265639D01*
X121231561Y-169210122D01*
X121185926Y-169204642D01*
X121143102Y-169199500D01*
X119856898Y-169199500D01*
X119817853Y-169204188D01*
X119768438Y-169210122D01*
X119627656Y-169265639D01*
X119507077Y-169357077D01*
X119415639Y-169477656D01*
X119360122Y-169618438D01*
X119354188Y-169667853D01*
X119349500Y-169706898D01*
X100500500Y-169706898D01*
X100500500Y-131729771D01*
X102561800Y-131729771D01*
X102561800Y-152215026D01*
X102589093Y-152316889D01*
X102615456Y-152362550D01*
X102641820Y-152408213D01*
X102641822Y-152408215D01*
X103734006Y-153500399D01*
X103767491Y-153561722D01*
X103764256Y-153626397D01*
X103726598Y-153742297D01*
X103726597Y-153742301D01*
X103700124Y-153909448D01*
X103699500Y-153913389D01*
X103699500Y-154086611D01*
X103726598Y-154257701D01*
X103780127Y-154422445D01*
X103858768Y-154576788D01*
X103960586Y-154716928D01*
X104083072Y-154839414D01*
X104223212Y-154941232D01*
X104377555Y-155019873D01*
X104542299Y-155073402D01*
X104713389Y-155100500D01*
X104713390Y-155100500D01*
X104886610Y-155100500D01*
X104886611Y-155100500D01*
X105057701Y-155073402D01*
X105222445Y-155019873D01*
X105376788Y-154941232D01*
X105516928Y-154839414D01*
X105639414Y-154716928D01*
X105741232Y-154576788D01*
X105819873Y-154422445D01*
X105873402Y-154257701D01*
X105900500Y-154086611D01*
X105900500Y-153913389D01*
X105873402Y-153742299D01*
X105819873Y-153577555D01*
X105741232Y-153423212D01*
X105639414Y-153283072D01*
X105516928Y-153160586D01*
X105376788Y-153058768D01*
X105222445Y-152980127D01*
X105057701Y-152926598D01*
X105057699Y-152926597D01*
X105057698Y-152926597D01*
X104926271Y-152905781D01*
X104886611Y-152899500D01*
X104713389Y-152899500D01*
X104681192Y-152904599D01*
X104542301Y-152926597D01*
X104542297Y-152926598D01*
X104426397Y-152964256D01*
X104356556Y-152966251D01*
X104300399Y-152934006D01*
X103399119Y-152032726D01*
X103365634Y-151971403D01*
X103362800Y-151945045D01*
X103362800Y-146022977D01*
X103382485Y-145955938D01*
X103435289Y-145910183D01*
X103501585Y-145899862D01*
X103506898Y-145900500D01*
X105043097Y-145900500D01*
X105043102Y-145900500D01*
X105131564Y-145889877D01*
X105272342Y-145834361D01*
X105392922Y-145742922D01*
X105484361Y-145622342D01*
X105539877Y-145481564D01*
X105550500Y-145393102D01*
X105550500Y-144106898D01*
X105539877Y-144018436D01*
X105484361Y-143877658D01*
X105484360Y-143877657D01*
X105484360Y-143877656D01*
X105392922Y-143757077D01*
X105272343Y-143665639D01*
X105131561Y-143610122D01*
X105085926Y-143604642D01*
X105043102Y-143599500D01*
X104752669Y-143599500D01*
X104685630Y-143579815D01*
X104639875Y-143527011D01*
X104629931Y-143457853D01*
X104658956Y-143394297D01*
X104714351Y-143357569D01*
X104841636Y-143316212D01*
X104841639Y-143316211D01*
X105002994Y-143233996D01*
X105149501Y-143127553D01*
X105277553Y-142999501D01*
X105383996Y-142852994D01*
X105466211Y-142691639D01*
X105522171Y-142519409D01*
X105546311Y-142366995D01*
X105550500Y-142340551D01*
X105550500Y-142159448D01*
X105534019Y-142055397D01*
X105522171Y-141980591D01*
X105466211Y-141808361D01*
X105466211Y-141808360D01*
X105415838Y-141709500D01*
X105383996Y-141647006D01*
X105342976Y-141590546D01*
X105277558Y-141500505D01*
X105277554Y-141500500D01*
X105149499Y-141372445D01*
X105149494Y-141372441D01*
X105002997Y-141266006D01*
X105002996Y-141266005D01*
X105002994Y-141266004D01*
X104933489Y-141230589D01*
X104841639Y-141183788D01*
X104841636Y-141183787D01*
X104669410Y-141127829D01*
X104635594Y-141122473D01*
X104572459Y-141092544D01*
X104535528Y-141033232D01*
X104536526Y-140963370D01*
X104575136Y-140905137D01*
X104635594Y-140877527D01*
X104643388Y-140876292D01*
X104669409Y-140872171D01*
X104841639Y-140816211D01*
X105002994Y-140733996D01*
X105149501Y-140627553D01*
X105277553Y-140499501D01*
X105383996Y-140352994D01*
X105466211Y-140191639D01*
X105522171Y-140019409D01*
X105538924Y-139913632D01*
X105550500Y-139840551D01*
X105550500Y-139659448D01*
X105525131Y-139499281D01*
X105522171Y-139480591D01*
X105466211Y-139308361D01*
X105466206Y-139308350D01*
X105398535Y-139175539D01*
X105385638Y-139106870D01*
X105411914Y-139042130D01*
X105469020Y-139001872D01*
X105476927Y-138999469D01*
X105479424Y-138998800D01*
X105479427Y-138998800D01*
X105581288Y-138971507D01*
X105672613Y-138918780D01*
X106464574Y-138126819D01*
X106525897Y-138093334D01*
X106552255Y-138090500D01*
X110536267Y-138090500D01*
X110603306Y-138110185D01*
X110649061Y-138162989D01*
X110659005Y-138232147D01*
X110636586Y-138287385D01*
X110586003Y-138357006D01*
X110503788Y-138518360D01*
X110503787Y-138518363D01*
X110447829Y-138690589D01*
X110419500Y-138869448D01*
X110419500Y-139050551D01*
X110447829Y-139229410D01*
X110503787Y-139401636D01*
X110503788Y-139401639D01*
X110586006Y-139562997D01*
X110692441Y-139709494D01*
X110692445Y-139709499D01*
X110820500Y-139837554D01*
X110820505Y-139837558D01*
X110948287Y-139930396D01*
X110967006Y-139943996D01*
X111072484Y-139997740D01*
X111128360Y-140026211D01*
X111128363Y-140026212D01*
X111214476Y-140054191D01*
X111300591Y-140082171D01*
X111373639Y-140093740D01*
X111460678Y-140107527D01*
X111523813Y-140137456D01*
X111560744Y-140196768D01*
X111559746Y-140266631D01*
X111521136Y-140324863D01*
X111460678Y-140352473D01*
X111300589Y-140377829D01*
X111128363Y-140433787D01*
X111128360Y-140433788D01*
X110967002Y-140516006D01*
X110820505Y-140622441D01*
X110820500Y-140622445D01*
X110692445Y-140750500D01*
X110692441Y-140750505D01*
X110586006Y-140897002D01*
X110503788Y-141058360D01*
X110503787Y-141058363D01*
X110447829Y-141230589D01*
X110419500Y-141409448D01*
X110419500Y-141590551D01*
X110447829Y-141769410D01*
X110503787Y-141941636D01*
X110503788Y-141941639D01*
X110523636Y-141980591D01*
X110580948Y-142093072D01*
X110586006Y-142102997D01*
X110692441Y-142249494D01*
X110692445Y-142249499D01*
X110820500Y-142377554D01*
X110820505Y-142377558D01*
X110948287Y-142470396D01*
X110967006Y-142483996D01*
X111072484Y-142537740D01*
X111128360Y-142566211D01*
X111128363Y-142566212D01*
X111214476Y-142594191D01*
X111300591Y-142622171D01*
X111373639Y-142633740D01*
X111460678Y-142647527D01*
X111523813Y-142677456D01*
X111560744Y-142736768D01*
X111559746Y-142806631D01*
X111521136Y-142864863D01*
X111460678Y-142892473D01*
X111300589Y-142917829D01*
X111128363Y-142973787D01*
X111128360Y-142973788D01*
X110967002Y-143056006D01*
X110820505Y-143162441D01*
X110820500Y-143162445D01*
X110692445Y-143290500D01*
X110692441Y-143290505D01*
X110586006Y-143437002D01*
X110503788Y-143598360D01*
X110503787Y-143598363D01*
X110447829Y-143770589D01*
X110419500Y-143949448D01*
X110419500Y-144130551D01*
X110447829Y-144309410D01*
X110503787Y-144481636D01*
X110503788Y-144481639D01*
X110561560Y-144595020D01*
X110574456Y-144663689D01*
X110548180Y-144728429D01*
X110513075Y-144758702D01*
X110390487Y-144829477D01*
X110390482Y-144829481D01*
X110278681Y-144941282D01*
X110278675Y-144941290D01*
X110199626Y-145078209D01*
X110199623Y-145078216D01*
X110158700Y-145230943D01*
X110158700Y-145292745D01*
X110139015Y-145359784D01*
X110122381Y-145380426D01*
X109567922Y-145934884D01*
X109567918Y-145934890D01*
X109515192Y-146026212D01*
X109515193Y-146026213D01*
X109487900Y-146128073D01*
X109487900Y-159551426D01*
X109515193Y-159653289D01*
X109530338Y-159679520D01*
X109567920Y-159744613D01*
X109567922Y-159744615D01*
X109863181Y-160039874D01*
X109896666Y-160101197D01*
X109899500Y-160127555D01*
X109899500Y-160291769D01*
X109902353Y-160322199D01*
X109902353Y-160322201D01*
X109947206Y-160450380D01*
X109947207Y-160450382D01*
X110027850Y-160559650D01*
X110137118Y-160640293D01*
X110179845Y-160655244D01*
X110265299Y-160685146D01*
X110295730Y-160688000D01*
X110295734Y-160688000D01*
X111429270Y-160688000D01*
X111453612Y-160685716D01*
X111459699Y-160685146D01*
X111569546Y-160646708D01*
X111639323Y-160643146D01*
X111699951Y-160677875D01*
X111732178Y-160739868D01*
X111734500Y-160763750D01*
X111734500Y-162647744D01*
X111714815Y-162714783D01*
X111698181Y-162735425D01*
X109999599Y-164434006D01*
X109938276Y-164467491D01*
X109873600Y-164464256D01*
X109757698Y-164426597D01*
X109626271Y-164405781D01*
X109586611Y-164399500D01*
X109413389Y-164399500D01*
X109373728Y-164405781D01*
X109242302Y-164426597D01*
X109077552Y-164480128D01*
X108923211Y-164558768D01*
X108843256Y-164616859D01*
X108783072Y-164660586D01*
X108783070Y-164660588D01*
X108783069Y-164660588D01*
X108660588Y-164783069D01*
X108660588Y-164783070D01*
X108660586Y-164783072D01*
X108616859Y-164843256D01*
X108558768Y-164923211D01*
X108480128Y-165077552D01*
X108480127Y-165077554D01*
X108480127Y-165077555D01*
X108453362Y-165159927D01*
X108426597Y-165242302D01*
X108426597Y-165242304D01*
X108399500Y-165413389D01*
X108399500Y-165586611D01*
X108426598Y-165757701D01*
X108480127Y-165922445D01*
X108558768Y-166076788D01*
X108660586Y-166216928D01*
X108783072Y-166339414D01*
X108923212Y-166441232D01*
X109077555Y-166519873D01*
X109242299Y-166573402D01*
X109413389Y-166600500D01*
X109413390Y-166600500D01*
X109586610Y-166600500D01*
X109586611Y-166600500D01*
X109757701Y-166573402D01*
X109922445Y-166519873D01*
X110076788Y-166441232D01*
X110216928Y-166339414D01*
X110339414Y-166216928D01*
X110441232Y-166076788D01*
X110519873Y-165922445D01*
X110573402Y-165757701D01*
X110600500Y-165586611D01*
X110600500Y-165413389D01*
X110573402Y-165242299D01*
X110535741Y-165126393D01*
X110533747Y-165056558D01*
X110565990Y-165000401D01*
X112370703Y-163195687D01*
X112370708Y-163195684D01*
X112380911Y-163185480D01*
X112380913Y-163185480D01*
X112455480Y-163110913D01*
X112508207Y-163019587D01*
X112535501Y-162917727D01*
X112535501Y-162812273D01*
X112535501Y-162804678D01*
X112535500Y-162804660D01*
X112535500Y-161762000D01*
X112555185Y-161694961D01*
X112607989Y-161649206D01*
X112659500Y-161638000D01*
X113704270Y-161638000D01*
X113734699Y-161635146D01*
X113734701Y-161635146D01*
X113798790Y-161612719D01*
X113862882Y-161590293D01*
X113972150Y-161509650D01*
X114052793Y-161400382D01*
X114075219Y-161336290D01*
X114097646Y-161272201D01*
X114097646Y-161272199D01*
X114100500Y-161241769D01*
X114100500Y-160833230D01*
X114097646Y-160802802D01*
X114082150Y-160758515D01*
X114078589Y-160688737D01*
X114111509Y-160629882D01*
X114304573Y-160436819D01*
X114365896Y-160403334D01*
X114392254Y-160400500D01*
X121082958Y-160400500D01*
X121149997Y-160420185D01*
X121193443Y-160468206D01*
X121248766Y-160576786D01*
X121279357Y-160618890D01*
X121350586Y-160716928D01*
X121473072Y-160839414D01*
X121613212Y-160941232D01*
X121767555Y-161019873D01*
X121932299Y-161073402D01*
X122103389Y-161100500D01*
X122103390Y-161100500D01*
X122276610Y-161100500D01*
X122276611Y-161100500D01*
X122447701Y-161073402D01*
X122612445Y-161019873D01*
X122766788Y-160941232D01*
X122906928Y-160839414D01*
X123029414Y-160716928D01*
X123131232Y-160576788D01*
X123209873Y-160422445D01*
X123263402Y-160257701D01*
X123290500Y-160086611D01*
X123290500Y-159913389D01*
X128709500Y-159913389D01*
X128709500Y-160086611D01*
X128736598Y-160257701D01*
X128790127Y-160422445D01*
X128868768Y-160576788D01*
X128970586Y-160716928D01*
X129093072Y-160839414D01*
X129233212Y-160941232D01*
X129387555Y-161019873D01*
X129552299Y-161073402D01*
X129723389Y-161100500D01*
X129723390Y-161100500D01*
X129896610Y-161100500D01*
X129896611Y-161100500D01*
X130067701Y-161073402D01*
X130232445Y-161019873D01*
X130386788Y-160941232D01*
X130526928Y-160839414D01*
X130649414Y-160716928D01*
X130751232Y-160576788D01*
X130829873Y-160422445D01*
X130883402Y-160257701D01*
X130910500Y-160086611D01*
X130910500Y-159913389D01*
X130883402Y-159742299D01*
X130829873Y-159577555D01*
X130751232Y-159423212D01*
X130649414Y-159283072D01*
X130526928Y-159160586D01*
X130386788Y-159058768D01*
X130232445Y-158980127D01*
X130067701Y-158926598D01*
X130067699Y-158926597D01*
X130067698Y-158926597D01*
X129936271Y-158905781D01*
X129896611Y-158899500D01*
X129723389Y-158899500D01*
X129683728Y-158905781D01*
X129552302Y-158926597D01*
X129387552Y-158980128D01*
X129233211Y-159058768D01*
X129153256Y-159116859D01*
X129093072Y-159160586D01*
X129093070Y-159160588D01*
X129093069Y-159160588D01*
X128970588Y-159283069D01*
X128970588Y-159283070D01*
X128970586Y-159283072D01*
X128952618Y-159307803D01*
X128868768Y-159423211D01*
X128790128Y-159577552D01*
X128736597Y-159742302D01*
X128719096Y-159852801D01*
X128709500Y-159913389D01*
X123290500Y-159913389D01*
X123263402Y-159742299D01*
X123209873Y-159577555D01*
X123131232Y-159423212D01*
X123029414Y-159283072D01*
X122906928Y-159160586D01*
X122766788Y-159058768D01*
X122612445Y-158980127D01*
X122447701Y-158926598D01*
X122447699Y-158926597D01*
X122447698Y-158926597D01*
X122316271Y-158905781D01*
X122276611Y-158899500D01*
X122103389Y-158899500D01*
X122063728Y-158905781D01*
X121932302Y-158926597D01*
X121767552Y-158980128D01*
X121613211Y-159058768D01*
X121533256Y-159116859D01*
X121473072Y-159160586D01*
X121473070Y-159160588D01*
X121473069Y-159160588D01*
X121350588Y-159283069D01*
X121350588Y-159283070D01*
X121350586Y-159283072D01*
X121332618Y-159307803D01*
X121248766Y-159423213D01*
X121193443Y-159531794D01*
X121145469Y-159582591D01*
X121082958Y-159599500D01*
X114235339Y-159599500D01*
X114235323Y-159599499D01*
X114227727Y-159599499D01*
X114192872Y-159599499D01*
X114125833Y-159579814D01*
X114080078Y-159527010D01*
X114070134Y-159457852D01*
X114075831Y-159434544D01*
X114097646Y-159372201D01*
X114097646Y-159372199D01*
X114100500Y-159341769D01*
X114100500Y-158933230D01*
X114097646Y-158902800D01*
X114097646Y-158902798D01*
X114052793Y-158774619D01*
X114052792Y-158774617D01*
X113972150Y-158665350D01*
X113862882Y-158584707D01*
X113862880Y-158584706D01*
X113734700Y-158539853D01*
X113704270Y-158537000D01*
X113704266Y-158537000D01*
X112570734Y-158537000D01*
X112570730Y-158537000D01*
X112540300Y-158539853D01*
X112540298Y-158539853D01*
X112412119Y-158584706D01*
X112412117Y-158584707D01*
X112302850Y-158665350D01*
X112222207Y-158774617D01*
X112222206Y-158774619D01*
X112177353Y-158902798D01*
X112177353Y-158902800D01*
X112174500Y-158933230D01*
X112174500Y-159341769D01*
X112177353Y-159372194D01*
X112177353Y-159372198D01*
X112192849Y-159416482D01*
X112196410Y-159486261D01*
X112163488Y-159545117D01*
X111967238Y-159741367D01*
X111905915Y-159774852D01*
X111836223Y-159769868D01*
X111780290Y-159727996D01*
X111779787Y-159727320D01*
X111744509Y-159679520D01*
X111697150Y-159615350D01*
X111587882Y-159534707D01*
X111587880Y-159534706D01*
X111459700Y-159489853D01*
X111429270Y-159487000D01*
X111429266Y-159487000D01*
X110494455Y-159487000D01*
X110427416Y-159467315D01*
X110406774Y-159450681D01*
X110325219Y-159369126D01*
X110291734Y-159307803D01*
X110288900Y-159281445D01*
X110288900Y-147116393D01*
X110308585Y-147049354D01*
X110361389Y-147003599D01*
X110430547Y-146993655D01*
X110494103Y-147022680D01*
X110523385Y-147060098D01*
X110586006Y-147182997D01*
X110692441Y-147329494D01*
X110692445Y-147329499D01*
X110820500Y-147457554D01*
X110820505Y-147457558D01*
X110948287Y-147550396D01*
X110967006Y-147563996D01*
X111072484Y-147617740D01*
X111128360Y-147646211D01*
X111128363Y-147646212D01*
X111214476Y-147674191D01*
X111300591Y-147702171D01*
X111383429Y-147715291D01*
X111479449Y-147730500D01*
X111479454Y-147730500D01*
X111660551Y-147730500D01*
X111747259Y-147716765D01*
X111839409Y-147702171D01*
X112011639Y-147646211D01*
X112043455Y-147630000D01*
X113155000Y-147630000D01*
X113155000Y-153980000D01*
X132045500Y-153980000D01*
X132112539Y-153999685D01*
X132158294Y-154052489D01*
X132169500Y-154104000D01*
X132169500Y-155282745D01*
X132149815Y-155349784D01*
X132133181Y-155370426D01*
X131679522Y-155824084D01*
X131679518Y-155824090D01*
X131626792Y-155915412D01*
X131626793Y-155915413D01*
X131599500Y-156017273D01*
X131599500Y-165450500D01*
X131579815Y-165517539D01*
X131527011Y-165563294D01*
X131475500Y-165574500D01*
X131105143Y-165574500D01*
X131105117Y-165574502D01*
X131080012Y-165577413D01*
X131080008Y-165577415D01*
X130977235Y-165622793D01*
X130897794Y-165702234D01*
X130852415Y-165805006D01*
X130852415Y-165805008D01*
X130849500Y-165830131D01*
X130849500Y-167619856D01*
X130849502Y-167619882D01*
X130852413Y-167644987D01*
X130852415Y-167644991D01*
X130897793Y-167747764D01*
X130897794Y-167747765D01*
X130977235Y-167827206D01*
X131080009Y-167872585D01*
X131105135Y-167875500D01*
X132894864Y-167875499D01*
X132894879Y-167875497D01*
X132894882Y-167875497D01*
X132919987Y-167872586D01*
X132919988Y-167872585D01*
X132919991Y-167872585D01*
X133022765Y-167827206D01*
X133102206Y-167747765D01*
X133147585Y-167644991D01*
X133150500Y-167619865D01*
X133150499Y-165830136D01*
X133150497Y-165830117D01*
X133147586Y-165805012D01*
X133147585Y-165805010D01*
X133147585Y-165805009D01*
X133102206Y-165702235D01*
X133022765Y-165622794D01*
X133022763Y-165622793D01*
X132919992Y-165577415D01*
X132894868Y-165574500D01*
X132894865Y-165574500D01*
X132524500Y-165574500D01*
X132457461Y-165554815D01*
X132411706Y-165502011D01*
X132400500Y-165450500D01*
X132400500Y-156287253D01*
X132420185Y-156220214D01*
X132436815Y-156199576D01*
X132805703Y-155830687D01*
X132805708Y-155830684D01*
X132815911Y-155820480D01*
X132815913Y-155820480D01*
X132890480Y-155745913D01*
X132943207Y-155654587D01*
X132951819Y-155622447D01*
X132970501Y-155552727D01*
X132970501Y-155447273D01*
X132970501Y-155439678D01*
X132970500Y-155439660D01*
X132970500Y-150186426D01*
X132990185Y-150119387D01*
X133042989Y-150073632D01*
X133112147Y-150063688D01*
X133167387Y-150086109D01*
X133192004Y-150103995D01*
X133353360Y-150186211D01*
X133353363Y-150186212D01*
X133436949Y-150213370D01*
X133525591Y-150242171D01*
X133608429Y-150255291D01*
X133704449Y-150270500D01*
X133704454Y-150270500D01*
X133885551Y-150270500D01*
X133972259Y-150256765D01*
X134064409Y-150242171D01*
X134236639Y-150186211D01*
X134397994Y-150103996D01*
X134544501Y-149997553D01*
X134672553Y-149869501D01*
X134778996Y-149722994D01*
X134861211Y-149561639D01*
X134917171Y-149389409D01*
X134936177Y-149269409D01*
X134945500Y-149210551D01*
X134945500Y-149029448D01*
X134926493Y-148909448D01*
X134917171Y-148850591D01*
X134861211Y-148678361D01*
X134861211Y-148678360D01*
X134832740Y-148622484D01*
X134778996Y-148517006D01*
X134765396Y-148498287D01*
X134672558Y-148370505D01*
X134672554Y-148370500D01*
X134544499Y-148242445D01*
X134544494Y-148242441D01*
X134397997Y-148136006D01*
X134397996Y-148136005D01*
X134397994Y-148136004D01*
X134346300Y-148109664D01*
X134236639Y-148053788D01*
X134236636Y-148053787D01*
X134064410Y-147997829D01*
X133904321Y-147972473D01*
X133841186Y-147942544D01*
X133804255Y-147883232D01*
X133805253Y-147813370D01*
X133843863Y-147755137D01*
X133904321Y-147727527D01*
X133974425Y-147716422D01*
X134064409Y-147702171D01*
X134236639Y-147646211D01*
X134397994Y-147563996D01*
X134544501Y-147457553D01*
X134640913Y-147361140D01*
X134702232Y-147327658D01*
X134771924Y-147332642D01*
X134827858Y-147374513D01*
X134835974Y-147386818D01*
X134864320Y-147435913D01*
X134864321Y-147435914D01*
X134864322Y-147435915D01*
X140387995Y-152959588D01*
X140421480Y-153020911D01*
X140416496Y-153090603D01*
X140387996Y-153134950D01*
X140272440Y-153250506D01*
X140166006Y-153397002D01*
X140083788Y-153558360D01*
X140083787Y-153558363D01*
X140027829Y-153730589D01*
X139999500Y-153909448D01*
X139999500Y-154090551D01*
X140027829Y-154269410D01*
X140083787Y-154441636D01*
X140083788Y-154441639D01*
X140139664Y-154551300D01*
X140152651Y-154576788D01*
X140166006Y-154602997D01*
X140272441Y-154749494D01*
X140272445Y-154749499D01*
X140400500Y-154877554D01*
X140400505Y-154877558D01*
X140488146Y-154941232D01*
X140547006Y-154983996D01*
X140652484Y-155037740D01*
X140708360Y-155066211D01*
X140708363Y-155066212D01*
X140794476Y-155094191D01*
X140880591Y-155122171D01*
X140905291Y-155126083D01*
X140914406Y-155127527D01*
X140977540Y-155157457D01*
X141014471Y-155216768D01*
X141013473Y-155286631D01*
X140974863Y-155344863D01*
X140914406Y-155372473D01*
X140880589Y-155377829D01*
X140708363Y-155433787D01*
X140708360Y-155433788D01*
X140547002Y-155516006D01*
X140400505Y-155622441D01*
X140400500Y-155622445D01*
X140272445Y-155750500D01*
X140272441Y-155750505D01*
X140166006Y-155897002D01*
X140083788Y-156058360D01*
X140083787Y-156058363D01*
X140027829Y-156230589D01*
X139999500Y-156409448D01*
X139999500Y-156590551D01*
X140027829Y-156769410D01*
X140083787Y-156941636D01*
X140083788Y-156941639D01*
X140166006Y-157102997D01*
X140272441Y-157249494D01*
X140272445Y-157249499D01*
X140400500Y-157377554D01*
X140400505Y-157377558D01*
X140528287Y-157470396D01*
X140547006Y-157483996D01*
X140652484Y-157537740D01*
X140708360Y-157566211D01*
X140708363Y-157566212D01*
X140794476Y-157594191D01*
X140880591Y-157622171D01*
X140963429Y-157635291D01*
X141059449Y-157650500D01*
X141059454Y-157650500D01*
X141490551Y-157650500D01*
X141577259Y-157636765D01*
X141669409Y-157622171D01*
X141841639Y-157566211D01*
X142002994Y-157483996D01*
X142149501Y-157377553D01*
X142277553Y-157249501D01*
X142383996Y-157102994D01*
X142466211Y-156941639D01*
X142522171Y-156769409D01*
X142536765Y-156677259D01*
X142550500Y-156590551D01*
X142550500Y-156409448D01*
X142531145Y-156287253D01*
X142522171Y-156230591D01*
X142466211Y-156058361D01*
X142466211Y-156058360D01*
X142437740Y-156002484D01*
X142383996Y-155897006D01*
X142370396Y-155878287D01*
X142277558Y-155750505D01*
X142277554Y-155750500D01*
X142149499Y-155622445D01*
X142149494Y-155622441D01*
X142002997Y-155516006D01*
X142002996Y-155516005D01*
X142002994Y-155516004D01*
X141951300Y-155489664D01*
X141841639Y-155433788D01*
X141841636Y-155433787D01*
X141669410Y-155377829D01*
X141635594Y-155372473D01*
X141572459Y-155342544D01*
X141535528Y-155283232D01*
X141536526Y-155213370D01*
X141575136Y-155155137D01*
X141635594Y-155127527D01*
X141643388Y-155126292D01*
X141669409Y-155122171D01*
X141841639Y-155066211D01*
X142002994Y-154983996D01*
X142149501Y-154877553D01*
X142277553Y-154749501D01*
X142383996Y-154602994D01*
X142466211Y-154441639D01*
X142522171Y-154269409D01*
X142536765Y-154177259D01*
X142550500Y-154090551D01*
X142550500Y-153909448D01*
X142534019Y-153805397D01*
X142522171Y-153730591D01*
X142488317Y-153626397D01*
X142466212Y-153558363D01*
X142466211Y-153558360D01*
X142436678Y-153500399D01*
X142383996Y-153397006D01*
X142301219Y-153283072D01*
X142277558Y-153250505D01*
X142277554Y-153250500D01*
X142149499Y-153122445D01*
X142149494Y-153122441D01*
X142002997Y-153016006D01*
X142002996Y-153016005D01*
X142002994Y-153016004D01*
X141932582Y-152980127D01*
X141841639Y-152933788D01*
X141841636Y-152933787D01*
X141761182Y-152907647D01*
X141703507Y-152868210D01*
X141676308Y-152803851D01*
X141676091Y-152800070D01*
X141675500Y-152795578D01*
X141675500Y-152795573D01*
X141662726Y-152747899D01*
X141664388Y-152678052D01*
X141703549Y-152620189D01*
X141744183Y-152597876D01*
X141841633Y-152566213D01*
X141841639Y-152566211D01*
X142002994Y-152483996D01*
X142149501Y-152377553D01*
X142277553Y-152249501D01*
X142383996Y-152102994D01*
X142466211Y-151941639D01*
X142522171Y-151769409D01*
X142536765Y-151677259D01*
X142550500Y-151590551D01*
X142550500Y-151409448D01*
X142527726Y-151265666D01*
X142522171Y-151230591D01*
X142466211Y-151058361D01*
X142466211Y-151058360D01*
X142437740Y-151002484D01*
X142383996Y-150897006D01*
X142370396Y-150878287D01*
X142277558Y-150750505D01*
X142277554Y-150750500D01*
X142149499Y-150622445D01*
X142149494Y-150622441D01*
X142002997Y-150516006D01*
X142002996Y-150516005D01*
X142002994Y-150516004D01*
X141951300Y-150489664D01*
X141841639Y-150433788D01*
X141841636Y-150433787D01*
X141669410Y-150377829D01*
X141635594Y-150372473D01*
X141572459Y-150342544D01*
X141535528Y-150283232D01*
X141536526Y-150213370D01*
X141575136Y-150155137D01*
X141635594Y-150127527D01*
X141643388Y-150126292D01*
X141669409Y-150122171D01*
X141841639Y-150066211D01*
X142002994Y-149983996D01*
X142149501Y-149877553D01*
X142277553Y-149749501D01*
X142383996Y-149602994D01*
X142466211Y-149441639D01*
X142522171Y-149269409D01*
X142536765Y-149177259D01*
X142550500Y-149090551D01*
X142550500Y-148909448D01*
X142534019Y-148805397D01*
X142522171Y-148730591D01*
X142466211Y-148558361D01*
X142466211Y-148558360D01*
X142437740Y-148502484D01*
X142383996Y-148397006D01*
X142326193Y-148317446D01*
X142277558Y-148250505D01*
X142277554Y-148250500D01*
X142149499Y-148122445D01*
X142149494Y-148122441D01*
X142002997Y-148016006D01*
X142002996Y-148016005D01*
X142002994Y-148016004D01*
X141951300Y-147989664D01*
X141841639Y-147933788D01*
X141841636Y-147933787D01*
X141669410Y-147877829D01*
X141490551Y-147849500D01*
X141490546Y-147849500D01*
X141059454Y-147849500D01*
X141059449Y-147849500D01*
X140880589Y-147877829D01*
X140708363Y-147933787D01*
X140708360Y-147933788D01*
X140547002Y-148016006D01*
X140400505Y-148122441D01*
X140400500Y-148122445D01*
X140272445Y-148250500D01*
X140272441Y-148250505D01*
X140166006Y-148397002D01*
X140083788Y-148558360D01*
X140083787Y-148558363D01*
X140027829Y-148730589D01*
X139999500Y-148909448D01*
X139999500Y-149090551D01*
X140027829Y-149269410D01*
X140083787Y-149441636D01*
X140083788Y-149441639D01*
X140139664Y-149551300D01*
X140144932Y-149561639D01*
X140166006Y-149602997D01*
X140272441Y-149749494D01*
X140272445Y-149749499D01*
X140400500Y-149877554D01*
X140400505Y-149877558D01*
X140528287Y-149970396D01*
X140547006Y-149983996D01*
X140652484Y-150037740D01*
X140708360Y-150066211D01*
X140708363Y-150066212D01*
X140794476Y-150094191D01*
X140880591Y-150122171D01*
X140905291Y-150126083D01*
X140914406Y-150127527D01*
X140977540Y-150157457D01*
X141014471Y-150216768D01*
X141013473Y-150286631D01*
X140974863Y-150344863D01*
X140914406Y-150372473D01*
X140880589Y-150377829D01*
X140708363Y-150433787D01*
X140708360Y-150433788D01*
X140547002Y-150516006D01*
X140400505Y-150622441D01*
X140400500Y-150622445D01*
X140272445Y-150750500D01*
X140272441Y-150750505D01*
X140166006Y-150897002D01*
X140083788Y-151058360D01*
X140083787Y-151058363D01*
X140032471Y-151216303D01*
X139993034Y-151273978D01*
X139928675Y-151301177D01*
X139859829Y-151289263D01*
X139826859Y-151265666D01*
X135621619Y-147060426D01*
X135588134Y-146999103D01*
X135585300Y-146972745D01*
X135585300Y-140297075D01*
X135585300Y-140297073D01*
X135558007Y-140195213D01*
X135558007Y-140195212D01*
X135505280Y-140103887D01*
X134900674Y-139499281D01*
X134867189Y-139437958D01*
X134870423Y-139373284D01*
X134917171Y-139229409D01*
X134925703Y-139175539D01*
X134945500Y-139050551D01*
X134945500Y-138869448D01*
X134929019Y-138765397D01*
X134917171Y-138690591D01*
X134889191Y-138604476D01*
X134861212Y-138518363D01*
X134861211Y-138518360D01*
X134832740Y-138462484D01*
X134778996Y-138357006D01*
X134719742Y-138275449D01*
X134672558Y-138210505D01*
X134672554Y-138210500D01*
X134544499Y-138082445D01*
X134544494Y-138082441D01*
X134397997Y-137976006D01*
X134397996Y-137976005D01*
X134397994Y-137976004D01*
X134346300Y-137949664D01*
X134236639Y-137893788D01*
X134236636Y-137893787D01*
X134064410Y-137837829D01*
X133904321Y-137812473D01*
X133841186Y-137782544D01*
X133804255Y-137723232D01*
X133805253Y-137653370D01*
X133843863Y-137595137D01*
X133904321Y-137567527D01*
X133974425Y-137556422D01*
X134064409Y-137542171D01*
X134236639Y-137486211D01*
X134397994Y-137403996D01*
X134544501Y-137297553D01*
X134672553Y-137169501D01*
X134778996Y-137022994D01*
X134861211Y-136861639D01*
X134917171Y-136689409D01*
X134931765Y-136597259D01*
X134945500Y-136510551D01*
X134945500Y-136329448D01*
X134922429Y-136183789D01*
X134917171Y-136150591D01*
X134880144Y-136036631D01*
X134861212Y-135978363D01*
X134861211Y-135978360D01*
X134823901Y-135905137D01*
X134778996Y-135817006D01*
X134741361Y-135765205D01*
X134672558Y-135670505D01*
X134672554Y-135670500D01*
X134544499Y-135542445D01*
X134544494Y-135542441D01*
X134397997Y-135436006D01*
X134397996Y-135436005D01*
X134397994Y-135436004D01*
X134346300Y-135409664D01*
X134236639Y-135353788D01*
X134236636Y-135353787D01*
X134064410Y-135297829D01*
X133904321Y-135272473D01*
X133841186Y-135242544D01*
X133804255Y-135183232D01*
X133805253Y-135113370D01*
X133843863Y-135055137D01*
X133904321Y-135027527D01*
X133974425Y-135016422D01*
X134064409Y-135002171D01*
X134236639Y-134946211D01*
X134397994Y-134863996D01*
X134544501Y-134757553D01*
X134672553Y-134629501D01*
X134778996Y-134482994D01*
X134861211Y-134321639D01*
X134917171Y-134149409D01*
X134940756Y-134000499D01*
X134945500Y-133970551D01*
X134945500Y-133789448D01*
X134919901Y-133627829D01*
X134917171Y-133610591D01*
X134861211Y-133438361D01*
X134861211Y-133438360D01*
X134812361Y-133342488D01*
X134778996Y-133277006D01*
X134747748Y-133233996D01*
X134672558Y-133130505D01*
X134672554Y-133130500D01*
X134544499Y-133002445D01*
X134544494Y-133002441D01*
X134397997Y-132896006D01*
X134397996Y-132896005D01*
X134397994Y-132896004D01*
X134313583Y-132852994D01*
X134236639Y-132813788D01*
X134236636Y-132813787D01*
X134064410Y-132757829D01*
X133904321Y-132732473D01*
X133841186Y-132702544D01*
X133804255Y-132643232D01*
X133805253Y-132573370D01*
X133843863Y-132515137D01*
X133904321Y-132487527D01*
X133974425Y-132476422D01*
X134064409Y-132462171D01*
X134236639Y-132406211D01*
X134397994Y-132323996D01*
X134544501Y-132217553D01*
X134672553Y-132089501D01*
X134778996Y-131942994D01*
X134861211Y-131781639D01*
X134917171Y-131609409D01*
X134934420Y-131500505D01*
X134945500Y-131430551D01*
X134945500Y-131249448D01*
X134929019Y-131145397D01*
X134917171Y-131070591D01*
X134870386Y-130926598D01*
X134861212Y-130898363D01*
X134861211Y-130898360D01*
X134819353Y-130816211D01*
X134778996Y-130737006D01*
X134699475Y-130627554D01*
X134672558Y-130590505D01*
X134672554Y-130590500D01*
X134544499Y-130462445D01*
X134544494Y-130462441D01*
X134397997Y-130356006D01*
X134397996Y-130356005D01*
X134397994Y-130356004D01*
X134346300Y-130329664D01*
X134236639Y-130273788D01*
X134236636Y-130273787D01*
X134064410Y-130217829D01*
X133904321Y-130192473D01*
X133841186Y-130162544D01*
X133804255Y-130103232D01*
X133805253Y-130033370D01*
X133843863Y-129975137D01*
X133904321Y-129947527D01*
X133974425Y-129936422D01*
X134064409Y-129922171D01*
X134236639Y-129866211D01*
X134397994Y-129783996D01*
X134544501Y-129677553D01*
X134672553Y-129549501D01*
X134778996Y-129402994D01*
X134861211Y-129241639D01*
X134917171Y-129069409D01*
X134931765Y-128977259D01*
X134945500Y-128890551D01*
X134945500Y-128709448D01*
X134928085Y-128599500D01*
X134917171Y-128530591D01*
X134861211Y-128358361D01*
X134861211Y-128358360D01*
X134832740Y-128302484D01*
X134778996Y-128197006D01*
X134765396Y-128178287D01*
X134672558Y-128050505D01*
X134672554Y-128050500D01*
X134544499Y-127922445D01*
X134544494Y-127922441D01*
X134397997Y-127816006D01*
X134397996Y-127816005D01*
X134397994Y-127816004D01*
X134346300Y-127789664D01*
X134236639Y-127733788D01*
X134236636Y-127733787D01*
X134064410Y-127677829D01*
X133904321Y-127652473D01*
X133841186Y-127622544D01*
X133804255Y-127563232D01*
X133805253Y-127493370D01*
X133843863Y-127435137D01*
X133904321Y-127407527D01*
X133974425Y-127396422D01*
X134064409Y-127382171D01*
X134236639Y-127326211D01*
X134397994Y-127243996D01*
X134544501Y-127137553D01*
X134672553Y-127009501D01*
X134778996Y-126862994D01*
X134861211Y-126701639D01*
X134917171Y-126529409D01*
X134931765Y-126437259D01*
X134945500Y-126350551D01*
X134945500Y-126169448D01*
X134929019Y-126065397D01*
X134917171Y-125990591D01*
X134861211Y-125818361D01*
X134861211Y-125818360D01*
X134832740Y-125762484D01*
X134778996Y-125657006D01*
X134765396Y-125638287D01*
X134672558Y-125510505D01*
X134672554Y-125510500D01*
X134544499Y-125382445D01*
X134544494Y-125382441D01*
X134397997Y-125276006D01*
X134397996Y-125276005D01*
X134397994Y-125276004D01*
X134318185Y-125235339D01*
X134236639Y-125193788D01*
X134236636Y-125193787D01*
X134064410Y-125137829D01*
X133904321Y-125112473D01*
X133841186Y-125082544D01*
X133804255Y-125023232D01*
X133805253Y-124953370D01*
X133843863Y-124895137D01*
X133904321Y-124867527D01*
X133974425Y-124856422D01*
X134064409Y-124842171D01*
X134236639Y-124786211D01*
X134397994Y-124703996D01*
X134544501Y-124597553D01*
X134672553Y-124469501D01*
X134778996Y-124322994D01*
X134861211Y-124161639D01*
X134917171Y-123989409D01*
X134931765Y-123897259D01*
X134945500Y-123810551D01*
X134945500Y-123629448D01*
X134924407Y-123496277D01*
X134917171Y-123450591D01*
X134889191Y-123364476D01*
X134861212Y-123278363D01*
X134861211Y-123278360D01*
X134796019Y-123150416D01*
X134778996Y-123117006D01*
X134682876Y-122984707D01*
X134672558Y-122970505D01*
X134672554Y-122970500D01*
X134544499Y-122842445D01*
X134544494Y-122842441D01*
X134397997Y-122736006D01*
X134397996Y-122736005D01*
X134397994Y-122736004D01*
X134346300Y-122709664D01*
X134236639Y-122653788D01*
X134236636Y-122653787D01*
X134064410Y-122597829D01*
X133904321Y-122572473D01*
X133841186Y-122542544D01*
X133804255Y-122483232D01*
X133805253Y-122413370D01*
X133843863Y-122355137D01*
X133904321Y-122327527D01*
X133974425Y-122316422D01*
X134064409Y-122302171D01*
X134236639Y-122246211D01*
X134397994Y-122163996D01*
X134544501Y-122057553D01*
X134672553Y-121929501D01*
X134778996Y-121782994D01*
X134861211Y-121621639D01*
X134917171Y-121449409D01*
X134931765Y-121357259D01*
X134945500Y-121270551D01*
X134945500Y-121089448D01*
X134925711Y-120964511D01*
X134917171Y-120910591D01*
X134861211Y-120738361D01*
X134861211Y-120738360D01*
X134832740Y-120682484D01*
X134778996Y-120577006D01*
X134765396Y-120558287D01*
X134672558Y-120430505D01*
X134672554Y-120430500D01*
X134544499Y-120302445D01*
X134544494Y-120302441D01*
X134397997Y-120196006D01*
X134397996Y-120196005D01*
X134397994Y-120196004D01*
X134346300Y-120169664D01*
X134236639Y-120113788D01*
X134236636Y-120113787D01*
X134064410Y-120057829D01*
X133904321Y-120032473D01*
X133841186Y-120002544D01*
X133804255Y-119943232D01*
X133805253Y-119873370D01*
X133843863Y-119815137D01*
X133904321Y-119787527D01*
X133974425Y-119776422D01*
X134064409Y-119762171D01*
X134236639Y-119706211D01*
X134397994Y-119623996D01*
X134544501Y-119517553D01*
X134672553Y-119389501D01*
X134778996Y-119242994D01*
X134861211Y-119081639D01*
X134917171Y-118909409D01*
X134931765Y-118817259D01*
X134945500Y-118730551D01*
X134945500Y-118549448D01*
X134918622Y-118379755D01*
X134917171Y-118370591D01*
X134861211Y-118198361D01*
X134861211Y-118198360D01*
X134816073Y-118109773D01*
X134778996Y-118037006D01*
X134691505Y-117916584D01*
X134672558Y-117890505D01*
X134672554Y-117890500D01*
X134544499Y-117762445D01*
X134544494Y-117762441D01*
X134418609Y-117670980D01*
X134418586Y-117670965D01*
X134417512Y-117670185D01*
X134397994Y-117656004D01*
X134397995Y-117656004D01*
X134397993Y-117656003D01*
X134246422Y-117578773D01*
X137627300Y-117578773D01*
X137627300Y-131365073D01*
X137627300Y-131470527D01*
X137640946Y-131521457D01*
X137654593Y-131572389D01*
X137657574Y-131577552D01*
X137707320Y-131663713D01*
X137707322Y-131663715D01*
X140734006Y-134690399D01*
X140767491Y-134751722D01*
X140764256Y-134816397D01*
X140726598Y-134932297D01*
X140726597Y-134932301D01*
X140715531Y-135002171D01*
X140699500Y-135103389D01*
X140699500Y-135276611D01*
X140707677Y-135328239D01*
X140724745Y-135436006D01*
X140726598Y-135447701D01*
X140780127Y-135612445D01*
X140858768Y-135766788D01*
X140960586Y-135906928D01*
X141083072Y-136029414D01*
X141223212Y-136131232D01*
X141377555Y-136209873D01*
X141542299Y-136263402D01*
X141713389Y-136290500D01*
X141713390Y-136290500D01*
X141886610Y-136290500D01*
X141886611Y-136290500D01*
X142057701Y-136263402D01*
X142222445Y-136209873D01*
X142376788Y-136131232D01*
X142516928Y-136029414D01*
X142639414Y-135906928D01*
X142741232Y-135766788D01*
X142741232Y-135766787D01*
X142742382Y-135765205D01*
X142797712Y-135722540D01*
X142867326Y-135716561D01*
X142929121Y-135749167D01*
X142963478Y-135810006D01*
X142966700Y-135838091D01*
X142966700Y-141025544D01*
X142947015Y-141092583D01*
X142930381Y-141113225D01*
X142299599Y-141744006D01*
X142238276Y-141777491D01*
X142173600Y-141774256D01*
X142057698Y-141736597D01*
X141926271Y-141715781D01*
X141886611Y-141709500D01*
X141713389Y-141709500D01*
X141673728Y-141715781D01*
X141542302Y-141736597D01*
X141377552Y-141790128D01*
X141223211Y-141868768D01*
X141143256Y-141926859D01*
X141083072Y-141970586D01*
X141083070Y-141970588D01*
X141083069Y-141970588D01*
X140960588Y-142093069D01*
X140960588Y-142093070D01*
X140960586Y-142093072D01*
X140953375Y-142102997D01*
X140858768Y-142233211D01*
X140780128Y-142387552D01*
X140780127Y-142387554D01*
X140780127Y-142387555D01*
X140764024Y-142437116D01*
X140726597Y-142552302D01*
X140699500Y-142723389D01*
X140699500Y-142896610D01*
X140724745Y-143056006D01*
X140726598Y-143067701D01*
X140780127Y-143232445D01*
X140858768Y-143386788D01*
X140960586Y-143526928D01*
X141083072Y-143649414D01*
X141223212Y-143751232D01*
X141377555Y-143829873D01*
X141542299Y-143883402D01*
X141713389Y-143910500D01*
X141713390Y-143910500D01*
X141886610Y-143910500D01*
X141886611Y-143910500D01*
X142057701Y-143883402D01*
X142222445Y-143829873D01*
X142376788Y-143751232D01*
X142516928Y-143649414D01*
X142639414Y-143526928D01*
X142741232Y-143386788D01*
X142819873Y-143232445D01*
X142873402Y-143067701D01*
X142900500Y-142896611D01*
X142900500Y-142723389D01*
X142873402Y-142552299D01*
X142835741Y-142436393D01*
X142833747Y-142366558D01*
X142865990Y-142310401D01*
X143687680Y-141488713D01*
X143733041Y-141410146D01*
X143740406Y-141397388D01*
X143740407Y-141397387D01*
X143767700Y-141295527D01*
X143767700Y-124056482D01*
X143787385Y-123989443D01*
X143791920Y-123982861D01*
X143852793Y-123900382D01*
X143884228Y-123810546D01*
X143897646Y-123772201D01*
X143897646Y-123772199D01*
X143900500Y-123741769D01*
X143900500Y-123333230D01*
X143897646Y-123302800D01*
X143897646Y-123302798D01*
X143858467Y-123190834D01*
X143852793Y-123174618D01*
X143772150Y-123065350D01*
X143662882Y-122984707D01*
X143662880Y-122984706D01*
X143534700Y-122939853D01*
X143504270Y-122937000D01*
X143504266Y-122937000D01*
X143101555Y-122937000D01*
X143034516Y-122917315D01*
X142988761Y-122864511D01*
X142978817Y-122795353D01*
X143007842Y-122731797D01*
X143013874Y-122725319D01*
X143085406Y-122653787D01*
X143257980Y-122481213D01*
X143310707Y-122389888D01*
X143326778Y-122329905D01*
X143363142Y-122270247D01*
X143425989Y-122239717D01*
X143446553Y-122238000D01*
X143504270Y-122238000D01*
X143534699Y-122235146D01*
X143534701Y-122235146D01*
X143598790Y-122212719D01*
X143662882Y-122190293D01*
X143772150Y-122109650D01*
X143852793Y-122000382D01*
X143877598Y-121929494D01*
X143897646Y-121872201D01*
X143897646Y-121872199D01*
X143900500Y-121841769D01*
X143900500Y-121433230D01*
X143897646Y-121402800D01*
X143897646Y-121402798D01*
X143852793Y-121274619D01*
X143852792Y-121274617D01*
X143849791Y-121270551D01*
X143772150Y-121165350D01*
X143662882Y-121084707D01*
X143662880Y-121084706D01*
X143534700Y-121039853D01*
X143504270Y-121037000D01*
X143504266Y-121037000D01*
X143462000Y-121037000D01*
X143394961Y-121017315D01*
X143349206Y-120964511D01*
X143338000Y-120913000D01*
X143338000Y-118109775D01*
X143338000Y-118109773D01*
X143310707Y-118007912D01*
X143257980Y-117916587D01*
X142586044Y-117244651D01*
X142552559Y-117183328D01*
X142550831Y-117146831D01*
X142550279Y-117146798D01*
X142550500Y-117143106D01*
X142550500Y-115856903D01*
X142550500Y-115856898D01*
X142539877Y-115768436D01*
X142484361Y-115627658D01*
X142484360Y-115627657D01*
X142484360Y-115627656D01*
X142392922Y-115507077D01*
X142272343Y-115415639D01*
X142131561Y-115360122D01*
X142085926Y-115354642D01*
X142043102Y-115349500D01*
X142043097Y-115349500D01*
X141797795Y-115349500D01*
X141730756Y-115329815D01*
X141685001Y-115277011D01*
X141674857Y-115209309D01*
X141676562Y-115196363D01*
X141679474Y-115196746D01*
X141695185Y-115143244D01*
X141747989Y-115097489D01*
X141761175Y-115092354D01*
X141841639Y-115066211D01*
X142002994Y-114983996D01*
X142149501Y-114877553D01*
X142277553Y-114749501D01*
X142383996Y-114602994D01*
X142466211Y-114441639D01*
X142522171Y-114269409D01*
X142539025Y-114162997D01*
X142550500Y-114090551D01*
X142550500Y-113909448D01*
X142534019Y-113805397D01*
X142522171Y-113730591D01*
X142466211Y-113558361D01*
X142466211Y-113558360D01*
X142420907Y-113469448D01*
X142383996Y-113397006D01*
X142370396Y-113378287D01*
X142277558Y-113250505D01*
X142277554Y-113250500D01*
X142149499Y-113122445D01*
X142149494Y-113122441D01*
X142002997Y-113016006D01*
X142002996Y-113016005D01*
X142002994Y-113016004D01*
X141951300Y-112989664D01*
X141841639Y-112933788D01*
X141841636Y-112933787D01*
X141669410Y-112877829D01*
X141490551Y-112849500D01*
X141490546Y-112849500D01*
X141059454Y-112849500D01*
X141059449Y-112849500D01*
X140880589Y-112877829D01*
X140708363Y-112933787D01*
X140708360Y-112933788D01*
X140547002Y-113016006D01*
X140400505Y-113122441D01*
X140400500Y-113122445D01*
X140272445Y-113250500D01*
X140272441Y-113250505D01*
X140166006Y-113397002D01*
X140083788Y-113558360D01*
X140083787Y-113558363D01*
X140027829Y-113730589D01*
X139999500Y-113909448D01*
X139999500Y-114090551D01*
X140027829Y-114269410D01*
X140083787Y-114441636D01*
X140083788Y-114441639D01*
X140166005Y-114602996D01*
X140240057Y-114704922D01*
X140263536Y-114770728D01*
X140247710Y-114838782D01*
X140227420Y-114865486D01*
X140187121Y-114905786D01*
X140187120Y-114905787D01*
X137707322Y-117385584D01*
X137707318Y-117385590D01*
X137654592Y-117476912D01*
X137654593Y-117476913D01*
X137627300Y-117578773D01*
X134246422Y-117578773D01*
X134236639Y-117573788D01*
X134236636Y-117573787D01*
X134064410Y-117517829D01*
X133885551Y-117489500D01*
X133885546Y-117489500D01*
X133704454Y-117489500D01*
X133704449Y-117489500D01*
X133525589Y-117517829D01*
X133353363Y-117573787D01*
X133353360Y-117573788D01*
X133192002Y-117656006D01*
X133045505Y-117762441D01*
X133045500Y-117762445D01*
X132917445Y-117890500D01*
X132917441Y-117890505D01*
X132811006Y-118037002D01*
X132728788Y-118198360D01*
X132728787Y-118198363D01*
X132672829Y-118370589D01*
X132644500Y-118549448D01*
X132644500Y-118730551D01*
X132672829Y-118909410D01*
X132728787Y-119081636D01*
X132728788Y-119081639D01*
X132811006Y-119242997D01*
X132917441Y-119389494D01*
X132917445Y-119389499D01*
X133045500Y-119517554D01*
X133045505Y-119517558D01*
X133173287Y-119610396D01*
X133192006Y-119623996D01*
X133297484Y-119677740D01*
X133353360Y-119706211D01*
X133353363Y-119706212D01*
X133439476Y-119734191D01*
X133525591Y-119762171D01*
X133598639Y-119773740D01*
X133685678Y-119787527D01*
X133748813Y-119817456D01*
X133785744Y-119876768D01*
X133784746Y-119946631D01*
X133746136Y-120004863D01*
X133685678Y-120032473D01*
X133525589Y-120057829D01*
X133353363Y-120113787D01*
X133353360Y-120113788D01*
X133192002Y-120196006D01*
X133045505Y-120302441D01*
X133045500Y-120302445D01*
X132917445Y-120430500D01*
X132917441Y-120430505D01*
X132811006Y-120577002D01*
X132728788Y-120738360D01*
X132728787Y-120738363D01*
X132672829Y-120910589D01*
X132644500Y-121089448D01*
X132644500Y-121270551D01*
X132672829Y-121449410D01*
X132728787Y-121621636D01*
X132728788Y-121621639D01*
X132811006Y-121782997D01*
X132917441Y-121929494D01*
X132917445Y-121929499D01*
X133045500Y-122057554D01*
X133045505Y-122057558D01*
X133125050Y-122115350D01*
X133192006Y-122163996D01*
X133297484Y-122217740D01*
X133353360Y-122246211D01*
X133353363Y-122246212D01*
X133427337Y-122270247D01*
X133525591Y-122302171D01*
X133598639Y-122313740D01*
X133685678Y-122327527D01*
X133748813Y-122357456D01*
X133785744Y-122416768D01*
X133784746Y-122486631D01*
X133746136Y-122544863D01*
X133685678Y-122572473D01*
X133525589Y-122597829D01*
X133353363Y-122653787D01*
X133353360Y-122653788D01*
X133192002Y-122736006D01*
X133045505Y-122842441D01*
X133045500Y-122842445D01*
X132917445Y-122970500D01*
X132917441Y-122970505D01*
X132811006Y-123117002D01*
X132728788Y-123278360D01*
X132728787Y-123278363D01*
X132672829Y-123450589D01*
X132644500Y-123629448D01*
X132644500Y-123810551D01*
X132672829Y-123989410D01*
X132728787Y-124161636D01*
X132728788Y-124161639D01*
X132811006Y-124322997D01*
X132917441Y-124469494D01*
X132917445Y-124469499D01*
X133045500Y-124597554D01*
X133045505Y-124597558D01*
X133173287Y-124690396D01*
X133192006Y-124703996D01*
X133297484Y-124757740D01*
X133353360Y-124786211D01*
X133353363Y-124786212D01*
X133406273Y-124803403D01*
X133525591Y-124842171D01*
X133598639Y-124853740D01*
X133685678Y-124867527D01*
X133748813Y-124897456D01*
X133785744Y-124956768D01*
X133784746Y-125026631D01*
X133746136Y-125084863D01*
X133685678Y-125112473D01*
X133525589Y-125137829D01*
X133353363Y-125193787D01*
X133353360Y-125193788D01*
X133192002Y-125276006D01*
X133045505Y-125382441D01*
X133045500Y-125382445D01*
X132917445Y-125510500D01*
X132917441Y-125510505D01*
X132811006Y-125657002D01*
X132728788Y-125818360D01*
X132728787Y-125818363D01*
X132672829Y-125990589D01*
X132644500Y-126169448D01*
X132644500Y-126350551D01*
X132672829Y-126529410D01*
X132728787Y-126701636D01*
X132728788Y-126701639D01*
X132811006Y-126862997D01*
X132917441Y-127009494D01*
X132917445Y-127009499D01*
X133045500Y-127137554D01*
X133045505Y-127137558D01*
X133173287Y-127230396D01*
X133192006Y-127243996D01*
X133297484Y-127297740D01*
X133353360Y-127326211D01*
X133353363Y-127326212D01*
X133439476Y-127354191D01*
X133525591Y-127382171D01*
X133598639Y-127393740D01*
X133685678Y-127407527D01*
X133748813Y-127437456D01*
X133785744Y-127496768D01*
X133784746Y-127566631D01*
X133746136Y-127624863D01*
X133685678Y-127652473D01*
X133525589Y-127677829D01*
X133353363Y-127733787D01*
X133353360Y-127733788D01*
X133192002Y-127816006D01*
X133045505Y-127922441D01*
X133045500Y-127922445D01*
X132917445Y-128050500D01*
X132917441Y-128050505D01*
X132811006Y-128197002D01*
X132728788Y-128358360D01*
X132728787Y-128358363D01*
X132672829Y-128530589D01*
X132644500Y-128709448D01*
X132644500Y-128890551D01*
X132672829Y-129069410D01*
X132728787Y-129241636D01*
X132728788Y-129241639D01*
X132811006Y-129402997D01*
X132917441Y-129549494D01*
X132917445Y-129549499D01*
X133045500Y-129677554D01*
X133045505Y-129677558D01*
X133173287Y-129770396D01*
X133192006Y-129783996D01*
X133297484Y-129837740D01*
X133353360Y-129866211D01*
X133353363Y-129866212D01*
X133439476Y-129894191D01*
X133525591Y-129922171D01*
X133598639Y-129933740D01*
X133685678Y-129947527D01*
X133748813Y-129977456D01*
X133785744Y-130036768D01*
X133784746Y-130106631D01*
X133746136Y-130164863D01*
X133685678Y-130192473D01*
X133525589Y-130217829D01*
X133353363Y-130273787D01*
X133353360Y-130273788D01*
X133192002Y-130356006D01*
X133045505Y-130462441D01*
X133045500Y-130462445D01*
X132917445Y-130590500D01*
X132917441Y-130590505D01*
X132811006Y-130737002D01*
X132728788Y-130898360D01*
X132728787Y-130898363D01*
X132672829Y-131070589D01*
X132644500Y-131249448D01*
X132644500Y-131430551D01*
X132672829Y-131609412D01*
X132719574Y-131753282D01*
X132721569Y-131823123D01*
X132689325Y-131879280D01*
X132249519Y-132319088D01*
X132249518Y-132319090D01*
X132196792Y-132410412D01*
X132196793Y-132410413D01*
X132169500Y-132512273D01*
X132169500Y-147506000D01*
X132149815Y-147573039D01*
X132097011Y-147618794D01*
X132045500Y-147630000D01*
X113155000Y-147630000D01*
X112043455Y-147630000D01*
X112172994Y-147563996D01*
X112224120Y-147526850D01*
X112290919Y-147478320D01*
X112319494Y-147457558D01*
X112319492Y-147457558D01*
X112319501Y-147457553D01*
X112447553Y-147329501D01*
X112553996Y-147182994D01*
X112636211Y-147021639D01*
X112692171Y-146849409D01*
X112706765Y-146757259D01*
X112720500Y-146670551D01*
X112720500Y-146489448D01*
X112697889Y-146346693D01*
X112692171Y-146310591D01*
X112636211Y-146138361D01*
X112636211Y-146138360D01*
X112579068Y-146026213D01*
X112553996Y-145977006D01*
X112505447Y-145910183D01*
X112447558Y-145830505D01*
X112447554Y-145830500D01*
X112319499Y-145702445D01*
X112319494Y-145702441D01*
X112172997Y-145596006D01*
X112172996Y-145596005D01*
X112172994Y-145596004D01*
X112121300Y-145569664D01*
X112011639Y-145513788D01*
X112011636Y-145513787D01*
X111839410Y-145457829D01*
X111679321Y-145432473D01*
X111616186Y-145402544D01*
X111579255Y-145343232D01*
X111580253Y-145273370D01*
X111618863Y-145215137D01*
X111679321Y-145187527D01*
X111749425Y-145176422D01*
X111839409Y-145162171D01*
X112011639Y-145106211D01*
X112172994Y-145023996D01*
X112319501Y-144917553D01*
X112447553Y-144789501D01*
X112553996Y-144642994D01*
X112636211Y-144481639D01*
X112692171Y-144309409D01*
X112706765Y-144217259D01*
X112720500Y-144130551D01*
X112720500Y-143949448D01*
X112701560Y-143829871D01*
X112692171Y-143770591D01*
X112640033Y-143610123D01*
X112636212Y-143598363D01*
X112636211Y-143598360D01*
X112582802Y-143493541D01*
X112553996Y-143437006D01*
X112527473Y-143400500D01*
X112447558Y-143290505D01*
X112447554Y-143290500D01*
X112319499Y-143162445D01*
X112319494Y-143162441D01*
X112172997Y-143056006D01*
X112172996Y-143056005D01*
X112172994Y-143056004D01*
X112121300Y-143029664D01*
X112011639Y-142973788D01*
X112011636Y-142973787D01*
X111839410Y-142917829D01*
X111679321Y-142892473D01*
X111616186Y-142862544D01*
X111579255Y-142803232D01*
X111580253Y-142733370D01*
X111618863Y-142675137D01*
X111679321Y-142647527D01*
X111749425Y-142636422D01*
X111839409Y-142622171D01*
X112011639Y-142566211D01*
X112172994Y-142483996D01*
X112319501Y-142377553D01*
X112447553Y-142249501D01*
X112553996Y-142102994D01*
X112636211Y-141941639D01*
X112692171Y-141769409D01*
X112711558Y-141647006D01*
X112720500Y-141590551D01*
X112720500Y-141409448D01*
X112697780Y-141266006D01*
X112692171Y-141230591D01*
X112636211Y-141058361D01*
X112636211Y-141058360D01*
X112607740Y-141002484D01*
X112553996Y-140897006D01*
X112495296Y-140816212D01*
X112447558Y-140750505D01*
X112447554Y-140750500D01*
X112319499Y-140622445D01*
X112319494Y-140622441D01*
X112172997Y-140516006D01*
X112172996Y-140516005D01*
X112172994Y-140516004D01*
X112121300Y-140489664D01*
X112011639Y-140433788D01*
X112011636Y-140433787D01*
X111839410Y-140377829D01*
X111679321Y-140352473D01*
X111616186Y-140322544D01*
X111579255Y-140263232D01*
X111580253Y-140193370D01*
X111618863Y-140135137D01*
X111679321Y-140107527D01*
X111749425Y-140096422D01*
X111839409Y-140082171D01*
X112011639Y-140026211D01*
X112172994Y-139943996D01*
X112319501Y-139837553D01*
X112447553Y-139709501D01*
X112553996Y-139562994D01*
X112636211Y-139401639D01*
X112692171Y-139229409D01*
X112711579Y-139106870D01*
X112720500Y-139050551D01*
X112720500Y-138869448D01*
X112704019Y-138765397D01*
X112692171Y-138690591D01*
X112664191Y-138604476D01*
X112636212Y-138518363D01*
X112636211Y-138518360D01*
X112607740Y-138462484D01*
X112553996Y-138357006D01*
X112494742Y-138275449D01*
X112447558Y-138210505D01*
X112447554Y-138210500D01*
X112319499Y-138082445D01*
X112319489Y-138082437D01*
X112318068Y-138081404D01*
X112317658Y-138080872D01*
X112315788Y-138079275D01*
X112316123Y-138078882D01*
X112275406Y-138026071D01*
X112269433Y-137956457D01*
X112302043Y-137894665D01*
X112303198Y-137893493D01*
X113049180Y-137147513D01*
X113101907Y-137056188D01*
X113129200Y-136954327D01*
X113129200Y-136848873D01*
X113129200Y-124825973D01*
X113101907Y-124724113D01*
X113101907Y-124724112D01*
X113049180Y-124632787D01*
X112675674Y-124259281D01*
X112642189Y-124197958D01*
X112645423Y-124133284D01*
X112692171Y-123989409D01*
X112693210Y-123982848D01*
X112720500Y-123810551D01*
X112720500Y-123629448D01*
X112699407Y-123496277D01*
X112692171Y-123450591D01*
X112664191Y-123364476D01*
X112636212Y-123278363D01*
X112636211Y-123278360D01*
X112571019Y-123150416D01*
X112553996Y-123117006D01*
X112457876Y-122984707D01*
X112447558Y-122970505D01*
X112447554Y-122970500D01*
X112319499Y-122842445D01*
X112319494Y-122842441D01*
X112172997Y-122736006D01*
X112172996Y-122736005D01*
X112172994Y-122736004D01*
X112121300Y-122709664D01*
X112011639Y-122653788D01*
X112011636Y-122653787D01*
X111839410Y-122597829D01*
X111679321Y-122572473D01*
X111616186Y-122542544D01*
X111579255Y-122483232D01*
X111580253Y-122413370D01*
X111618863Y-122355137D01*
X111679321Y-122327527D01*
X111749425Y-122316422D01*
X111839409Y-122302171D01*
X112011639Y-122246211D01*
X112172994Y-122163996D01*
X112319501Y-122057553D01*
X112447553Y-121929501D01*
X112553996Y-121782994D01*
X112636211Y-121621639D01*
X112692171Y-121449409D01*
X112706765Y-121357259D01*
X112720500Y-121270551D01*
X112720500Y-121089448D01*
X112700711Y-120964511D01*
X112692171Y-120910591D01*
X112636211Y-120738361D01*
X112636211Y-120738360D01*
X112607740Y-120682484D01*
X112553996Y-120577006D01*
X112540396Y-120558287D01*
X112447558Y-120430505D01*
X112447554Y-120430500D01*
X112319499Y-120302445D01*
X112319494Y-120302441D01*
X112172997Y-120196006D01*
X112172996Y-120196005D01*
X112172994Y-120196004D01*
X112121300Y-120169664D01*
X112011639Y-120113788D01*
X112011636Y-120113787D01*
X111839410Y-120057829D01*
X111679321Y-120032473D01*
X111616186Y-120002544D01*
X111579255Y-119943232D01*
X111580253Y-119873370D01*
X111618863Y-119815137D01*
X111679321Y-119787527D01*
X111749425Y-119776422D01*
X111839409Y-119762171D01*
X112011639Y-119706211D01*
X112172994Y-119623996D01*
X112319501Y-119517553D01*
X112447553Y-119389501D01*
X112553996Y-119242994D01*
X112636211Y-119081639D01*
X112692171Y-118909409D01*
X112706765Y-118817259D01*
X112720500Y-118730551D01*
X112720500Y-118549448D01*
X112693622Y-118379755D01*
X112692171Y-118370591D01*
X112636211Y-118198361D01*
X112636211Y-118198360D01*
X112591073Y-118109773D01*
X112553996Y-118037006D01*
X112466505Y-117916584D01*
X112447558Y-117890505D01*
X112447554Y-117890500D01*
X112319499Y-117762445D01*
X112319494Y-117762441D01*
X112172997Y-117656006D01*
X112172996Y-117656005D01*
X112172994Y-117656004D01*
X112121300Y-117629664D01*
X112011639Y-117573788D01*
X112011636Y-117573787D01*
X111839410Y-117517829D01*
X111679321Y-117492473D01*
X111616186Y-117462544D01*
X111579255Y-117403232D01*
X111580253Y-117333370D01*
X111618863Y-117275137D01*
X111679321Y-117247527D01*
X111749425Y-117236422D01*
X111839409Y-117222171D01*
X112011639Y-117166211D01*
X112172994Y-117083996D01*
X112319501Y-116977553D01*
X112447553Y-116849501D01*
X112553996Y-116702994D01*
X112636211Y-116541639D01*
X112692171Y-116369409D01*
X112706765Y-116277259D01*
X112720500Y-116190551D01*
X112720500Y-116009448D01*
X112696338Y-115856903D01*
X112692171Y-115830591D01*
X112636211Y-115658361D01*
X112636211Y-115658360D01*
X112607740Y-115602484D01*
X112553996Y-115497006D01*
X112494880Y-115415639D01*
X112447558Y-115350505D01*
X112447554Y-115350500D01*
X112319499Y-115222445D01*
X112319494Y-115222441D01*
X112172997Y-115116006D01*
X112172996Y-115116005D01*
X112172994Y-115116004D01*
X112121300Y-115089664D01*
X112011639Y-115033788D01*
X112011636Y-115033787D01*
X111839410Y-114977829D01*
X111679321Y-114952473D01*
X111616186Y-114922544D01*
X111579255Y-114863232D01*
X111580253Y-114793370D01*
X111618863Y-114735137D01*
X111679321Y-114707527D01*
X111749425Y-114696422D01*
X111839409Y-114682171D01*
X112011639Y-114626211D01*
X112172994Y-114543996D01*
X112319501Y-114437553D01*
X112447553Y-114309501D01*
X112553996Y-114162994D01*
X112636211Y-114001639D01*
X112692171Y-113829409D01*
X112707822Y-113730591D01*
X112720500Y-113650551D01*
X112720500Y-113469448D01*
X112704019Y-113365397D01*
X112692171Y-113290591D01*
X112636211Y-113118361D01*
X112636211Y-113118360D01*
X112584057Y-113016004D01*
X112553996Y-112957006D01*
X112537127Y-112933788D01*
X112447558Y-112810505D01*
X112447554Y-112810500D01*
X112319499Y-112682445D01*
X112319494Y-112682441D01*
X112172997Y-112576006D01*
X112172996Y-112576005D01*
X112172994Y-112576004D01*
X112121300Y-112549664D01*
X112011639Y-112493788D01*
X112011636Y-112493787D01*
X111839410Y-112437829D01*
X111679321Y-112412473D01*
X111616186Y-112382544D01*
X111579255Y-112323232D01*
X111580253Y-112253370D01*
X111618863Y-112195137D01*
X111679321Y-112167527D01*
X111749425Y-112156422D01*
X111839409Y-112142171D01*
X112011639Y-112086211D01*
X112172994Y-112003996D01*
X112319501Y-111897553D01*
X112447553Y-111769501D01*
X112553996Y-111622994D01*
X112636211Y-111461639D01*
X112692171Y-111289409D01*
X112706765Y-111197259D01*
X112720500Y-111110551D01*
X112720500Y-110929448D01*
X112704019Y-110825397D01*
X112692171Y-110750591D01*
X112636211Y-110578361D01*
X112636211Y-110578360D01*
X112607740Y-110522484D01*
X112553996Y-110417006D01*
X112540396Y-110398287D01*
X112447558Y-110270505D01*
X112447554Y-110270500D01*
X112319499Y-110142445D01*
X112319494Y-110142441D01*
X112172997Y-110036006D01*
X112172996Y-110036005D01*
X112172994Y-110036004D01*
X112121300Y-110009664D01*
X112011639Y-109953788D01*
X112011636Y-109953787D01*
X111839410Y-109897829D01*
X111679321Y-109872473D01*
X111616186Y-109842544D01*
X111579255Y-109783232D01*
X111580253Y-109713370D01*
X111618863Y-109655137D01*
X111679321Y-109627527D01*
X111749425Y-109616422D01*
X111839409Y-109602171D01*
X112011639Y-109546211D01*
X112172994Y-109463996D01*
X112319501Y-109357553D01*
X112447553Y-109229501D01*
X112553996Y-109082994D01*
X112636211Y-108921639D01*
X112692171Y-108749409D01*
X112706765Y-108657259D01*
X112720500Y-108570551D01*
X112720500Y-108389448D01*
X112704019Y-108285397D01*
X112692171Y-108210591D01*
X112636211Y-108038361D01*
X112636211Y-108038360D01*
X112607740Y-107982484D01*
X112553996Y-107877006D01*
X112540396Y-107858287D01*
X112447558Y-107730505D01*
X112447554Y-107730500D01*
X112319499Y-107602445D01*
X112319494Y-107602441D01*
X112172997Y-107496006D01*
X112172996Y-107496005D01*
X112172994Y-107496004D01*
X112121300Y-107469664D01*
X112011639Y-107413788D01*
X112011636Y-107413787D01*
X111839410Y-107357829D01*
X111679321Y-107332473D01*
X111616186Y-107302544D01*
X111579255Y-107243232D01*
X111580253Y-107173370D01*
X111618863Y-107115137D01*
X111679321Y-107087527D01*
X111749425Y-107076422D01*
X111839409Y-107062171D01*
X112011639Y-107006211D01*
X112172994Y-106923996D01*
X112319501Y-106817553D01*
X112447553Y-106689501D01*
X112553996Y-106542994D01*
X112636211Y-106381639D01*
X112692171Y-106209409D01*
X112706765Y-106117259D01*
X112720500Y-106030551D01*
X112720500Y-105849448D01*
X112704019Y-105745397D01*
X112692171Y-105670591D01*
X112636211Y-105498361D01*
X112636211Y-105498360D01*
X112607740Y-105442484D01*
X112553996Y-105337006D01*
X112470976Y-105222738D01*
X112447558Y-105190505D01*
X112447554Y-105190500D01*
X112319499Y-105062445D01*
X112319494Y-105062441D01*
X112172997Y-104956006D01*
X112172996Y-104956005D01*
X112172994Y-104956004D01*
X112121300Y-104929664D01*
X112011639Y-104873788D01*
X112011636Y-104873787D01*
X111839410Y-104817829D01*
X111707728Y-104796972D01*
X111644594Y-104767042D01*
X111607663Y-104707731D01*
X111608661Y-104637868D01*
X111647271Y-104579636D01*
X111711235Y-104551522D01*
X111727120Y-104550499D01*
X112464864Y-104550499D01*
X112464879Y-104550497D01*
X112464882Y-104550497D01*
X112489987Y-104547586D01*
X112489988Y-104547585D01*
X112489991Y-104547585D01*
X112592765Y-104502206D01*
X112672206Y-104422765D01*
X112717585Y-104319991D01*
X112720500Y-104294865D01*
X112720499Y-102505136D01*
X112720499Y-102505135D01*
X112720499Y-102505131D01*
X132644500Y-102505131D01*
X132644500Y-104294856D01*
X132644502Y-104294882D01*
X132647413Y-104319987D01*
X132647415Y-104319991D01*
X132692793Y-104422764D01*
X132692794Y-104422765D01*
X132772235Y-104502206D01*
X132875009Y-104547585D01*
X132900135Y-104550500D01*
X133637873Y-104550499D01*
X133704910Y-104570183D01*
X133750665Y-104622987D01*
X133760609Y-104692146D01*
X133731584Y-104755702D01*
X133672806Y-104793476D01*
X133657270Y-104796972D01*
X133525589Y-104817829D01*
X133353363Y-104873787D01*
X133353360Y-104873788D01*
X133192002Y-104956006D01*
X133045505Y-105062441D01*
X133045500Y-105062445D01*
X132917445Y-105190500D01*
X132917441Y-105190505D01*
X132811006Y-105337002D01*
X132728788Y-105498360D01*
X132728787Y-105498363D01*
X132672829Y-105670589D01*
X132644500Y-105849448D01*
X132644500Y-106030551D01*
X132672829Y-106209410D01*
X132728787Y-106381636D01*
X132728788Y-106381639D01*
X132811006Y-106542997D01*
X132917441Y-106689494D01*
X132917445Y-106689499D01*
X133045500Y-106817554D01*
X133045505Y-106817558D01*
X133173287Y-106910396D01*
X133192006Y-106923996D01*
X133297484Y-106977740D01*
X133353360Y-107006211D01*
X133353363Y-107006212D01*
X133439476Y-107034191D01*
X133525591Y-107062171D01*
X133598639Y-107073740D01*
X133685678Y-107087527D01*
X133748813Y-107117456D01*
X133785744Y-107176768D01*
X133784746Y-107246631D01*
X133746136Y-107304863D01*
X133685678Y-107332473D01*
X133525589Y-107357829D01*
X133353363Y-107413787D01*
X133353360Y-107413788D01*
X133192002Y-107496006D01*
X133045505Y-107602441D01*
X133045500Y-107602445D01*
X132917445Y-107730500D01*
X132917441Y-107730505D01*
X132811006Y-107877002D01*
X132728788Y-108038360D01*
X132728787Y-108038363D01*
X132672829Y-108210589D01*
X132644500Y-108389448D01*
X132644500Y-108570551D01*
X132672829Y-108749410D01*
X132728787Y-108921636D01*
X132728788Y-108921639D01*
X132811006Y-109082997D01*
X132917441Y-109229494D01*
X132917445Y-109229499D01*
X133045500Y-109357554D01*
X133045505Y-109357558D01*
X133173287Y-109450396D01*
X133192006Y-109463996D01*
X133297484Y-109517740D01*
X133353360Y-109546211D01*
X133353363Y-109546212D01*
X133439476Y-109574191D01*
X133525591Y-109602171D01*
X133598639Y-109613740D01*
X133685678Y-109627527D01*
X133748813Y-109657456D01*
X133785744Y-109716768D01*
X133784746Y-109786631D01*
X133746136Y-109844863D01*
X133685678Y-109872473D01*
X133525589Y-109897829D01*
X133353363Y-109953787D01*
X133353360Y-109953788D01*
X133192002Y-110036006D01*
X133045505Y-110142441D01*
X133045500Y-110142445D01*
X132917445Y-110270500D01*
X132917441Y-110270505D01*
X132811006Y-110417002D01*
X132728788Y-110578360D01*
X132728787Y-110578363D01*
X132672829Y-110750589D01*
X132644500Y-110929448D01*
X132644500Y-111110551D01*
X132672829Y-111289410D01*
X132728787Y-111461636D01*
X132728788Y-111461639D01*
X132811006Y-111622997D01*
X132917441Y-111769494D01*
X132917445Y-111769499D01*
X133045500Y-111897554D01*
X133045505Y-111897558D01*
X133173287Y-111990396D01*
X133192006Y-112003996D01*
X133297484Y-112057740D01*
X133353360Y-112086211D01*
X133353363Y-112086212D01*
X133439476Y-112114191D01*
X133525591Y-112142171D01*
X133598639Y-112153740D01*
X133685678Y-112167527D01*
X133748813Y-112197456D01*
X133785744Y-112256768D01*
X133784746Y-112326631D01*
X133746136Y-112384863D01*
X133685678Y-112412473D01*
X133525589Y-112437829D01*
X133353363Y-112493787D01*
X133353360Y-112493788D01*
X133192002Y-112576006D01*
X133045505Y-112682441D01*
X133045500Y-112682445D01*
X132917445Y-112810500D01*
X132917441Y-112810505D01*
X132811006Y-112957002D01*
X132728788Y-113118360D01*
X132728787Y-113118363D01*
X132672829Y-113290589D01*
X132644500Y-113469448D01*
X132644500Y-113650551D01*
X132672829Y-113829410D01*
X132728787Y-114001636D01*
X132728788Y-114001639D01*
X132811006Y-114162997D01*
X132917441Y-114309494D01*
X132917445Y-114309499D01*
X133045500Y-114437554D01*
X133045505Y-114437558D01*
X133173287Y-114530396D01*
X133192006Y-114543996D01*
X133297484Y-114597740D01*
X133353360Y-114626211D01*
X133353363Y-114626212D01*
X133439476Y-114654191D01*
X133525591Y-114682171D01*
X133608429Y-114695291D01*
X133704449Y-114710500D01*
X133704454Y-114710500D01*
X133885551Y-114710500D01*
X133972259Y-114696765D01*
X134064409Y-114682171D01*
X134236639Y-114626211D01*
X134397994Y-114543996D01*
X134544501Y-114437553D01*
X134672553Y-114309501D01*
X134778996Y-114162994D01*
X134861211Y-114001639D01*
X134917171Y-113829409D01*
X134932822Y-113730591D01*
X134945500Y-113650551D01*
X134945500Y-113469448D01*
X134929019Y-113365397D01*
X134917171Y-113290591D01*
X134861211Y-113118361D01*
X134861211Y-113118360D01*
X134809057Y-113016004D01*
X134778996Y-112957006D01*
X134762127Y-112933788D01*
X134672558Y-112810505D01*
X134672554Y-112810500D01*
X134544499Y-112682445D01*
X134544494Y-112682441D01*
X134397997Y-112576006D01*
X134397996Y-112576005D01*
X134397994Y-112576004D01*
X134346300Y-112549664D01*
X134236639Y-112493788D01*
X134236636Y-112493787D01*
X134064410Y-112437829D01*
X133904321Y-112412473D01*
X133841186Y-112382544D01*
X133804255Y-112323232D01*
X133805253Y-112253370D01*
X133843863Y-112195137D01*
X133904321Y-112167527D01*
X133974425Y-112156422D01*
X134064409Y-112142171D01*
X134236639Y-112086211D01*
X134397994Y-112003996D01*
X134544501Y-111897553D01*
X134672553Y-111769501D01*
X134778996Y-111622994D01*
X134861211Y-111461639D01*
X134917171Y-111289409D01*
X134931765Y-111197259D01*
X134945500Y-111110551D01*
X134945500Y-110929448D01*
X134929019Y-110825397D01*
X134917171Y-110750591D01*
X134861211Y-110578361D01*
X134861211Y-110578360D01*
X134832740Y-110522484D01*
X134778996Y-110417006D01*
X134765396Y-110398287D01*
X134672558Y-110270505D01*
X134672554Y-110270500D01*
X134544499Y-110142445D01*
X134544494Y-110142441D01*
X134397997Y-110036006D01*
X134397996Y-110036005D01*
X134397994Y-110036004D01*
X134346300Y-110009664D01*
X134236639Y-109953788D01*
X134236636Y-109953787D01*
X134064410Y-109897829D01*
X133904321Y-109872473D01*
X133841186Y-109842544D01*
X133804255Y-109783232D01*
X133805253Y-109713370D01*
X133843863Y-109655137D01*
X133904321Y-109627527D01*
X133974425Y-109616422D01*
X134064409Y-109602171D01*
X134236639Y-109546211D01*
X134397994Y-109463996D01*
X134544501Y-109357553D01*
X134672553Y-109229501D01*
X134778996Y-109082994D01*
X134861211Y-108921639D01*
X134917171Y-108749409D01*
X134931765Y-108657259D01*
X134945500Y-108570551D01*
X134945500Y-108389448D01*
X134929019Y-108285397D01*
X134917171Y-108210591D01*
X134861211Y-108038361D01*
X134861211Y-108038360D01*
X134832740Y-107982484D01*
X134778996Y-107877006D01*
X134765396Y-107858287D01*
X134672558Y-107730505D01*
X134672554Y-107730500D01*
X134544499Y-107602445D01*
X134544494Y-107602441D01*
X134397997Y-107496006D01*
X134397996Y-107496005D01*
X134397994Y-107496004D01*
X134346300Y-107469664D01*
X134236639Y-107413788D01*
X134236636Y-107413787D01*
X134064410Y-107357829D01*
X133904321Y-107332473D01*
X133841186Y-107302544D01*
X133804255Y-107243232D01*
X133805253Y-107173370D01*
X133843863Y-107115137D01*
X133904321Y-107087527D01*
X133974425Y-107076422D01*
X134064409Y-107062171D01*
X134236639Y-107006211D01*
X134397994Y-106923996D01*
X134544501Y-106817553D01*
X134672553Y-106689501D01*
X134778996Y-106542994D01*
X134861211Y-106381639D01*
X134917171Y-106209409D01*
X134931765Y-106117259D01*
X134945500Y-106030551D01*
X134945500Y-105849448D01*
X134929019Y-105745397D01*
X134917171Y-105670591D01*
X134861211Y-105498361D01*
X134861211Y-105498360D01*
X134832740Y-105442484D01*
X134778996Y-105337006D01*
X134695976Y-105222738D01*
X134672558Y-105190505D01*
X134672554Y-105190500D01*
X134544499Y-105062445D01*
X134544494Y-105062441D01*
X134397997Y-104956006D01*
X134397996Y-104956005D01*
X134397994Y-104956004D01*
X134346300Y-104929664D01*
X134236639Y-104873788D01*
X134236636Y-104873787D01*
X134064410Y-104817829D01*
X133932728Y-104796972D01*
X133869594Y-104767042D01*
X133832663Y-104707731D01*
X133833661Y-104637868D01*
X133872271Y-104579636D01*
X133936235Y-104551522D01*
X133952120Y-104550499D01*
X134689864Y-104550499D01*
X134689879Y-104550497D01*
X134689882Y-104550497D01*
X134714987Y-104547586D01*
X134714988Y-104547585D01*
X134714991Y-104547585D01*
X134817765Y-104502206D01*
X134897206Y-104422765D01*
X134942585Y-104319991D01*
X134945500Y-104294865D01*
X134945500Y-103878711D01*
X140149500Y-103878711D01*
X140149500Y-104121288D01*
X140181161Y-104361785D01*
X140243947Y-104596104D01*
X140327150Y-104796972D01*
X140336776Y-104820212D01*
X140458064Y-105030289D01*
X140458066Y-105030292D01*
X140458067Y-105030293D01*
X140605733Y-105222736D01*
X140605739Y-105222743D01*
X140777256Y-105394260D01*
X140777262Y-105394265D01*
X140969711Y-105541936D01*
X141179788Y-105663224D01*
X141403900Y-105756054D01*
X141638211Y-105818838D01*
X141818586Y-105842584D01*
X141878711Y-105850500D01*
X141878712Y-105850500D01*
X142121289Y-105850500D01*
X142169388Y-105844167D01*
X142361789Y-105818838D01*
X142596100Y-105756054D01*
X142820212Y-105663224D01*
X143030289Y-105541936D01*
X143222738Y-105394265D01*
X143394265Y-105222738D01*
X143541936Y-105030289D01*
X143663224Y-104820212D01*
X143756054Y-104596100D01*
X143818838Y-104361789D01*
X143850500Y-104121288D01*
X143850500Y-103878712D01*
X143818838Y-103638211D01*
X143756054Y-103403900D01*
X143663224Y-103179788D01*
X143541936Y-102969711D01*
X143394265Y-102777262D01*
X143394260Y-102777256D01*
X143222743Y-102605739D01*
X143222736Y-102605733D01*
X143030293Y-102458067D01*
X143030292Y-102458066D01*
X143030289Y-102458064D01*
X142820212Y-102336776D01*
X142820205Y-102336773D01*
X142596104Y-102243947D01*
X142361785Y-102181161D01*
X142121289Y-102149500D01*
X142121288Y-102149500D01*
X141878712Y-102149500D01*
X141878711Y-102149500D01*
X141638214Y-102181161D01*
X141403895Y-102243947D01*
X141179794Y-102336773D01*
X141179785Y-102336777D01*
X140969706Y-102458067D01*
X140777263Y-102605733D01*
X140777256Y-102605739D01*
X140605739Y-102777256D01*
X140605733Y-102777263D01*
X140458067Y-102969706D01*
X140336777Y-103179785D01*
X140336773Y-103179794D01*
X140243947Y-103403895D01*
X140181161Y-103638214D01*
X140149500Y-103878711D01*
X134945500Y-103878711D01*
X134945499Y-102505136D01*
X134945497Y-102505117D01*
X134942586Y-102480012D01*
X134942585Y-102480010D01*
X134942585Y-102480009D01*
X134897206Y-102377235D01*
X134817765Y-102297794D01*
X134817763Y-102297793D01*
X134714992Y-102252415D01*
X134689865Y-102249500D01*
X132900143Y-102249500D01*
X132900117Y-102249502D01*
X132875012Y-102252413D01*
X132875008Y-102252415D01*
X132772235Y-102297793D01*
X132692794Y-102377234D01*
X132647415Y-102480006D01*
X132647415Y-102480008D01*
X132644500Y-102505131D01*
X112720499Y-102505131D01*
X112720499Y-102505130D01*
X112717586Y-102480012D01*
X112717585Y-102480010D01*
X112717585Y-102480009D01*
X112672206Y-102377235D01*
X112592765Y-102297794D01*
X112592763Y-102297793D01*
X112489992Y-102252415D01*
X112464865Y-102249500D01*
X110675143Y-102249500D01*
X110675117Y-102249502D01*
X110650012Y-102252413D01*
X110650008Y-102252415D01*
X110547235Y-102297793D01*
X110467794Y-102377234D01*
X110422415Y-102480006D01*
X110422415Y-102480008D01*
X110419500Y-102505131D01*
X110419500Y-104294856D01*
X110419502Y-104294882D01*
X110422413Y-104319987D01*
X110422415Y-104319991D01*
X110467793Y-104422764D01*
X110467794Y-104422765D01*
X110547235Y-104502206D01*
X110650009Y-104547585D01*
X110675135Y-104550500D01*
X111412873Y-104550499D01*
X111479910Y-104570183D01*
X111525665Y-104622987D01*
X111535609Y-104692146D01*
X111506584Y-104755702D01*
X111447806Y-104793476D01*
X111432270Y-104796972D01*
X111300589Y-104817829D01*
X111128363Y-104873787D01*
X111128360Y-104873788D01*
X110967002Y-104956006D01*
X110820505Y-105062441D01*
X110820500Y-105062445D01*
X110692445Y-105190500D01*
X110692441Y-105190505D01*
X110586006Y-105337002D01*
X110503788Y-105498360D01*
X110503787Y-105498363D01*
X110447829Y-105670589D01*
X110419500Y-105849448D01*
X110419500Y-106030551D01*
X110447829Y-106209410D01*
X110503787Y-106381636D01*
X110503788Y-106381639D01*
X110586006Y-106542997D01*
X110692441Y-106689494D01*
X110692445Y-106689499D01*
X110820500Y-106817554D01*
X110820505Y-106817558D01*
X110948287Y-106910396D01*
X110967006Y-106923996D01*
X111072484Y-106977740D01*
X111128360Y-107006211D01*
X111128363Y-107006212D01*
X111214476Y-107034191D01*
X111300591Y-107062171D01*
X111373639Y-107073740D01*
X111460678Y-107087527D01*
X111523813Y-107117456D01*
X111560744Y-107176768D01*
X111559746Y-107246631D01*
X111521136Y-107304863D01*
X111460678Y-107332473D01*
X111300589Y-107357829D01*
X111128363Y-107413787D01*
X111128360Y-107413788D01*
X110967002Y-107496006D01*
X110820505Y-107602441D01*
X110820500Y-107602445D01*
X110692445Y-107730500D01*
X110692441Y-107730505D01*
X110586006Y-107877002D01*
X110503788Y-108038360D01*
X110503787Y-108038363D01*
X110447829Y-108210589D01*
X110419500Y-108389448D01*
X110419500Y-108570551D01*
X110447829Y-108749410D01*
X110503787Y-108921636D01*
X110503788Y-108921639D01*
X110586006Y-109082997D01*
X110692441Y-109229494D01*
X110692445Y-109229499D01*
X110820500Y-109357554D01*
X110820505Y-109357558D01*
X110948287Y-109450396D01*
X110967006Y-109463996D01*
X111072484Y-109517740D01*
X111128360Y-109546211D01*
X111128363Y-109546212D01*
X111214476Y-109574191D01*
X111300591Y-109602171D01*
X111373639Y-109613740D01*
X111460678Y-109627527D01*
X111523813Y-109657456D01*
X111560744Y-109716768D01*
X111559746Y-109786631D01*
X111521136Y-109844863D01*
X111460678Y-109872473D01*
X111300589Y-109897829D01*
X111128363Y-109953787D01*
X111128360Y-109953788D01*
X110967002Y-110036006D01*
X110820505Y-110142441D01*
X110820500Y-110142445D01*
X110692445Y-110270500D01*
X110692441Y-110270505D01*
X110586006Y-110417002D01*
X110503788Y-110578360D01*
X110503787Y-110578363D01*
X110447829Y-110750589D01*
X110419500Y-110929448D01*
X110419500Y-111110551D01*
X110447829Y-111289410D01*
X110503787Y-111461636D01*
X110503788Y-111461639D01*
X110586006Y-111622997D01*
X110692441Y-111769494D01*
X110692445Y-111769499D01*
X110820500Y-111897554D01*
X110820505Y-111897558D01*
X110948287Y-111990396D01*
X110967006Y-112003996D01*
X111072484Y-112057740D01*
X111128360Y-112086211D01*
X111128363Y-112086212D01*
X111214476Y-112114191D01*
X111300591Y-112142171D01*
X111373639Y-112153740D01*
X111460678Y-112167527D01*
X111523813Y-112197456D01*
X111560744Y-112256768D01*
X111559746Y-112326631D01*
X111521136Y-112384863D01*
X111460678Y-112412473D01*
X111300589Y-112437829D01*
X111128363Y-112493787D01*
X111128360Y-112493788D01*
X110967002Y-112576006D01*
X110820505Y-112682441D01*
X110820500Y-112682445D01*
X110692445Y-112810500D01*
X110692441Y-112810505D01*
X110586006Y-112957002D01*
X110503788Y-113118360D01*
X110503787Y-113118363D01*
X110447829Y-113290589D01*
X110419500Y-113469448D01*
X110419500Y-113650551D01*
X110447829Y-113829410D01*
X110503787Y-114001636D01*
X110503788Y-114001639D01*
X110586006Y-114162997D01*
X110692441Y-114309494D01*
X110692445Y-114309499D01*
X110820500Y-114437554D01*
X110820505Y-114437558D01*
X110948287Y-114530396D01*
X110967006Y-114543996D01*
X111072484Y-114597740D01*
X111128360Y-114626211D01*
X111128363Y-114626212D01*
X111214476Y-114654191D01*
X111300591Y-114682171D01*
X111373639Y-114693740D01*
X111460678Y-114707527D01*
X111523813Y-114737456D01*
X111560744Y-114796768D01*
X111559746Y-114866631D01*
X111521136Y-114924863D01*
X111460678Y-114952473D01*
X111300589Y-114977829D01*
X111128363Y-115033787D01*
X111128360Y-115033788D01*
X110967002Y-115116006D01*
X110820505Y-115222441D01*
X110820500Y-115222445D01*
X110692445Y-115350500D01*
X110692441Y-115350505D01*
X110586006Y-115497002D01*
X110503788Y-115658360D01*
X110503787Y-115658363D01*
X110447829Y-115830589D01*
X110419500Y-116009448D01*
X110419500Y-116190551D01*
X110447829Y-116369410D01*
X110503787Y-116541636D01*
X110503788Y-116541639D01*
X110586006Y-116702997D01*
X110692441Y-116849494D01*
X110692445Y-116849499D01*
X110820500Y-116977554D01*
X110820505Y-116977558D01*
X110948287Y-117070396D01*
X110967006Y-117083996D01*
X111072484Y-117137740D01*
X111128360Y-117166211D01*
X111128363Y-117166212D01*
X111214476Y-117194191D01*
X111300591Y-117222171D01*
X111373639Y-117233740D01*
X111460678Y-117247527D01*
X111523813Y-117277456D01*
X111560744Y-117336768D01*
X111559746Y-117406631D01*
X111521136Y-117464863D01*
X111460678Y-117492473D01*
X111300589Y-117517829D01*
X111128363Y-117573787D01*
X111128360Y-117573788D01*
X110967002Y-117656006D01*
X110820505Y-117762441D01*
X110820500Y-117762445D01*
X110692445Y-117890500D01*
X110692441Y-117890505D01*
X110586006Y-118037002D01*
X110503788Y-118198360D01*
X110503787Y-118198363D01*
X110447829Y-118370589D01*
X110419500Y-118549448D01*
X110419500Y-118730551D01*
X110447829Y-118909410D01*
X110503787Y-119081636D01*
X110503788Y-119081639D01*
X110586006Y-119242997D01*
X110692441Y-119389494D01*
X110692445Y-119389499D01*
X110820500Y-119517554D01*
X110820505Y-119517558D01*
X110948287Y-119610396D01*
X110967006Y-119623996D01*
X111072484Y-119677740D01*
X111128360Y-119706211D01*
X111128363Y-119706212D01*
X111214476Y-119734191D01*
X111300591Y-119762171D01*
X111373639Y-119773740D01*
X111460678Y-119787527D01*
X111523813Y-119817456D01*
X111560744Y-119876768D01*
X111559746Y-119946631D01*
X111521136Y-120004863D01*
X111460678Y-120032473D01*
X111300589Y-120057829D01*
X111128363Y-120113787D01*
X111128360Y-120113788D01*
X110967002Y-120196006D01*
X110820505Y-120302441D01*
X110820500Y-120302445D01*
X110692445Y-120430500D01*
X110692441Y-120430505D01*
X110586006Y-120577002D01*
X110503788Y-120738360D01*
X110503787Y-120738363D01*
X110447829Y-120910589D01*
X110419500Y-121089448D01*
X110419500Y-121270551D01*
X110447829Y-121449410D01*
X110503787Y-121621636D01*
X110503788Y-121621639D01*
X110586006Y-121782997D01*
X110692441Y-121929494D01*
X110692445Y-121929499D01*
X110820500Y-122057554D01*
X110820505Y-122057558D01*
X110900050Y-122115350D01*
X110967006Y-122163996D01*
X111072484Y-122217740D01*
X111128360Y-122246211D01*
X111128363Y-122246212D01*
X111202337Y-122270247D01*
X111300591Y-122302171D01*
X111373639Y-122313740D01*
X111460678Y-122327527D01*
X111523813Y-122357456D01*
X111560744Y-122416768D01*
X111559746Y-122486631D01*
X111521136Y-122544863D01*
X111460678Y-122572473D01*
X111300589Y-122597829D01*
X111128363Y-122653787D01*
X111128360Y-122653788D01*
X110967002Y-122736006D01*
X110820505Y-122842441D01*
X110820500Y-122842445D01*
X110692445Y-122970500D01*
X110692441Y-122970505D01*
X110586006Y-123117002D01*
X110503788Y-123278360D01*
X110503787Y-123278363D01*
X110447829Y-123450589D01*
X110419500Y-123629448D01*
X110419500Y-123810551D01*
X110447829Y-123989410D01*
X110503787Y-124161636D01*
X110503788Y-124161639D01*
X110586006Y-124322997D01*
X110692441Y-124469494D01*
X110692445Y-124469499D01*
X110820500Y-124597554D01*
X110820505Y-124597558D01*
X110948287Y-124690396D01*
X110967006Y-124703996D01*
X111072484Y-124757740D01*
X111128360Y-124786211D01*
X111128363Y-124786212D01*
X111181273Y-124803403D01*
X111300591Y-124842171D01*
X111373639Y-124853740D01*
X111460678Y-124867527D01*
X111523813Y-124897456D01*
X111560744Y-124956768D01*
X111559746Y-125026631D01*
X111521136Y-125084863D01*
X111460678Y-125112473D01*
X111300589Y-125137829D01*
X111128363Y-125193787D01*
X111128360Y-125193788D01*
X110967002Y-125276006D01*
X110820505Y-125382441D01*
X110820500Y-125382445D01*
X110692445Y-125510500D01*
X110692441Y-125510505D01*
X110586006Y-125657002D01*
X110503788Y-125818360D01*
X110503787Y-125818363D01*
X110447829Y-125990589D01*
X110419500Y-126169448D01*
X110419500Y-126350551D01*
X110447829Y-126529410D01*
X110503787Y-126701636D01*
X110503788Y-126701639D01*
X110586006Y-126862997D01*
X110692441Y-127009494D01*
X110692445Y-127009499D01*
X110820500Y-127137554D01*
X110820505Y-127137558D01*
X110948287Y-127230396D01*
X110967006Y-127243996D01*
X111072484Y-127297740D01*
X111128360Y-127326211D01*
X111128363Y-127326212D01*
X111214476Y-127354191D01*
X111300591Y-127382171D01*
X111373639Y-127393740D01*
X111460678Y-127407527D01*
X111523813Y-127437456D01*
X111560744Y-127496768D01*
X111559746Y-127566631D01*
X111521136Y-127624863D01*
X111460678Y-127652473D01*
X111300589Y-127677829D01*
X111128363Y-127733787D01*
X111128360Y-127733788D01*
X110967002Y-127816006D01*
X110820505Y-127922441D01*
X110820500Y-127922445D01*
X110692445Y-128050500D01*
X110692441Y-128050505D01*
X110586006Y-128197002D01*
X110503788Y-128358360D01*
X110503787Y-128358363D01*
X110447829Y-128530589D01*
X110419500Y-128709448D01*
X110419500Y-128890551D01*
X110447829Y-129069410D01*
X110503787Y-129241636D01*
X110503788Y-129241639D01*
X110586006Y-129402997D01*
X110692441Y-129549494D01*
X110692445Y-129549499D01*
X110820500Y-129677554D01*
X110820505Y-129677558D01*
X110948287Y-129770396D01*
X110967006Y-129783996D01*
X111072484Y-129837740D01*
X111128360Y-129866211D01*
X111128363Y-129866212D01*
X111214476Y-129894191D01*
X111300591Y-129922171D01*
X111373639Y-129933740D01*
X111460678Y-129947527D01*
X111523813Y-129977456D01*
X111560744Y-130036768D01*
X111559746Y-130106631D01*
X111521136Y-130164863D01*
X111460678Y-130192473D01*
X111300589Y-130217829D01*
X111128363Y-130273787D01*
X111128360Y-130273788D01*
X110967002Y-130356006D01*
X110820505Y-130462441D01*
X110820500Y-130462445D01*
X110692445Y-130590500D01*
X110692441Y-130590505D01*
X110586006Y-130737002D01*
X110503788Y-130898360D01*
X110503787Y-130898363D01*
X110447829Y-131070589D01*
X110419500Y-131249448D01*
X110419500Y-131430551D01*
X110447829Y-131609410D01*
X110503787Y-131781636D01*
X110503788Y-131781639D01*
X110523426Y-131820179D01*
X110570919Y-131913389D01*
X110586006Y-131942997D01*
X110692441Y-132089494D01*
X110692445Y-132089499D01*
X110820500Y-132217554D01*
X110820505Y-132217558D01*
X110875758Y-132257701D01*
X110967006Y-132323996D01*
X111072484Y-132377740D01*
X111128360Y-132406211D01*
X111128363Y-132406212D01*
X111178331Y-132422447D01*
X111300591Y-132462171D01*
X111383429Y-132475291D01*
X111479449Y-132490500D01*
X111479454Y-132490500D01*
X111660551Y-132490500D01*
X111747259Y-132476765D01*
X111839409Y-132462171D01*
X112011639Y-132406211D01*
X112011639Y-132406210D01*
X112011644Y-132406209D01*
X112147904Y-132336780D01*
X112216574Y-132323883D01*
X112281314Y-132350159D01*
X112321572Y-132407265D01*
X112328200Y-132447264D01*
X112328200Y-135312735D01*
X112308515Y-135379774D01*
X112255711Y-135425529D01*
X112186553Y-135435473D01*
X112147905Y-135423220D01*
X112011639Y-135353788D01*
X112011636Y-135353787D01*
X111839410Y-135297829D01*
X111660551Y-135269500D01*
X111660546Y-135269500D01*
X111479454Y-135269500D01*
X111479449Y-135269500D01*
X111300589Y-135297829D01*
X111128363Y-135353787D01*
X111128360Y-135353788D01*
X110967002Y-135436006D01*
X110820505Y-135542441D01*
X110820500Y-135542445D01*
X110692445Y-135670500D01*
X110692441Y-135670505D01*
X110586006Y-135817002D01*
X110503788Y-135978360D01*
X110503787Y-135978363D01*
X110447829Y-136150589D01*
X110419500Y-136329448D01*
X110419500Y-136510551D01*
X110447829Y-136689410D01*
X110503787Y-136861636D01*
X110503788Y-136861639D01*
X110586003Y-137022993D01*
X110636586Y-137092615D01*
X110660065Y-137158422D01*
X110644239Y-137226476D01*
X110594133Y-137275170D01*
X110536267Y-137289500D01*
X106282273Y-137289500D01*
X106180410Y-137316793D01*
X106089087Y-137369520D01*
X106089084Y-137369522D01*
X105686673Y-137771933D01*
X105625350Y-137805418D01*
X105555658Y-137800434D01*
X105499725Y-137758562D01*
X105475308Y-137693098D01*
X105481061Y-137645934D01*
X105522171Y-137519409D01*
X105550500Y-137340551D01*
X105550500Y-137159448D01*
X105528887Y-137022994D01*
X105522171Y-136980591D01*
X105466211Y-136808361D01*
X105466211Y-136808360D01*
X105437740Y-136752484D01*
X105383996Y-136647006D01*
X105370396Y-136628287D01*
X105277558Y-136500505D01*
X105277554Y-136500500D01*
X105149499Y-136372445D01*
X105149494Y-136372441D01*
X105002997Y-136266006D01*
X105002996Y-136266005D01*
X105002994Y-136266004D01*
X104951300Y-136239664D01*
X104841639Y-136183788D01*
X104841636Y-136183787D01*
X104669410Y-136127829D01*
X104635594Y-136122473D01*
X104572459Y-136092544D01*
X104535528Y-136033232D01*
X104536526Y-135963370D01*
X104575136Y-135905137D01*
X104635594Y-135877527D01*
X104643388Y-135876292D01*
X104669409Y-135872171D01*
X104841639Y-135816211D01*
X105002994Y-135733996D01*
X105149501Y-135627553D01*
X105277553Y-135499501D01*
X105383996Y-135352994D01*
X105466211Y-135191639D01*
X105522171Y-135019409D01*
X105536765Y-134927259D01*
X105550500Y-134840551D01*
X105550500Y-134659448D01*
X105534019Y-134555397D01*
X105522171Y-134480591D01*
X105479931Y-134350586D01*
X105466212Y-134308363D01*
X105466211Y-134308360D01*
X105435847Y-134248768D01*
X105383996Y-134147006D01*
X105342216Y-134089500D01*
X105277558Y-134000505D01*
X105277554Y-134000500D01*
X105149499Y-133872445D01*
X105149494Y-133872441D01*
X105002997Y-133766006D01*
X105002996Y-133766005D01*
X105002994Y-133766004D01*
X104951300Y-133739664D01*
X104841639Y-133683788D01*
X104841636Y-133683787D01*
X104669410Y-133627829D01*
X104635594Y-133622473D01*
X104572459Y-133592544D01*
X104535528Y-133533232D01*
X104536526Y-133463370D01*
X104575136Y-133405137D01*
X104635594Y-133377527D01*
X104643388Y-133376292D01*
X104669409Y-133372171D01*
X104841639Y-133316211D01*
X105002994Y-133233996D01*
X105149501Y-133127553D01*
X105277553Y-132999501D01*
X105383996Y-132852994D01*
X105466211Y-132691639D01*
X105522171Y-132519409D01*
X105539434Y-132410413D01*
X105550500Y-132340551D01*
X105550500Y-132159448D01*
X105534019Y-132055397D01*
X105522171Y-131980591D01*
X105489254Y-131879280D01*
X105466212Y-131808363D01*
X105466211Y-131808360D01*
X105432552Y-131742302D01*
X105383996Y-131647006D01*
X105318600Y-131556995D01*
X105277558Y-131500505D01*
X105277554Y-131500500D01*
X105149499Y-131372445D01*
X105149494Y-131372441D01*
X105002997Y-131266006D01*
X105002996Y-131266005D01*
X105002994Y-131266004D01*
X104951300Y-131239664D01*
X104841639Y-131183788D01*
X104841636Y-131183787D01*
X104744182Y-131152123D01*
X104686506Y-131112686D01*
X104659308Y-131048327D01*
X104662725Y-131002102D01*
X104675500Y-130954427D01*
X104675500Y-130954420D01*
X104676561Y-130946367D01*
X104679473Y-130946750D01*
X104695185Y-130893244D01*
X104747989Y-130847489D01*
X104761175Y-130842354D01*
X104841639Y-130816211D01*
X105002994Y-130733996D01*
X105149501Y-130627553D01*
X105277553Y-130499501D01*
X105383996Y-130352994D01*
X105466211Y-130191639D01*
X105522171Y-130019409D01*
X105539933Y-129907264D01*
X105550500Y-129840551D01*
X105550500Y-129659448D01*
X105533084Y-129549494D01*
X105522171Y-129480591D01*
X105466211Y-129308361D01*
X105466211Y-129308360D01*
X105432213Y-129241636D01*
X105383996Y-129147006D01*
X105327619Y-129069409D01*
X105277558Y-129000505D01*
X105277554Y-129000500D01*
X105149499Y-128872445D01*
X105149494Y-128872441D01*
X105002997Y-128766006D01*
X105002996Y-128766005D01*
X105002994Y-128766004D01*
X104951300Y-128739664D01*
X104841639Y-128683788D01*
X104841636Y-128683787D01*
X104669410Y-128627829D01*
X104490551Y-128599500D01*
X104490546Y-128599500D01*
X104059454Y-128599500D01*
X104059449Y-128599500D01*
X103880589Y-128627829D01*
X103708363Y-128683787D01*
X103708360Y-128683788D01*
X103547002Y-128766006D01*
X103400505Y-128872441D01*
X103400500Y-128872445D01*
X103272445Y-129000500D01*
X103272441Y-129000505D01*
X103166006Y-129147002D01*
X103083788Y-129308360D01*
X103083787Y-129308363D01*
X103027829Y-129480589D01*
X102999500Y-129659448D01*
X102999500Y-129840551D01*
X103027829Y-130019410D01*
X103083787Y-130191636D01*
X103083788Y-130191639D01*
X103125646Y-130273787D01*
X103162200Y-130345529D01*
X103166006Y-130352997D01*
X103272441Y-130499494D01*
X103272445Y-130499499D01*
X103387995Y-130615049D01*
X103421480Y-130676372D01*
X103416496Y-130746064D01*
X103387995Y-130790411D01*
X102641822Y-131536584D01*
X102641820Y-131536587D01*
X102621150Y-131572389D01*
X102589093Y-131627912D01*
X102578301Y-131668189D01*
X102578301Y-131668190D01*
X102578300Y-131668189D01*
X102561800Y-131729771D01*
X100500500Y-131729771D01*
X100500500Y-103878711D01*
X102149500Y-103878711D01*
X102149500Y-104121288D01*
X102181161Y-104361785D01*
X102243947Y-104596104D01*
X102327150Y-104796972D01*
X102336776Y-104820212D01*
X102458064Y-105030289D01*
X102458066Y-105030292D01*
X102458067Y-105030293D01*
X102605733Y-105222736D01*
X102605739Y-105222743D01*
X102777256Y-105394260D01*
X102777262Y-105394265D01*
X102969711Y-105541936D01*
X103179788Y-105663224D01*
X103403900Y-105756054D01*
X103638211Y-105818838D01*
X103818586Y-105842584D01*
X103878711Y-105850500D01*
X103878712Y-105850500D01*
X104121289Y-105850500D01*
X104169388Y-105844167D01*
X104361789Y-105818838D01*
X104596100Y-105756054D01*
X104820212Y-105663224D01*
X105030289Y-105541936D01*
X105222738Y-105394265D01*
X105394265Y-105222738D01*
X105541936Y-105030289D01*
X105663224Y-104820212D01*
X105756054Y-104596100D01*
X105818838Y-104361789D01*
X105850500Y-104121288D01*
X105850500Y-103878712D01*
X105818838Y-103638211D01*
X105756054Y-103403900D01*
X105663224Y-103179788D01*
X105541936Y-102969711D01*
X105394265Y-102777262D01*
X105394260Y-102777256D01*
X105222743Y-102605739D01*
X105222736Y-102605733D01*
X105030293Y-102458067D01*
X105030292Y-102458066D01*
X105030289Y-102458064D01*
X104820212Y-102336776D01*
X104820205Y-102336773D01*
X104596104Y-102243947D01*
X104361785Y-102181161D01*
X104121289Y-102149500D01*
X104121288Y-102149500D01*
X103878712Y-102149500D01*
X103878711Y-102149500D01*
X103638214Y-102181161D01*
X103403895Y-102243947D01*
X103179794Y-102336773D01*
X103179785Y-102336777D01*
X102969706Y-102458067D01*
X102777263Y-102605733D01*
X102777256Y-102605739D01*
X102605739Y-102777256D01*
X102605733Y-102777263D01*
X102458067Y-102969706D01*
X102336777Y-103179785D01*
X102336773Y-103179794D01*
X102243947Y-103403895D01*
X102181161Y-103638214D01*
X102149500Y-103878711D01*
X100500500Y-103878711D01*
X100500500Y-100124500D01*
X100520185Y-100057461D01*
X100572989Y-100011706D01*
X100624500Y-100000500D01*
X145375500Y-100000500D01*
X145442539Y-100020185D01*
G37*
%TD.AperFunction*%
%TD*%
M02*
