%TF.GenerationSoftware,KiCad,Pcbnew,10.0.6*%
%TF.CreationDate,2026-09-28T20:35:21-04:00*%
%TF.ProjectId,Sigil_EInk,53696769-6c5f-4454-996e-6b2e6b696361,rev?*%
%TF.SameCoordinates,Original*%
%TF.FileFunction,Drillmap*%
%TF.FilePolarity,Positive*%
%FSLAX45Y45*%
G04 Gerber Fmt 4.5, Leading zero omitted, Abs format (unit mm)*
G04 Created by KiCad (PCBNEW 10.0.6) date 2026-09-28 20:35:21*
%MOMM*%
%LPD*%
G01*
G04 APERTURE LIST*
%ADD10C,0.100000*%
%ADD11C,0.200000*%
%ADD12C,0.320000*%
G04 APERTURE END LIST*
D10*
X10000000Y-9950000D02*
X14600000Y-9950000D01*
X10000000Y-17600000D02*
X10000000Y-9950000D01*
X14600000Y-9950000D02*
X14600000Y-17600000D01*
X14600000Y-17600000D02*
X10000000Y-17600000D01*
D11*
D12*
X10240000Y-10240000D02*
X10560000Y-10560000D01*
X10560000Y-10240000D02*
X10240000Y-10560000D01*
X10240000Y-17040000D02*
X10560000Y-17360000D01*
X10560000Y-17040000D02*
X10240000Y-17360000D01*
X14040000Y-10240000D02*
X14360000Y-10560000D01*
X14360000Y-10240000D02*
X14040000Y-10560000D01*
X14040000Y-17040000D02*
X14360000Y-17360000D01*
X14360000Y-17040000D02*
X14040000Y-17360000D01*
D11*
X10255777Y-17916484D02*
X10255777Y-17716484D01*
X10255777Y-17716484D02*
X10303396Y-17716484D01*
X10303396Y-17716484D02*
X10331967Y-17726008D01*
X10331967Y-17726008D02*
X10351015Y-17745055D01*
X10351015Y-17745055D02*
X10360539Y-17764103D01*
X10360539Y-17764103D02*
X10370063Y-17802198D01*
X10370063Y-17802198D02*
X10370063Y-17830770D01*
X10370063Y-17830770D02*
X10360539Y-17868865D01*
X10360539Y-17868865D02*
X10351015Y-17887912D01*
X10351015Y-17887912D02*
X10331967Y-17906960D01*
X10331967Y-17906960D02*
X10303396Y-17916484D01*
X10303396Y-17916484D02*
X10255777Y-17916484D01*
X10455777Y-17916484D02*
X10455777Y-17783150D01*
X10455777Y-17821246D02*
X10465301Y-17802198D01*
X10465301Y-17802198D02*
X10474824Y-17792674D01*
X10474824Y-17792674D02*
X10493872Y-17783150D01*
X10493872Y-17783150D02*
X10512920Y-17783150D01*
X10579586Y-17916484D02*
X10579586Y-17783150D01*
X10579586Y-17716484D02*
X10570063Y-17726008D01*
X10570063Y-17726008D02*
X10579586Y-17735531D01*
X10579586Y-17735531D02*
X10589110Y-17726008D01*
X10589110Y-17726008D02*
X10579586Y-17716484D01*
X10579586Y-17716484D02*
X10579586Y-17735531D01*
X10703396Y-17916484D02*
X10684348Y-17906960D01*
X10684348Y-17906960D02*
X10674824Y-17887912D01*
X10674824Y-17887912D02*
X10674824Y-17716484D01*
X10808158Y-17916484D02*
X10789110Y-17906960D01*
X10789110Y-17906960D02*
X10779586Y-17887912D01*
X10779586Y-17887912D02*
X10779586Y-17716484D01*
X11036729Y-17916484D02*
X11036729Y-17716484D01*
X11036729Y-17716484D02*
X11103396Y-17859341D01*
X11103396Y-17859341D02*
X11170063Y-17716484D01*
X11170063Y-17716484D02*
X11170063Y-17916484D01*
X11351015Y-17916484D02*
X11351015Y-17811722D01*
X11351015Y-17811722D02*
X11341491Y-17792674D01*
X11341491Y-17792674D02*
X11322443Y-17783150D01*
X11322443Y-17783150D02*
X11284348Y-17783150D01*
X11284348Y-17783150D02*
X11265301Y-17792674D01*
X11351015Y-17906960D02*
X11331967Y-17916484D01*
X11331967Y-17916484D02*
X11284348Y-17916484D01*
X11284348Y-17916484D02*
X11265301Y-17906960D01*
X11265301Y-17906960D02*
X11255777Y-17887912D01*
X11255777Y-17887912D02*
X11255777Y-17868865D01*
X11255777Y-17868865D02*
X11265301Y-17849817D01*
X11265301Y-17849817D02*
X11284348Y-17840293D01*
X11284348Y-17840293D02*
X11331967Y-17840293D01*
X11331967Y-17840293D02*
X11351015Y-17830770D01*
X11446253Y-17783150D02*
X11446253Y-17983150D01*
X11446253Y-17792674D02*
X11465301Y-17783150D01*
X11465301Y-17783150D02*
X11503396Y-17783150D01*
X11503396Y-17783150D02*
X11522443Y-17792674D01*
X11522443Y-17792674D02*
X11531967Y-17802198D01*
X11531967Y-17802198D02*
X11541491Y-17821246D01*
X11541491Y-17821246D02*
X11541491Y-17878389D01*
X11541491Y-17878389D02*
X11531967Y-17897436D01*
X11531967Y-17897436D02*
X11522443Y-17906960D01*
X11522443Y-17906960D02*
X11503396Y-17916484D01*
X11503396Y-17916484D02*
X11465301Y-17916484D01*
X11465301Y-17916484D02*
X11446253Y-17906960D01*
X11627205Y-17897436D02*
X11636729Y-17906960D01*
X11636729Y-17906960D02*
X11627205Y-17916484D01*
X11627205Y-17916484D02*
X11617682Y-17906960D01*
X11617682Y-17906960D02*
X11627205Y-17897436D01*
X11627205Y-17897436D02*
X11627205Y-17916484D01*
X11627205Y-17792674D02*
X11636729Y-17802198D01*
X11636729Y-17802198D02*
X11627205Y-17811722D01*
X11627205Y-17811722D02*
X11617682Y-17802198D01*
X11617682Y-17802198D02*
X11627205Y-17792674D01*
X11627205Y-17792674D02*
X11627205Y-17811722D01*
X9795000Y-18145000D02*
X9995000Y-18345000D01*
X9995000Y-18145000D02*
X9795000Y-18345000D01*
X10236729Y-18136484D02*
X10360539Y-18136484D01*
X10360539Y-18136484D02*
X10293872Y-18212674D01*
X10293872Y-18212674D02*
X10322444Y-18212674D01*
X10322444Y-18212674D02*
X10341491Y-18222198D01*
X10341491Y-18222198D02*
X10351015Y-18231722D01*
X10351015Y-18231722D02*
X10360539Y-18250770D01*
X10360539Y-18250770D02*
X10360539Y-18298389D01*
X10360539Y-18298389D02*
X10351015Y-18317436D01*
X10351015Y-18317436D02*
X10341491Y-18326960D01*
X10341491Y-18326960D02*
X10322444Y-18336484D01*
X10322444Y-18336484D02*
X10265301Y-18336484D01*
X10265301Y-18336484D02*
X10246253Y-18326960D01*
X10246253Y-18326960D02*
X10236729Y-18317436D01*
X10446253Y-18317436D02*
X10455777Y-18326960D01*
X10455777Y-18326960D02*
X10446253Y-18336484D01*
X10446253Y-18336484D02*
X10436729Y-18326960D01*
X10436729Y-18326960D02*
X10446253Y-18317436D01*
X10446253Y-18317436D02*
X10446253Y-18336484D01*
X10531967Y-18155531D02*
X10541491Y-18146008D01*
X10541491Y-18146008D02*
X10560539Y-18136484D01*
X10560539Y-18136484D02*
X10608158Y-18136484D01*
X10608158Y-18136484D02*
X10627205Y-18146008D01*
X10627205Y-18146008D02*
X10636729Y-18155531D01*
X10636729Y-18155531D02*
X10646253Y-18174579D01*
X10646253Y-18174579D02*
X10646253Y-18193627D01*
X10646253Y-18193627D02*
X10636729Y-18222198D01*
X10636729Y-18222198D02*
X10522444Y-18336484D01*
X10522444Y-18336484D02*
X10646253Y-18336484D01*
X10770063Y-18136484D02*
X10789110Y-18136484D01*
X10789110Y-18136484D02*
X10808158Y-18146008D01*
X10808158Y-18146008D02*
X10817682Y-18155531D01*
X10817682Y-18155531D02*
X10827205Y-18174579D01*
X10827205Y-18174579D02*
X10836729Y-18212674D01*
X10836729Y-18212674D02*
X10836729Y-18260293D01*
X10836729Y-18260293D02*
X10827205Y-18298389D01*
X10827205Y-18298389D02*
X10817682Y-18317436D01*
X10817682Y-18317436D02*
X10808158Y-18326960D01*
X10808158Y-18326960D02*
X10789110Y-18336484D01*
X10789110Y-18336484D02*
X10770063Y-18336484D01*
X10770063Y-18336484D02*
X10751015Y-18326960D01*
X10751015Y-18326960D02*
X10741491Y-18317436D01*
X10741491Y-18317436D02*
X10731967Y-18298389D01*
X10731967Y-18298389D02*
X10722444Y-18260293D01*
X10722444Y-18260293D02*
X10722444Y-18212674D01*
X10722444Y-18212674D02*
X10731967Y-18174579D01*
X10731967Y-18174579D02*
X10741491Y-18155531D01*
X10741491Y-18155531D02*
X10751015Y-18146008D01*
X10751015Y-18146008D02*
X10770063Y-18136484D01*
X10960539Y-18136484D02*
X10979586Y-18136484D01*
X10979586Y-18136484D02*
X10998634Y-18146008D01*
X10998634Y-18146008D02*
X11008158Y-18155531D01*
X11008158Y-18155531D02*
X11017682Y-18174579D01*
X11017682Y-18174579D02*
X11027205Y-18212674D01*
X11027205Y-18212674D02*
X11027205Y-18260293D01*
X11027205Y-18260293D02*
X11017682Y-18298389D01*
X11017682Y-18298389D02*
X11008158Y-18317436D01*
X11008158Y-18317436D02*
X10998634Y-18326960D01*
X10998634Y-18326960D02*
X10979586Y-18336484D01*
X10979586Y-18336484D02*
X10960539Y-18336484D01*
X10960539Y-18336484D02*
X10941491Y-18326960D01*
X10941491Y-18326960D02*
X10931967Y-18317436D01*
X10931967Y-18317436D02*
X10922444Y-18298389D01*
X10922444Y-18298389D02*
X10912920Y-18260293D01*
X10912920Y-18260293D02*
X10912920Y-18212674D01*
X10912920Y-18212674D02*
X10922444Y-18174579D01*
X10922444Y-18174579D02*
X10931967Y-18155531D01*
X10931967Y-18155531D02*
X10941491Y-18146008D01*
X10941491Y-18146008D02*
X10960539Y-18136484D01*
X11112920Y-18336484D02*
X11112920Y-18203150D01*
X11112920Y-18222198D02*
X11122444Y-18212674D01*
X11122444Y-18212674D02*
X11141491Y-18203150D01*
X11141491Y-18203150D02*
X11170063Y-18203150D01*
X11170063Y-18203150D02*
X11189110Y-18212674D01*
X11189110Y-18212674D02*
X11198634Y-18231722D01*
X11198634Y-18231722D02*
X11198634Y-18336484D01*
X11198634Y-18231722D02*
X11208158Y-18212674D01*
X11208158Y-18212674D02*
X11227205Y-18203150D01*
X11227205Y-18203150D02*
X11255777Y-18203150D01*
X11255777Y-18203150D02*
X11274824Y-18212674D01*
X11274824Y-18212674D02*
X11284348Y-18231722D01*
X11284348Y-18231722D02*
X11284348Y-18336484D01*
X11379586Y-18336484D02*
X11379586Y-18203150D01*
X11379586Y-18222198D02*
X11389110Y-18212674D01*
X11389110Y-18212674D02*
X11408158Y-18203150D01*
X11408158Y-18203150D02*
X11436729Y-18203150D01*
X11436729Y-18203150D02*
X11455777Y-18212674D01*
X11455777Y-18212674D02*
X11465301Y-18231722D01*
X11465301Y-18231722D02*
X11465301Y-18336484D01*
X11465301Y-18231722D02*
X11474824Y-18212674D01*
X11474824Y-18212674D02*
X11493872Y-18203150D01*
X11493872Y-18203150D02*
X11522443Y-18203150D01*
X11522443Y-18203150D02*
X11541491Y-18212674D01*
X11541491Y-18212674D02*
X11551015Y-18231722D01*
X11551015Y-18231722D02*
X11551015Y-18336484D01*
X11941491Y-18126960D02*
X11770063Y-18384103D01*
X12198634Y-18136484D02*
X12217682Y-18136484D01*
X12217682Y-18136484D02*
X12236729Y-18146008D01*
X12236729Y-18146008D02*
X12246253Y-18155531D01*
X12246253Y-18155531D02*
X12255777Y-18174579D01*
X12255777Y-18174579D02*
X12265301Y-18212674D01*
X12265301Y-18212674D02*
X12265301Y-18260293D01*
X12265301Y-18260293D02*
X12255777Y-18298389D01*
X12255777Y-18298389D02*
X12246253Y-18317436D01*
X12246253Y-18317436D02*
X12236729Y-18326960D01*
X12236729Y-18326960D02*
X12217682Y-18336484D01*
X12217682Y-18336484D02*
X12198634Y-18336484D01*
X12198634Y-18336484D02*
X12179586Y-18326960D01*
X12179586Y-18326960D02*
X12170063Y-18317436D01*
X12170063Y-18317436D02*
X12160539Y-18298389D01*
X12160539Y-18298389D02*
X12151015Y-18260293D01*
X12151015Y-18260293D02*
X12151015Y-18212674D01*
X12151015Y-18212674D02*
X12160539Y-18174579D01*
X12160539Y-18174579D02*
X12170063Y-18155531D01*
X12170063Y-18155531D02*
X12179586Y-18146008D01*
X12179586Y-18146008D02*
X12198634Y-18136484D01*
X12351015Y-18317436D02*
X12360539Y-18326960D01*
X12360539Y-18326960D02*
X12351015Y-18336484D01*
X12351015Y-18336484D02*
X12341491Y-18326960D01*
X12341491Y-18326960D02*
X12351015Y-18317436D01*
X12351015Y-18317436D02*
X12351015Y-18336484D01*
X12551015Y-18336484D02*
X12436729Y-18336484D01*
X12493872Y-18336484D02*
X12493872Y-18136484D01*
X12493872Y-18136484D02*
X12474825Y-18165055D01*
X12474825Y-18165055D02*
X12455777Y-18184103D01*
X12455777Y-18184103D02*
X12436729Y-18193627D01*
X12627206Y-18155531D02*
X12636729Y-18146008D01*
X12636729Y-18146008D02*
X12655777Y-18136484D01*
X12655777Y-18136484D02*
X12703396Y-18136484D01*
X12703396Y-18136484D02*
X12722444Y-18146008D01*
X12722444Y-18146008D02*
X12731967Y-18155531D01*
X12731967Y-18155531D02*
X12741491Y-18174579D01*
X12741491Y-18174579D02*
X12741491Y-18193627D01*
X12741491Y-18193627D02*
X12731967Y-18222198D01*
X12731967Y-18222198D02*
X12617682Y-18336484D01*
X12617682Y-18336484D02*
X12741491Y-18336484D01*
X12912920Y-18136484D02*
X12874825Y-18136484D01*
X12874825Y-18136484D02*
X12855777Y-18146008D01*
X12855777Y-18146008D02*
X12846253Y-18155531D01*
X12846253Y-18155531D02*
X12827206Y-18184103D01*
X12827206Y-18184103D02*
X12817682Y-18222198D01*
X12817682Y-18222198D02*
X12817682Y-18298389D01*
X12817682Y-18298389D02*
X12827206Y-18317436D01*
X12827206Y-18317436D02*
X12836729Y-18326960D01*
X12836729Y-18326960D02*
X12855777Y-18336484D01*
X12855777Y-18336484D02*
X12893872Y-18336484D01*
X12893872Y-18336484D02*
X12912920Y-18326960D01*
X12912920Y-18326960D02*
X12922444Y-18317436D01*
X12922444Y-18317436D02*
X12931967Y-18298389D01*
X12931967Y-18298389D02*
X12931967Y-18250770D01*
X12931967Y-18250770D02*
X12922444Y-18231722D01*
X12922444Y-18231722D02*
X12912920Y-18222198D01*
X12912920Y-18222198D02*
X12893872Y-18212674D01*
X12893872Y-18212674D02*
X12855777Y-18212674D01*
X12855777Y-18212674D02*
X12836729Y-18222198D01*
X12836729Y-18222198D02*
X12827206Y-18231722D01*
X12827206Y-18231722D02*
X12817682Y-18250770D01*
X13055777Y-18136484D02*
X13074825Y-18136484D01*
X13074825Y-18136484D02*
X13093872Y-18146008D01*
X13093872Y-18146008D02*
X13103396Y-18155531D01*
X13103396Y-18155531D02*
X13112920Y-18174579D01*
X13112920Y-18174579D02*
X13122444Y-18212674D01*
X13122444Y-18212674D02*
X13122444Y-18260293D01*
X13122444Y-18260293D02*
X13112920Y-18298389D01*
X13112920Y-18298389D02*
X13103396Y-18317436D01*
X13103396Y-18317436D02*
X13093872Y-18326960D01*
X13093872Y-18326960D02*
X13074825Y-18336484D01*
X13074825Y-18336484D02*
X13055777Y-18336484D01*
X13055777Y-18336484D02*
X13036729Y-18326960D01*
X13036729Y-18326960D02*
X13027206Y-18317436D01*
X13027206Y-18317436D02*
X13017682Y-18298389D01*
X13017682Y-18298389D02*
X13008158Y-18260293D01*
X13008158Y-18260293D02*
X13008158Y-18212674D01*
X13008158Y-18212674D02*
X13017682Y-18174579D01*
X13017682Y-18174579D02*
X13027206Y-18155531D01*
X13027206Y-18155531D02*
X13036729Y-18146008D01*
X13036729Y-18146008D02*
X13055777Y-18136484D01*
X13198634Y-18136484D02*
X13198634Y-18174579D01*
X13274825Y-18136484D02*
X13274825Y-18174579D01*
X13570063Y-18412674D02*
X13560539Y-18403150D01*
X13560539Y-18403150D02*
X13541491Y-18374579D01*
X13541491Y-18374579D02*
X13531968Y-18355531D01*
X13531968Y-18355531D02*
X13522444Y-18326960D01*
X13522444Y-18326960D02*
X13512920Y-18279341D01*
X13512920Y-18279341D02*
X13512920Y-18241246D01*
X13512920Y-18241246D02*
X13522444Y-18193627D01*
X13522444Y-18193627D02*
X13531968Y-18165055D01*
X13531968Y-18165055D02*
X13541491Y-18146008D01*
X13541491Y-18146008D02*
X13560539Y-18117436D01*
X13560539Y-18117436D02*
X13570063Y-18107912D01*
X13731968Y-18203150D02*
X13731968Y-18336484D01*
X13684348Y-18126960D02*
X13636729Y-18269817D01*
X13636729Y-18269817D02*
X13760539Y-18269817D01*
X13989110Y-18336484D02*
X13989110Y-18136484D01*
X14074825Y-18336484D02*
X14074825Y-18231722D01*
X14074825Y-18231722D02*
X14065301Y-18212674D01*
X14065301Y-18212674D02*
X14046253Y-18203150D01*
X14046253Y-18203150D02*
X14017682Y-18203150D01*
X14017682Y-18203150D02*
X13998634Y-18212674D01*
X13998634Y-18212674D02*
X13989110Y-18222198D01*
X14198634Y-18336484D02*
X14179587Y-18326960D01*
X14179587Y-18326960D02*
X14170063Y-18317436D01*
X14170063Y-18317436D02*
X14160539Y-18298389D01*
X14160539Y-18298389D02*
X14160539Y-18241246D01*
X14160539Y-18241246D02*
X14170063Y-18222198D01*
X14170063Y-18222198D02*
X14179587Y-18212674D01*
X14179587Y-18212674D02*
X14198634Y-18203150D01*
X14198634Y-18203150D02*
X14227206Y-18203150D01*
X14227206Y-18203150D02*
X14246253Y-18212674D01*
X14246253Y-18212674D02*
X14255777Y-18222198D01*
X14255777Y-18222198D02*
X14265301Y-18241246D01*
X14265301Y-18241246D02*
X14265301Y-18298389D01*
X14265301Y-18298389D02*
X14255777Y-18317436D01*
X14255777Y-18317436D02*
X14246253Y-18326960D01*
X14246253Y-18326960D02*
X14227206Y-18336484D01*
X14227206Y-18336484D02*
X14198634Y-18336484D01*
X14379587Y-18336484D02*
X14360539Y-18326960D01*
X14360539Y-18326960D02*
X14351015Y-18307912D01*
X14351015Y-18307912D02*
X14351015Y-18136484D01*
X14531968Y-18326960D02*
X14512920Y-18336484D01*
X14512920Y-18336484D02*
X14474825Y-18336484D01*
X14474825Y-18336484D02*
X14455777Y-18326960D01*
X14455777Y-18326960D02*
X14446253Y-18307912D01*
X14446253Y-18307912D02*
X14446253Y-18231722D01*
X14446253Y-18231722D02*
X14455777Y-18212674D01*
X14455777Y-18212674D02*
X14474825Y-18203150D01*
X14474825Y-18203150D02*
X14512920Y-18203150D01*
X14512920Y-18203150D02*
X14531968Y-18212674D01*
X14531968Y-18212674D02*
X14541491Y-18231722D01*
X14541491Y-18231722D02*
X14541491Y-18250770D01*
X14541491Y-18250770D02*
X14446253Y-18269817D01*
X14617682Y-18326960D02*
X14636730Y-18336484D01*
X14636730Y-18336484D02*
X14674825Y-18336484D01*
X14674825Y-18336484D02*
X14693872Y-18326960D01*
X14693872Y-18326960D02*
X14703396Y-18307912D01*
X14703396Y-18307912D02*
X14703396Y-18298389D01*
X14703396Y-18298389D02*
X14693872Y-18279341D01*
X14693872Y-18279341D02*
X14674825Y-18269817D01*
X14674825Y-18269817D02*
X14646253Y-18269817D01*
X14646253Y-18269817D02*
X14627206Y-18260293D01*
X14627206Y-18260293D02*
X14617682Y-18241246D01*
X14617682Y-18241246D02*
X14617682Y-18231722D01*
X14617682Y-18231722D02*
X14627206Y-18212674D01*
X14627206Y-18212674D02*
X14646253Y-18203150D01*
X14646253Y-18203150D02*
X14674825Y-18203150D01*
X14674825Y-18203150D02*
X14693872Y-18212674D01*
X14770063Y-18412674D02*
X14779587Y-18403150D01*
X14779587Y-18403150D02*
X14798634Y-18374579D01*
X14798634Y-18374579D02*
X14808158Y-18355531D01*
X14808158Y-18355531D02*
X14817682Y-18326960D01*
X14817682Y-18326960D02*
X14827206Y-18279341D01*
X14827206Y-18279341D02*
X14827206Y-18241246D01*
X14827206Y-18241246D02*
X14817682Y-18193627D01*
X14817682Y-18193627D02*
X14808158Y-18165055D01*
X14808158Y-18165055D02*
X14798634Y-18146008D01*
X14798634Y-18146008D02*
X14779587Y-18117436D01*
X14779587Y-18117436D02*
X14770063Y-18107912D01*
X15131968Y-18412674D02*
X15122444Y-18403150D01*
X15122444Y-18403150D02*
X15103396Y-18374579D01*
X15103396Y-18374579D02*
X15093872Y-18355531D01*
X15093872Y-18355531D02*
X15084349Y-18326960D01*
X15084349Y-18326960D02*
X15074825Y-18279341D01*
X15074825Y-18279341D02*
X15074825Y-18241246D01*
X15074825Y-18241246D02*
X15084349Y-18193627D01*
X15084349Y-18193627D02*
X15093872Y-18165055D01*
X15093872Y-18165055D02*
X15103396Y-18146008D01*
X15103396Y-18146008D02*
X15122444Y-18117436D01*
X15122444Y-18117436D02*
X15131968Y-18107912D01*
X15208158Y-18203150D02*
X15208158Y-18336484D01*
X15208158Y-18222198D02*
X15217682Y-18212674D01*
X15217682Y-18212674D02*
X15236730Y-18203150D01*
X15236730Y-18203150D02*
X15265301Y-18203150D01*
X15265301Y-18203150D02*
X15284349Y-18212674D01*
X15284349Y-18212674D02*
X15293872Y-18231722D01*
X15293872Y-18231722D02*
X15293872Y-18336484D01*
X15417682Y-18336484D02*
X15398634Y-18326960D01*
X15398634Y-18326960D02*
X15389111Y-18317436D01*
X15389111Y-18317436D02*
X15379587Y-18298389D01*
X15379587Y-18298389D02*
X15379587Y-18241246D01*
X15379587Y-18241246D02*
X15389111Y-18222198D01*
X15389111Y-18222198D02*
X15398634Y-18212674D01*
X15398634Y-18212674D02*
X15417682Y-18203150D01*
X15417682Y-18203150D02*
X15446253Y-18203150D01*
X15446253Y-18203150D02*
X15465301Y-18212674D01*
X15465301Y-18212674D02*
X15474825Y-18222198D01*
X15474825Y-18222198D02*
X15484349Y-18241246D01*
X15484349Y-18241246D02*
X15484349Y-18298389D01*
X15484349Y-18298389D02*
X15474825Y-18317436D01*
X15474825Y-18317436D02*
X15465301Y-18326960D01*
X15465301Y-18326960D02*
X15446253Y-18336484D01*
X15446253Y-18336484D02*
X15417682Y-18336484D01*
X15541492Y-18203150D02*
X15617682Y-18203150D01*
X15570063Y-18136484D02*
X15570063Y-18307912D01*
X15570063Y-18307912D02*
X15579587Y-18326960D01*
X15579587Y-18326960D02*
X15598634Y-18336484D01*
X15598634Y-18336484D02*
X15617682Y-18336484D01*
X15836730Y-18203150D02*
X15836730Y-18403150D01*
X15836730Y-18212674D02*
X15855777Y-18203150D01*
X15855777Y-18203150D02*
X15893873Y-18203150D01*
X15893873Y-18203150D02*
X15912920Y-18212674D01*
X15912920Y-18212674D02*
X15922444Y-18222198D01*
X15922444Y-18222198D02*
X15931968Y-18241246D01*
X15931968Y-18241246D02*
X15931968Y-18298389D01*
X15931968Y-18298389D02*
X15922444Y-18317436D01*
X15922444Y-18317436D02*
X15912920Y-18326960D01*
X15912920Y-18326960D02*
X15893873Y-18336484D01*
X15893873Y-18336484D02*
X15855777Y-18336484D01*
X15855777Y-18336484D02*
X15836730Y-18326960D01*
X16046253Y-18336484D02*
X16027206Y-18326960D01*
X16027206Y-18326960D02*
X16017682Y-18307912D01*
X16017682Y-18307912D02*
X16017682Y-18136484D01*
X16208158Y-18336484D02*
X16208158Y-18231722D01*
X16208158Y-18231722D02*
X16198634Y-18212674D01*
X16198634Y-18212674D02*
X16179587Y-18203150D01*
X16179587Y-18203150D02*
X16141492Y-18203150D01*
X16141492Y-18203150D02*
X16122444Y-18212674D01*
X16208158Y-18326960D02*
X16189111Y-18336484D01*
X16189111Y-18336484D02*
X16141492Y-18336484D01*
X16141492Y-18336484D02*
X16122444Y-18326960D01*
X16122444Y-18326960D02*
X16112920Y-18307912D01*
X16112920Y-18307912D02*
X16112920Y-18288865D01*
X16112920Y-18288865D02*
X16122444Y-18269817D01*
X16122444Y-18269817D02*
X16141492Y-18260293D01*
X16141492Y-18260293D02*
X16189111Y-18260293D01*
X16189111Y-18260293D02*
X16208158Y-18250770D01*
X16274825Y-18203150D02*
X16351015Y-18203150D01*
X16303396Y-18136484D02*
X16303396Y-18307912D01*
X16303396Y-18307912D02*
X16312920Y-18326960D01*
X16312920Y-18326960D02*
X16331968Y-18336484D01*
X16331968Y-18336484D02*
X16351015Y-18336484D01*
X16493873Y-18326960D02*
X16474825Y-18336484D01*
X16474825Y-18336484D02*
X16436730Y-18336484D01*
X16436730Y-18336484D02*
X16417682Y-18326960D01*
X16417682Y-18326960D02*
X16408158Y-18307912D01*
X16408158Y-18307912D02*
X16408158Y-18231722D01*
X16408158Y-18231722D02*
X16417682Y-18212674D01*
X16417682Y-18212674D02*
X16436730Y-18203150D01*
X16436730Y-18203150D02*
X16474825Y-18203150D01*
X16474825Y-18203150D02*
X16493873Y-18212674D01*
X16493873Y-18212674D02*
X16503396Y-18231722D01*
X16503396Y-18231722D02*
X16503396Y-18250770D01*
X16503396Y-18250770D02*
X16408158Y-18269817D01*
X16674825Y-18336484D02*
X16674825Y-18136484D01*
X16674825Y-18326960D02*
X16655777Y-18336484D01*
X16655777Y-18336484D02*
X16617682Y-18336484D01*
X16617682Y-18336484D02*
X16598634Y-18326960D01*
X16598634Y-18326960D02*
X16589111Y-18317436D01*
X16589111Y-18317436D02*
X16579587Y-18298389D01*
X16579587Y-18298389D02*
X16579587Y-18241246D01*
X16579587Y-18241246D02*
X16589111Y-18222198D01*
X16589111Y-18222198D02*
X16598634Y-18212674D01*
X16598634Y-18212674D02*
X16617682Y-18203150D01*
X16617682Y-18203150D02*
X16655777Y-18203150D01*
X16655777Y-18203150D02*
X16674825Y-18212674D01*
X16751015Y-18412674D02*
X16760539Y-18403150D01*
X16760539Y-18403150D02*
X16779587Y-18374579D01*
X16779587Y-18374579D02*
X16789111Y-18355531D01*
X16789111Y-18355531D02*
X16798635Y-18326960D01*
X16798635Y-18326960D02*
X16808158Y-18279341D01*
X16808158Y-18279341D02*
X16808158Y-18241246D01*
X16808158Y-18241246D02*
X16798635Y-18193627D01*
X16798635Y-18193627D02*
X16789111Y-18165055D01*
X16789111Y-18165055D02*
X16779587Y-18146008D01*
X16779587Y-18146008D02*
X16760539Y-18117436D01*
X16760539Y-18117436D02*
X16751015Y-18107912D01*
M02*
